<svg width="26" height="16" viewBox="0 0 26 16" version="1.1" xmlns="http://www.w3.org/2000/svg">
<g id="Canvas" fill="none">
<g id="icon_eng">
<mask id="mask0" mask-type="alpha" maskUnits="userSpaceOnUse" x="0" y="0" width="26" height="16">
<g id="Rectangle">
<rect width="26" height="16" rx="2.32435" fill="#C4C4C4"/>
</g>
</mask>
<g mask="url(#mask0)">
<g id="Flag_of_the_United_Kingdom">
<g id="Vector">
<path d="M 0 0L 0 16L 33.0909 16L 33.0909 0L 0 0Z" transform="translate(-3.54547 0)" fill="#00247D"/>
</g>
<g id="Vector_2">
<path d="M 0 0L 33.0909 16L 0 0ZM 33.0909 0L 0 16Z" transform="translate(-3.54547 0)" fill="black"/>
<path d="M 33.0909 0L 0 16M 0 0L 33.0909 16L 0 0Z" stroke-width="3.25409" transform="translate(-3.54547 0)" stroke="white"/>
</g>
<g id="Vector_3">
<path d="M 0 0L 33.0909 16L 0 0ZM 33.0909 0L 0 16Z" transform="translate(-3.54547 0)" fill="black"/>
<path d="M 33.0909 0L 0 16M 0 0L 33.0909 16L 0 0Z" stroke-width="2.16939" transform="translate(-3.54547 0)" stroke="#CF142B"/>
</g>
<g id="Vector_4">
<path d="M 16.5455 0L 16.5455 16L 16.5455 0ZM 0 8L 33.0909 8Z" transform="translate(-3.54547 0)" fill="black"/>
<path d="M 0 8L 33.0909 8M 16.5455 0L 16.5455 16L 16.5455 0Z" stroke-width="5.42348" transform="translate(-3.54547 0)" stroke="white"/>
</g>
<g id="Vector_5">
<path d="M 16.5455 0L 16.5455 16L 16.5455 0ZM 0 8L 33.0909 8Z" transform="translate(-3.54547 0)" fill="black"/>
<path d="M 0 8L 33.0909 8M 16.5455 0L 16.5455 16L 16.5455 0Z" stroke-width="3.25409" transform="translate(-3.54547 0)" stroke="#CF142B"/>
</g>
</g>
</g>
</g>
</g>
</svg>

