<?xml version="1.0" encoding="utf-8"?>
<!-- Generator: Adobe Illustrator 19.2.1, SVG Export Plug-In . SVG Version: 6.00 Build 0)  -->
<svg version="1.1" id="Layer_1" xmlns="http://www.w3.org/2000/svg" xmlns:xlink="http://www.w3.org/1999/xlink" x="0px" y="0px"
	 viewBox="0 0 720 474" style="enable-background:new 0 0 720 474;" xml:space="preserve">
<style type="text/css">
	.st0{stroke:#3D9AC4;stroke-width:0.4;stroke-miterlimit:2;}
	.st1{enable-background:new    ;}
	.st2{fill:#FFFFFF;}

	.room, .room polygon, .room path{fill: transparent; stroke:#3D9AC4; stroke-width:.4; stroke-miterlimit:2;}

	/*при наведении */
	.room:hover, .room:hover polygon, .room:hover path{fill: rgba(256,256,256,.5); stroke: #fff; stroke-width: 1; z-index: 2; position: relative;}

	/*при наведении */
	.room.hover, .room.hover polygon, .room.hover path{fill: rgba(256,256,256,.5); stroke: #fff; stroke-width: 1; z-index: 2; position: relative;}
</style>
<g id="Map_xA0_Image_1_">
	
		<image style="overflow:visible;enable-background:new    ;" width="960" height="632" id="Map_xA0_Image" xlink:href="5F78558E.png"  transform="matrix(0.7493 0 0 0.7493 0.3642 0.4644)">
	</image>
</g>
<g id="Layer_2">
	<path id="Украина" class="room" d="M194.6,249.7v-2.2c0,0,1.7-1.3,2.7-0.9s1.8-0.1,2.7-1c0.8-0.9,3.5-0.3,5.2-0.3
		s1,3.4,2.3,4.5c1.7,0.4,1.9-0.1,2.7,0.6c0,0,1.2,3.2,3.4,4.9c2.8,0.2,4.3-0.7,5.5,0c0,0,1.2,2.9,9.6,3.1c1.2,1.7-1.3,3-0.9,4.7
		c0,0,0.9,0.3,0.7,4.5c-1.4,0.1-3,0-3,0s0.1,1.9-4.3,4.5c-1.9,1-3.3,0-8.6,5.2c0,0-2.6,0.1-3.7,0s-6.3-0.4-9-3.3
		c-1.2-0.5-4.4,6.8-4.4,6.8s-2.9,1.2-5.6,0.2c0.4-1.8,1.3-4.1,2.2-5.4c0,0,2.8,0,3.2,0s-1.2-3.7-3.3-4.6c-0.4-1.3-0.1-1.9-0.1-2.6
		c0,0-3.1-1.5-4.6-1.7c-1.4-0.6-4.7-1.7-5-0.9c-0.9,1.9-3.5,3.8-6,4.4c0,0-3.1-1.8-7.6-2.2c0,0-2.9-1.4-0.9-5s4.5-7,4.7-7.8
		c0,0-2.4-3.8-1.7-6.3c3.5,0,4.5,0.1,4.5,0.1l3.1-0.9l4,1.6h3.6L194.6,249.7z"/>
	<polygon id="Беларусь" class="room" points="183.8,225.4 188.8,227.2 190.9,226.8 193.5,228 194.5,231.9 195.1,233.3 
		198.4,237.2 200.5,239.7 200.1,241.3 196.7,241.4 196.7,242.8 197.7,245.2 197.9,246.9 194.9,247.9 194.6,249.9 182.1,249.9 
		180.8,248.6 178.7,248.5 176.9,247.9 176.2,249.1 171.2,249 170,247.4 170,245 171.8,244.8 171.3,242.6 169.2,238.2 169.8,237.2 
		174.1,237.4 175.6,235.1 177.2,232 179.7,227.8 182,227.5 183.3,225.4 183.6,225.4 	"/>
	<path id="Казахстан" class="room" d="M359.4,232.8l2.9,3.6l4.8,6l1.7,0.2l0.1-2.2l1.9,0.4l1,1.7c0,0,4.6,0.2,4.7,0.2
		s0.5-1.8,0.5-1.8l4.1,0.6l3.7,3.2l1.2,0.4l0.1,2.2l-0.1,0.6l2.7-0.1l2.4-1.2l1.7-0.7l2.2,3.1l-1.9,3.6l-1.9,1.4l-0.1,3.6l1.3,1.7
		l-2.7,2.3l-6.2-0.6l-1.2,2.3l-0.2,6l0.9,1.4l-3.8,0.2l-4.7,1l-0.3,1.7l2.5,0.4l-0.1,3l1.4,2.4l0.8,1.9l-0.2,2.5l-1.5,1.8l-2.8-1.7
		l-2.4-1l-9.6,0.1l-1.4,1.1l-3.2-0.7l-4.5-0.4l0.3,2.6l-6.5,0.1l-1.7-0.4l-1.9,2.2l-5.9,6.8l-2.4-0.9l-2.2,0.1l-1.7,1l-1.5-2.3
		l-1.4-2.1l-2.1-0.2v-5.3l-2.4-1.4l-1.7-2.1l-13.4-0.1l-3.1-2.2l-2-3l-0.9-1.2l-1.4,0.1l-0.5,2.5l-1.2,0.8l-2.2-2.7L294,276l-5,1
		l0.4,3l0.9,5.1l1,5.3l0.6,4.8l-2.5-0.1l-4.6-4.5l-3.8,0.1l-2.6,2.3l0.4-3l-2.9-0.2l-5.1-6.7l-1.9-1.2l0.1-1.2l3.3,0.9l-1.3-2.4
		l1.3-1.7l3.5-0.4l1.4-5.5l-1.9-1.4l-5.2-0.6l-4.7,2.6l-4.5-3.7l-2-3.2l-3.1-1l-2.2-2.2l-1.2-0.9l0.4-3.5l-0.1-2.9l2.2-2.8l3.6,3.5
		l1.1-2.6l-0.5-2.2l2.4-0.3l0.1-3.7l3.3-2.2l1.5,1.5l1.7,0.4l1.9-1.9l4,1.5l5,3.5l1.4-0.9l2.9,1.5l2.4-2.9l2.4,0.2l1.4,0.9l2.2-1.4
		l1.2,0.7l0.7,2l2.2-0.1l2.2,0.5l0.6-1.9l3.3,0.6l0.6-4l-5.3-2.2l1.5-3.1v-2.7l3.5-0.9l-1.1-1.5l-2.8,0.1l-0.9-1.9l0.6-1.2l3.8-0.5
		l2.2-0.8l3-0.9l1.4-0.7l2.3-0.8l1.6-0.9l2.2-1.3l3.1-0.9l2.3-1.3l1.9-1.4l1.8-1.5l2.8,0.4l1.6,0.3l1.7-0.1l1.4,2.2l0.7,3.2l0.1,0.5
		h2.2l1-1.7l1.5,1.4l1.2,1.2l2.9-0.2l0.1,2.4l4.2-0.2l0.6-1.2l2.7-1.8l1.8-1.9l2.4-0.2l-0.6,2.2l1.5,1l3,2.2l1.7,1.4L359.4,232.8z"
		/>
	<polygon id="Центральный_ФО" class="room" points="193.7,227.5 201.8,224.6 203.1,219.9 206.5,217.6 207.7,209.6 
		215.5,204.6 218.7,203.8 222.8,199.6 226,200.5 227.7,201.5 231.1,197.4 240.2,196.3 242.1,195.1 242.3,192.5 244.1,192.5 
		243.8,202.1 240,204.4 237.9,211.1 236.3,211 235,216.2 233.5,222.1 236,223.1 235.4,227.7 234.8,230 238.2,231.8 238.4,240.1 
		238,241.3 235.5,241.6 233.8,245.6 229.2,249.3 228,252.3 220.2,254.1 213.4,255.6 210.7,250.2 206.8,249.6 205.4,245.9 
		199.3,246.2 197.2,246.1 196.8,241.5 200.4,240.6 196,234.5 193.1,228.6 	"/>
	<g id="Северо-Западный_ФО" class="room">
		<polygon class="st0" points="282.7,139.8 283,135.2 281.5,133.4 279.8,132.4 278.9,129.5 273.1,127.6 267.9,127.2 265,127.2 
			258.9,123.2 258.1,126.1 260.1,128.5 263.5,128.8 266.5,131.6 268.4,134.2 266.4,135.7 265.7,138.3 263.7,135.6 262,133.7 
			259.4,136.2 257.9,137.7 252.8,138 251.4,141.4 248.4,140.7 247.5,137.1 250,136.1 247.1,135.4 242.8,139.5 239.4,141.4 
			236.7,144.4 231.9,147.3 232.5,151.7 230.4,153.4 227.9,153.1 225.3,150.6 224.4,149.3 227.3,147 228.9,146.7 225.3,142.4 
			217.2,142.2 220.5,146.1 220.4,151.6 223.4,153.8 223,158.8 221.1,157.5 217.5,157.3 211.5,163.1 211.4,166.2 213.6,169 
			211.9,170.4 208.5,169.3 204.1,167 202.3,167.2 202.2,170.7 205.5,173.1 207.4,173.6 206.7,175.9 202.2,173.8 200,172.6 
			197.5,173.1 196.3,167.8 196,163.1 189.9,159 186.7,155.2 191.3,157.5 204.3,160.8 207.7,161.4 211.4,159.3 213.6,156.1 
			214,152.8 211.2,149 207.5,146.7 201.3,143.7 196.4,140.9 194.4,139.8 190,140.1 186.9,139.5 183.4,138.8 185.6,137.3 182.1,136 
			180,137.6 176.1,136.8 173.8,136 172.1,137 173.4,138.1 175.6,138.5 176.4,140.6 174.9,143.4 174.6,147 176.6,149 179.5,151.9 
			178.5,156.1 181,161.3 182.6,165.2 182.2,170.2 183.3,172.3 183.9,174.6 185.1,177.3 184.4,179.7 187.4,182.1 188.8,184.9 
			187.4,187.9 185.6,191.1 183.6,194.5 180.9,197.2 181.4,198.7 183.9,200.9 183.3,202.6 180.2,202.9 181.3,207 180.9,210.9 
			180,213.8 180.7,216.7 181,219.9 183.1,223.3 184.8,225.4 187.9,226.4 192.1,227 196.5,226.9 201,225.2 201.9,224.4 202.6,219.6 
			206.9,218 207.2,213.3 207.3,209.9 211.9,207.7 216,210.8 217.2,208.9 213.6,205.6 215.8,204 218.9,204.3 221.9,200.6 
			225.8,200.4 228.2,201.4 231.3,197.5 238,196.9 240.4,195.7 242.4,195.4 242.3,192.5 243.8,192.5 242.4,189.7 242.6,183.1 
			247.5,184 250.1,189.8 252.5,193.3 253.3,189.8 258.4,187.2 258.1,184 260.6,181.1 262.3,182.3 265.6,182.1 270.5,177.8 
			272.8,177.7 271.2,172.1 271.1,167.3 268.9,164.8 270.1,160.2 276.5,155.6 276.7,153.6 279.3,152.8 279.9,150.7 283.2,150.3 
			284,147.5 284.5,142.7 		"/>
		<polygon class="st0" points="234.2,114.9 234.3,117.6 236.1,119.3 237.7,118.4 238.8,120.5 239.8,121.6 242.4,122.9 243.3,124 
			254.3,124.2 253.9,122.4 250.2,119.8 247.4,117 245.1,113.7 244.9,110.2 244.9,106.7 245.7,103.1 247.6,99.9 247.4,97.2 248.6,95 
			248.9,92.5 251.1,90.4 252.6,87.7 256.8,82.9 263.3,78.7 267.8,75.6 269.4,73.2 268.7,69.8 265,68.7 263.3,69.6 261.2,71.5 
			261,73.8 258.6,75.4 256,76.8 253.9,78.1 252.7,78.7 249.5,78.6 249.6,81 247.2,80.6 245.3,82.2 243.5,85 242.6,87.4 241,88.5 
			239.3,89.6 239.1,90.8 241,91.9 240.2,93.2 239.8,95.5 239.2,97.7 238.2,99.3 236.7,101.3 237.2,102.4 238.9,102.7 238.7,104.5 
			237.1,105.6 236.6,107.8 235.1,109.2 236.7,110.7 236.4,114 		"/>
	</g>
	<path class="room" id="Приволжский_ФО" d="M301.2,244.8l-3.6-2.8l-2.6,0.5l-1.7-2.5l-4.4,2.2l-2-5.6l-1.3-5.1l3.5-1.1l-3.8-2.8l-2.9,1.6l-4.3-2.8
		l0.6-2.8l3.2,1.3l2.1-1.3l-1.2-4.2l-6.2-1.7l-0.5-4.3l-0.7-4.5l2.5-0.3l-0.2-2.7l1.9-2.5l-2-1l-0.7-3.2l-2.6-2.3l0.6-3.1l-1.1-6.9
		l-1.2-9.1l-2,0.2l-4.5,4.3l-5.5-1.2l-3.2,3.2l1.4,2.6l-5.3,2.7l-0.7,3.2l-3.7-3.2l-1.3-5.2l-5-0.8l-0.5,5.6l1.3,2.7l1,4.5l-1.1,5.9
		l-3.2,1.3l-2,7l-2.2,0.3l-3,11l3,0.7l-1.6,7l3.7,2.8l0.1,8.3l2,0.2l-2.1,0.4l-3.6,1.1l-0.5,3.3l-1.6,0.8c5.5,6,12.8,9.1,20.5,10.6
		l-0.4-2l2.2-2.7l1.5,0.8l3.4,1.5l-1.1-4.2h3.1l-1-1.5l1.8-2.3l-0.2-0.2l2-2.4l1.8,2.6l5-1.1l3.2,0.8l4.6,3.8l1.2-1.5l3.8,0.5
		l1.9-2.8l2.4,1.8l2-1.5l2,1.7l4.5,1.6l1.9-1.6l3.3-0.2L301.2,244.8z"/>
	<path class="room" id="Южный_ФО" d="M232.5,246.5l-3.6,1.9l-0.7,3.5l-3.6,1.3l-5.6,1.5l1.5,2.7l2.3-0.2l6.1,2.5l-1,3.5l0.3,4.3l-2.2,0.4l-2.7,2.5
		l4.5,0.6l-4.7,2.5l2.4,2.4l-1.7,1.8l-1.3,4.5l8.8,4.5l5.8-5.5l-3.6-4.3l6.5-11.2l2.5,0.5l1.5-2l10.9-0.7l-1.8-2.1l0.2-2.4l-0.3-1.9
		C245.3,255.6,238,252.6,232.5,246.5z"/>
	<polygon id="Северо-Кавказский_ФО" class="room" points="261,297.7 256.4,295.2 252.8,292.8 247.9,292.2 
		246.7,290.7 240.8,289.7 233.9,289.2 230.7,285.8 237.1,281 234.6,276.9 235.2,273.8 238.4,269 240.3,265.9 242.8,265.1 
		244.3,263.3 254.9,263.5 257.8,264.8 261.2,267.9 260.5,269.5 265.8,272 263.7,274.1 262.1,276.5 259.7,276.9 258.7,279.7 
		257.2,282.3 260.2,285.5 260.2,288.4 262.3,291.9 264.9,294.7 262.8,297.1 	"/>
	<polygon id="Уральский_ФО" class="room" points="324.4,220 321.8,221 319.1,223.8 313.2,225.9 301.6,230.8 297.7,230.8 
		298.6,234.5 301.5,235 301.8,236.4 298.8,236.6 297.9,240.5 296.9,241.6 294,241.3 292.8,240.2 288.9,242.5 285.9,233.6 
		285.9,230.6 288.6,229.5 285.1,227.2 283.2,229.1 277.9,225.9 277.7,223.3 280.3,223.8 283.2,224 284,222.1 282.2,218.9 
		278.4,218.2 276,217.2 275.8,213.3 276.6,209.6 278.1,206.4 279.3,203 276.9,201.6 276.9,199.2 274.5,197 274.1,194.1 274.8,188.9 
		273.1,183.3 272.5,177.2 270.3,171.3 271,167.3 269.2,164.3 269.9,160 274.8,156.8 278.4,152.8 281.2,150.3 283.3,149 284.5,142.7 
		283,139.5 282.8,134.3 280.1,132.4 279.7,129.8 292.2,135.2 291.8,130.6 288.3,128.3 285.8,127.1 283.3,125.8 283.1,123.2 
		283,120.3 281,118.1 279.7,118.3 279.4,114.1 282.3,111 282.3,105.1 281.5,99.8 283.3,98.8 282.6,96.1 284.7,94.7 287.2,96.8 
		285.6,98.5 285.7,99.6 291.2,99.8 292.7,100.7 293.3,102.9 293.5,110.6 296.8,112.9 298.7,117.1 300.3,121.9 302,126.7 
		304.3,129.7 306.7,131.6 307.1,135.2 306.9,139 306.8,143.4 305.4,145.8 303.5,148.3 308.6,147.8 308.8,145.8 311.4,143.7 
		311.5,138.8 312.5,135.2 308.4,130.3 310.3,128.2 313.2,127.2 317.2,129.2 319.1,133.1 320.7,135.8 325.4,136.6 325.2,135.2 
		320,132.9 320.5,131 318.1,127.7 313.2,125.8 311.2,125.4 309.9,126.7 305.9,126.8 303.5,122.6 302.8,118.8 303.5,116.7 
		301.1,113.9 298.3,111 296.7,110.3 297.1,106.7 299.3,104.4 299.1,101.4 297.7,99 295.3,96.6 299.4,98.3 301.5,101.4 302,105.1 
		303.3,107.8 305.2,110 312.5,110.3 310.6,108.3 306.4,108.3 304.4,105.2 304.7,103.2 306.9,102.9 310.3,104.6 312.7,104.7 
		316.9,106 317.8,109 321,111.9 322.4,116 319.3,122.1 326.9,126.1 329.4,125.1 334.3,129.6 333.5,136.5 336.6,140.6 339.3,140.9 
		340,144.3 341.2,146.5 347.4,153.3 348.9,154.1 352.9,154.4 352.9,161.1 355.1,165.2 354.5,172.9 361.2,176.9 358.3,181.1 
		353.2,182.8 350.5,186.4 344,185.9 337.3,188.5 336,194.8 333.7,199.9 330.5,206.2 327.3,207.5 322.9,207.9 320,206.5 320.2,213 
		324.4,214 	"/>
	<g id="Сибирский_ФО" class="room">
		<polygon class="st0" points="505,224.4 507,221 505.5,217.7 502.5,217.9 504.5,213.6 506.4,211.9 504.5,210.9 506,209.1 
			501,207.9 498.4,200.9 495.5,200.4 493.1,198.1 491.2,199.6 490.2,195.8 485.9,192.3 483.9,188 478.4,180.8 471.2,171 
			470.4,172.9 468,169.8 463.2,167.5 460.1,166.7 458.4,169 457.2,174.4 454.1,178 451.7,175.2 444.9,178.3 442.3,175.3 
			442.3,163.6 439.1,162.1 437.3,158.5 436.9,155.7 433.9,154 430.4,147 427.8,146.2 427.6,143.1 426,141.5 418.6,140.6 
			416.2,139.2 415.5,132.4 411.3,128 410.1,124.5 407.3,123.4 408.1,120.7 409.5,120.7 408.3,116.3 405.8,111.9 404.3,109.6 
			402.4,106.7 400.9,105 403.4,101.2 406.6,100.3 404.8,94.9 407,94.7 406.6,90.3 410.1,86.2 407.1,83.2 406.3,79.9 401.3,76.8 
			397.1,74.2 395.8,72.2 391.6,70.9 386.6,74.9 384.8,76.5 385.2,73.6 386.3,70.4 388.3,69.6 389.3,65.9 390.6,61.7 392.2,58.3 
			394.2,54.7 395.3,52.4 394.3,48.6 391,44 388.6,41.9 385.8,41.4 384.3,39.4 379.5,40.8 374.8,41.6 371.7,42.7 372.2,45.3 
			369.6,45.6 369.1,40.9 364.8,41.2 362.3,42.4 363.3,38.4 361.2,37.1 357.7,37.3 355.2,39.3 352.5,43.5 351.9,47.6 353.8,49.1 
			354.5,51.2 349.6,52.2 350.1,54.9 347.8,56.5 346,58.3 342.7,60.2 342.7,56.8 340.2,57.6 336.8,59.4 335.8,61.9 334,64.2 
			329.9,66.3 326.2,68.9 324.5,72.7 322.5,74.4 320.9,76.9 319.6,80.1 322.4,80.6 325.4,80.7 327.3,82.7 324.4,84 320.2,85.4 
			316.8,86.9 313.9,88.2 311.4,88.9 311.4,93 314.2,93.5 315.9,98.2 320.5,99.2 322.5,102 320.7,103.9 315,100.3 308.7,99.3 
			306.2,98.7 304.4,101.9 306.9,103.9 311.7,104.5 317.9,105.9 318.1,109.6 320.5,110.8 321.9,115.2 319.4,121.9 327.2,126.2 
			329.7,124.5 334,130.2 333.5,136.7 336.6,141.3 339.4,141.6 340.4,145.2 347.3,154.3 352.7,154.7 353.2,161 355.2,164.4 
			354.7,172.6 361.5,177.1 358.2,180.8 352.7,182.1 350.9,186.1 343.5,186.4 336.7,188.2 336.2,194.4 334.7,198.5 331.2,205.1 
			330,206.4 324,207.7 319.9,206.4 320,212.9 324.5,214.3 324.5,220.4 327.2,221.3 329.9,220.4 331.7,223.4 331.9,227.1 
			335.7,224.9 337.2,228.1 340.7,227.1 340.9,230 344.5,229.6 347.3,226.9 351.5,224.1 351.7,226.6 356.8,230.5 361.5,235.6 
			367.2,242.9 369.4,241 372.2,242.4 376.8,242.7 377.5,241.3 381.1,241.9 383.8,244.7 385.6,245.1 386.3,247.9 391.1,247.4 
			393.3,246.4 395.8,249.5 397.6,248.4 401.1,248.2 402.7,245.1 405.8,241.5 408,239.7 412.8,239.5 413.9,240.7 417.3,240.5 
			418.1,242.2 421.6,243.7 425,243.2 431.3,243.9 430.6,238.2 428.6,237.2 428.4,233.6 430.9,232.3 431.4,230.2 442.1,233.2 
			445.1,238.1 449.5,240.2 454.9,238.2 460.4,237.9 463.4,239.4 466.1,240 468.9,242 476.5,242.7 481.1,240.9 485,239.4 
			487.4,235.9 491.1,235.7 494.2,237.2 495.5,235.7 498.2,236.6 501.7,236.6 504.5,235.2 506.4,232.5 505,231.8 		"/>
		<polygon class="st0" points="345.7,37.4 347.7,34.2 351.7,34.5 355.8,29.8 353.8,26.6 350.5,25.6 346.5,25.6 344.3,23.6 
			342.5,25.1 342,30.6 343.2,37.9 		"/>
		<path class="st0" d="M314.5,25l-2.2,1.4l1,3.2l2.5,0.6l2.2-0.9l0.1-1.8c0,0,0.6,0,1.2,0.4s0.5,3.2,0.5,3.2l3-1l2.8,3.3l2.2-0.9
			l3.8-1l3.2,2l3-1.4l1.4-1.8l-1.8-2.3l-1.7-5l-3.3-2.5l-2.3-0.1l0.5,3.5l-1.8-1.4L328,20l-2-0.1l-1.8-2.5l0.9-2.7l-2.8-0.6
			l-5.3-2.2l-1,2.5l-3,2l-0.4,2.9l1.2,2.3l-2,2.2L314.5,25z"/>
	</g>
	<g id="Дальневосточный_ФО" class="room">
		<polygon class="st0" points="681.4,68.4 679.9,65.4 677.2,62.4 674.7,60.1 680.1,56.4 679.2,52.9 679.4,48.9 676.9,47.2 
			671.2,47.2 667.2,45.7 661.7,48.6 658.2,51.4 661.4,53.2 663,56.4 661.2,56.2 658.2,53.9 656.2,50.6 655.2,48.9 651.4,49.1 
			647.9,47.9 641.2,48.2 636,48.2 633.3,46.2 629.5,46.9 623.5,43.7 615.8,44 610.2,43.2 605,44.4 599.5,44.9 593.8,45.2 596,49.4 
			598.3,52.7 602.3,55.7 599.5,59.1 596,56.9 591,55.7 588.5,52.9 593,52.7 592.3,48.6 586.8,48.9 586.5,54.2 585,55.9 580.3,55.7 
			577,56.4 571.3,58.9 568,60.6 563,59.4 560.5,54.7 555.6,50.9 549.3,49.6 542.6,50.1 538.1,53.4 532,56.2 527.1,52.2 523.1,50.9 
			519.6,50.9 515.1,48.2 514.6,45.9 509.1,46.4 507.4,51.4 507.9,54.2 504.9,54.9 505.1,51.7 506.4,48.6 505.6,46.4 500.1,46.9 
			495.4,47.2 492.3,47.7 488.4,48.2 485.7,48.6 488.1,50.9 486.6,52.4 484.4,53.2 485.9,56.4 487.6,55.4 488.6,59.6 491.6,62.7 
			489.6,64.2 485.9,61.1 485.9,63.4 482.9,63.4 481.6,64.4 477.1,64.7 476.4,68.1 470.1,66.2 467.4,64.2 467.9,70.6 469.9,75.9 
			466.4,74.7 463.1,74.4 458.9,70.6 457.2,67.6 456.2,64.9 453.6,62.7 452.4,58.4 449.4,56.7 446.7,55.9 442.6,55.9 438.9,56.7 
			434.7,55.2 431.7,55.2 432.1,61.7 432.4,63.9 427.2,65.7 423.7,64.4 420.9,65.4 419.2,64.9 419.2,62.7 415,62.2 407.7,63.4 
			405,66.2 405.5,69.4 401.7,65.4 399.5,62.9 399.2,65.7 396,66.2 394.5,63.2 392.7,64.2 390.7,66.9 390,70.1 392.9,71.6 
			396.5,72.9 405.7,80.1 407,83.7 409.9,85.4 406.5,91.6 407,94.6 404.2,95.6 406,100.9 402.4,101.6 401.2,104.4 404.5,109.6 
			409,117.3 409.5,120.6 407.5,121.3 408,123.9 410.7,124.9 410.7,128.3 412.9,129.6 416,132.1 416,139.5 419.7,141.3 425.7,141.3 
			427.9,144.3 427.9,146.6 430.9,147.3 434.4,153.8 437.7,156.1 437.4,159.5 440.2,163.1 442.6,162.8 442.1,175 444.9,179 
			452.1,175.5 452.9,178 456.7,176 458.4,167.5 461.6,166.8 465.4,168.8 467.9,170.3 470.4,173.3 471.6,171.1 482.6,186.3 
			487.1,193.8 490.6,196.5 492.1,199 492.8,197.2 495.9,201.3 498.9,201.8 500.3,207 505.4,209.2 504.9,211.8 507.1,212.8 
			511.6,212.3 515.4,211.3 518.6,213 520.8,212.3 523.6,213.8 526.4,217.2 530.1,223.8 532.8,226.7 536.1,232 540.8,233.5 
			544.3,234 546.8,237 550.3,236.5 551.8,242.5 556.1,242.7 559.8,239.7 562.5,237.7 565.8,242 564.8,245.5 565.1,257.7 
			560.5,256.9 558.5,260.5 559.8,264.2 560.8,271 558.3,274.4 561,276.4 564.6,273.2 564.3,270.5 566.1,271 566.8,273.2 570,273.9 
			576.3,268.7 577,264.4 579.5,256.4 581.5,252 582,245.7 582.5,240.2 584.1,233.5 581.5,228.2 578.8,222.5 578.8,214.8 
			577.8,211.5 575.8,206 574.6,203.8 572.3,204.3 566.6,199.2 562.5,200 561.5,204.5 559.3,205 559.3,201.8 557.3,203.3 
			555.6,199.8 553.8,198.5 550.8,198.7 548.3,197 551,194.3 551,191.3 553.1,186 554.1,180.8 556.6,175.5 557.3,168.5 558.5,162.1 
			563.6,160.3 569,159.5 571,160.8 572.5,159 577,158.8 580.3,158.8 579.5,153.8 584.3,155.6 587.8,154.6 590.2,156.3 588.5,158.5 
			591.2,159.8 594,158.8 596,157.3 598,156.3 601.5,155.3 600,152.6 597.3,153.1 595.8,148 598.3,143.6 598.5,138.8 598.3,133.1 
			601.5,131.6 604.3,130.6 606.8,131.6 607.7,129.8 608.2,135.1 610.2,137.8 612.5,138.3 613.5,140.3 614.5,138.5 615,132.4 
			616,130.6 618.7,130.8 618.5,128.1 616.7,127.3 614.5,122.6 617.5,120.6 619.2,120.8 618,123.6 620.5,127.3 621.2,131.3 
			622.2,134.6 619.5,140.3 620,143.3 619.5,145.8 619,147.8 618,150.8 618,160 614.8,163.8 613.8,164.6 615,167.8 615,172.8 
			615.3,178.3 620.2,187 626,197.2 632.7,208.2 636.2,213.3 639.4,207.2 638,202.5 636.5,199.5 639.2,197.7 641.7,197.7 
			639.7,193.8 638,190 639.7,187.3 643,186.8 644,184.5 640.4,180.5 638.5,174.3 640.9,174.5 643,174.5 641.5,171.1 639.7,169.3 
			638,169 636.2,164.3 636.5,160.8 633.5,160 633,161.1 629.9,159 629.7,148.5 627.2,144.3 629.5,141.8 633,144.6 633.3,140.6 
			634.7,137.3 637.5,143.1 637.5,138.1 642.2,134.6 645.5,134.6 650.2,139 650.7,136.8 649.7,134.6 652,130.6 652.7,126.6 
			654,123.4 654.5,121.1 656.5,120.3 658.4,115.6 661.4,111.6 665.2,111.6 669.2,112.4 668.4,108.1 666.9,105.9 665.2,103.6 
			661.2,101.4 658.9,97.6 656.5,94.9 654.7,94.9 649.9,91.4 654.7,91.4 656.7,89.6 656.2,82.9 654.2,78.4 651.7,78.1 649.7,74.2 
			651.7,71.6 652.7,70.6 655.2,74.7 657.4,76.6 659.7,77.1 662.5,73.9 662.5,71.9 666.2,72.4 669.9,74.9 672.5,75.6 675.9,73.7 
			679.9,74.7 682.7,73.9 683.5,70.1 		"/>
		<polygon class="st0" points="612.9,25.7 613.1,29.3 615.3,29.9 615.8,28.8 615.8,26.3 618.5,24.8 620.9,21.9 621.2,18.2 
			618.6,17.4 615.3,17.1 613.4,18.4 611.2,21.2 612.1,22.8 		"/>
		<polygon class="st0" points="488,20.7 492.1,21.7 496.6,22.5 499.8,20.8 501.5,17.8 499,16.7 494.7,16.5 493.7,17.8 491.8,15.8 
			489.6,16.3 488.1,17.8 484.6,16 485.2,18.4 		"/>
		<polygon class="st0" points="484.7,37.9 481.4,37.6 481.1,40.1 480.3,44.3 481.6,44.4 485.4,44.2 489.5,43.8 491.6,42.7 
			490.8,40.9 487.4,38.6 		"/>
		<polygon class="st0" points="458.4,26.9 460.3,28.1 460.3,29.8 465.4,32.4 469.9,33.5 470.4,31.4 469.6,29.1 472.3,30.2 
			473.3,28.9 475.7,27.7 478.6,28.9 481,26.2 482.5,23.7 482.1,20.6 481.1,18.9 478,17.6 475.2,16.8 472.4,17.9 470.1,17.4 
			467.2,16.3 466.9,19.6 468.6,21.6 465.3,20.7 463.5,20.6 462.9,19.3 461.1,19.2 459.5,17.8 457,21.9 457.7,25 		"/>
		<path class="st0" d="M594.9,242.8l-1.7-4.1l-0.6-5.8l0.9-2.5l5.1,2.7l-3.7-4.5l-7-11l-3.1-4c0,0-0.6-3.6-0.2-3.6
			c0.4,0-2.2-3.5-2.2-3.5l-2.7-4.1l-3.1-4.7l-1.2,1.5l1.5,3l-0.5,2.5l2.2,2.6l-0.1,2.4l1.2,3.1l1.7,3l3.2,3.4l0.7,4.1l2.2,4.4
			l1.2,3.2l0.5,4.9l2.5,3.1l0.4,4.1l1.2,3.2l0.7,4.2l2,2l-0.4-4l1.5-2l3.7,3.4l-2.4-4.2L594.9,242.8z"/>
	</g>
	<polygon id="Крымский_ФО" class="room" points="209.5,277.2 213.3,277.2 215.7,279.4 217.8,279.2 221.4,279 222,280.9 
		220.6,281.5 217.6,281.7 215.9,281.8 214.3,283 211.8,284.7 209.7,284.6 209.6,281.5 207.9,280.7 205.8,280.3 206.1,278.7 	"/>
	<polygon id="Китай" class="room" points="558.5,260.5 560.8,271 557.3,274.2 555.1,278.2 552.8,279.2 554.8,281.2 549.8,282.2 
		548.3,279.9 547.1,283.9 542.3,289.9 542.6,292.7 539.8,291.7 537.6,292.9 532.3,297.6 531.3,296.6 532.6,295.2 531.3,293.9 
		533.3,288.7 531.3,287.1 528.1,287.1 528.1,290.2 523.8,293.9 523.8,296.6 518.6,296.6 519.6,301.4 524.1,301.7 527.1,304.4 
		525.9,305.9 528.6,306.6 530.8,303.4 534.6,304.4 539.1,304.7 539.1,307.6 534.9,307.9 532.6,311.4 529.1,317.1 532.3,319.7 
		536.1,322.2 540,322.4 541.8,327.1 542,331.7 545.6,337.6 544.3,344.1 543.1,351.1 537.6,355.1 537.6,361.1 534.9,362.9 
		534.1,365.1 531,365.3 530.8,367.6 527.3,369.6 526.4,372.6 519.1,373.6 516.1,376.1 509.6,377.6 504.1,380.1 505.1,383.8 
		502.6,384.8 501.1,378.8 496.6,378.6 490.6,375.3 490.4,372.8 488.1,372.6 486.1,371.6 484.1,372.6 481.8,373.6 473.6,374.6 
		471.6,376.8 472.9,379.9 468.9,378.3 466.9,378.8 465.4,376.6 463.6,376.6 464.4,372.1 461.4,371.4 461.9,369.4 459.6,368.3 
		457.7,369.9 457.4,367.8 455.7,365.1 458.4,361.1 458.7,356.1 456.7,353.4 453.9,349.6 452.9,352.1 449.2,350.9 449.9,347.8 
		446.9,345.3 445.2,348.1 441.4,346.8 439.4,349.1 434.7,351.9 431.2,352.4 427,351.4 422.7,353.4 421.7,354.6 418.8,351.9 
		414.7,353.1 411.1,350.1 407,351.2 406.5,348.4 403.6,348.4 403.4,347.3 400,346.1 394.1,343.2 390.4,343.5 385.3,339.9 
		382.6,339.7 381.2,333.5 383.4,331.2 381.6,328.9 381,324.8 377.1,322 373.6,318.3 370.1,318.6 367.3,314.1 364.6,311.4 362,312.4 
		362.2,310.7 357.8,311.2 352,315 350.8,311.7 349.9,308 346.8,306.3 346.1,309 346,310.7 343,311.3 342.7,312.7 338.1,313.3 
		336.9,310.2 338.6,307 337.1,304.7 334.8,304.4 334.5,301.5 337.6,301 339.8,299.3 341.7,297.6 340.3,295.4 343.2,294.6 350,295.3 
		348.3,291.5 344.5,292.5 343,290 345.1,286.1 348.1,286.1 353.7,286.4 353.6,283.2 357.8,283.2 359,283.8 362.6,284.2 364.7,283.5 
		371.7,283.3 374.6,284.3 377.3,286.3 379,282.8 378.5,279.9 376.5,276.1 374.7,273 378.6,272 382.6,271.3 382.5,269.6 381.2,269.2 
		382.9,261.2 389.3,261.6 392.4,259.5 391,255.2 393.4,253.5 393.4,251.1 395.7,249.8 402.4,256.1 405.2,255.6 409.2,257.4 
		410.1,260.2 411.6,261.7 411.8,265.9 411.8,267.3 414.2,269.3 422.3,270.1 429.2,273.5 431.8,275.7 434.5,280.8 447,281.2 
		448.3,280.3 455,280.5 459.6,282.5 462.4,284 466.2,283.9 466,285.1 469.4,284.9 472.6,281.2 477.4,280 482.3,279.1 486.1,276.8 
		488.5,273.9 490.3,270.8 487.5,269.1 487.2,264.6 490.6,264 495,265.7 497.7,262 501.1,261.5 503.1,260.3 503.1,257.4 506.4,255.2 
		509.2,254 512.8,254 513.1,250.8 507.9,245.6 505,246.2 504.9,248.7 503.4,249.1 502.5,247.9 500.1,247.9 499.4,248.9 497.6,248.8 
		496.7,247.4 497.1,243.7 497.7,236.6 497.9,235.7 501.6,236.7 504.4,234.9 506.2,234.1 506,232 505,231.8 504.7,224.2 506.9,221.3 
		505.1,217.7 503,217.6 504,214.5 506.1,213.3 509.2,212.5 512.3,211.5 515.9,211.5 519.5,212.8 521.7,212.4 525.1,215.5 
		527.7,219.4 530.3,223.3 533.1,227.1 535.4,231.5 536.9,232.6 541,232.3 542.4,233.3 544.8,233.7 547.9,236.7 550.3,236.4 
		551,241.3 553.7,243.1 556.6,242.7 558.5,240.5 559.8,239 562.3,237.4 564.6,238.4 565.8,242 565.3,243.7 565.3,246.1 565.3,249.2 
		565.1,252 564.9,254.5 564.9,257.6 562.3,257.4 560.3,256.6 558.8,258.6 	"/>
	<path id="Западная_Европа" class="room" d="M165.6,207.2l4.1-2.5l4.7-0.6l4.4,0.7l1.7,0.6l0.4,2l0.4,4l-1,3.4l1.2,2.4
		l0.1,3.6l1,2.7l1,1.5l-1.7,2.5l-2.7,1l-1.9,3.6l-1,2.4l-1.9,1.2l-0.4,1.7l-4.1,0.4l0.4,3.7l0.6,4.1l-0.6,2.2l0.4,4.5l1.2,0.6l1,3.4
		l-3.5,4.1v3.1l-1.7,1.2l-0.4,1.7l2.6,2.2l3.1,0.2l2.4,1.4l2.7-0.4l1.2-1.2l2.2,0.1l2.4,0.1l3.5,4.1l1.2,2l0.2,4.9l1.5,1.4l2.9,0.4
		l0.2,2.7l-0.9,1.2v4.4l-1.9,0.6l-0.4,4.1l1.4,2.2l-2.7,0.5l-1.2-1l-1.4,1.2l-0.5,2.9l-0.9,2.2l-4.9-0.4l-0.6,1l-1.5-0.4h-1.7
		l2.5,2.5l-3.6,1.5l-2.4-2.7l-0.2,2l2.2,3.2l2.2,2.6l2,1l3.9,3.1l2,4.1v2l-1.9,0.6l-1-1.7l-2.4-0.1l1.7-1.7l-0.1-2.2l-1.5-0.4
		l-0.5,1.7l-1.7-1.5l-1,1.5l-2.2-0.1l1.2,2.6l0.7,2.6l-2.2,0.6l-1-2l-1.7-0.4l-1.2-0.4l-2-3.7l-2-0.4l-1.7-2.2l-0.4-2l1.2-0.7
		l-0.5-2.2c0,0-2.4-1.4-3-1.7c-0.6-0.3-1.7-1-1.7-1l0.4-8.5l-7.3-5.3l-2.9,0.6l-2.9-1.5l-0.5-2.5l-5.3-3.6l-2.6-2.5l-1-3.6l-3.5,1.4
		l1,3.2l-0.6,2.2l4.9,3.6l1.7,4.2l2.5,2.4l4.5,0.2l0.5,1.9l3.2,2.2l5.1,3l0.9,2.2l-1.7,0.6l-2.4-1.5l-2.4-1.4l-1.4,3.1l2.4,1
		l0.9,2.5l-2.4,0.7l-0.5,1.9l-0.7,1.9l-1.5,0.2l-2,1.4l0.2,1.7l-0.4,2.4l-3.2-0.7l-4.1-1.7l-2.5-1.7l-1.4-1.9l2.9-0.7l3.1,0.9
		l1.7-0.5l1.4-0.6l2,0.4l1-1.4l1.5-2.2l-1.2-3.6l-1.2-1.2l-2-0.6l-0.2-1.7l-3.2-0.2l-0.9-2.5l-2.5-0.5l-6-4.9l-1.7-0.5l-0.7-1.4
		l-2.7-0.2l1.2-2.2l-0.7-2.7l-3.6-1.7l-2.9,0.1l-0.7,1.9l-3.2,1.2l-2.5,2.7l-5.1-0.6l-4.1-0.7l-2.4,0.7l-0.6,3.6l1.4,1.2l-0.9,1.2
		l-5.8,3.9l-2.5,0.2l-3.2,5.3l-0.1,3.9l1.2,0.5l-0.2,1.7l-1.7,0.5l-1.2,3.4l-2.6,0.7l-2.9,3.2l-8.3,0.5l-4.7,2.7l-4.9-4.7l-3.6,1.2
		l-1.9-1.4l-1.4,0.4l0.6-5.9l-2-0.2l-0.5-4.6l2.2-1.9l0.6-3l0.4-2.5l-1.2-5.4l-1.2-4.2l2.5-1l2.5-2l2.7,0.1l5.6,0.9l1.7,0.1l9.1,0.4
		l1.5,0.5l1.4-0.4l1.4-1.7l-0.4-10.6l-4.1-7l-2.6-0.7l-2.2-1l-2.9-0.2v-3.7l3.2-1.4l3.2-0.2l1.7,1.9l3.2-1.5l-1.7-4.6l2.5,0.4
		l1.4,1.2l2.9,0.4l0.9-2.2l4.5-1.9l0.2-1.2l-0.6-2.7l6.3-2.4l1.2-2.2l3.1-2.9l0.4-4.4l3.1-1.9h4.9l0.6-1.7l2.9-0.1l2.4-1.7L119,235
		l-0.1-2.6V230l-1.2-1.2h-1.2l0.5-6.8l3-2.2l4.5-3.2l0.1,2.2h2.2v1.2l-2.5,0.4l-0.4,3.7l2.7-0.7v1.9l-1.9,1.5l2.2,1.2l2.6-2l1.9-2.2
		l-1-2.9l-1.2-2.4l-1.5-2.9l-1.7-4.4l-2.2-3.6l-1.4,1.4l-2.2,1l-4.1,5.1l-3.9,0.7l-5.5-3.7l0.7-3.5l-1.7-0.2l0.4-5l-1.5-2.6l-0.4-5
		l1.4-4.7l2.2-3.1l3.6-2.9l2.9-2l2-3.1l2.4,0.4l4-5.3l-1.2-1.4l0.4-1.2l2.7-0.4l1.7-1.5l-0.2-2.4l0.4-3.2l0.7-2l1.2-2.4l1.7-2.6
		l1.9-1.4l0.5-4l-2.2-1.2l-2.4,2.2l-1.5-1.4l2.2-1.7l2.6-1.7v-2.4l3.6-2.4l2-1.7l0.9,1.5l0.5-1.7l4.6-3.5l0.1-2.2l2.4-0.9l3.1-0.2
		l2.2-0.7l2.2-2.4l3.4-1.2l2.4-0.5l0.5-2l3.5-0.5l1.9,1l3.4-0.4h3.7l2.9,1.7l2.9,0.7l1.7,2l-2.2,2l-1.2,1h-3.9l1.4,1.7l1.7,0.5
		l1.4,1.4l-0.6,2.2l-1,1.4l-0.9,2l1,2.5l4.9,4.1l-0.1,1.5L178,156l4.1,8l-0.1,6.8l1.4,1.2l0.4,2.6l1.5,2.2l-1.2,2.7l4.5,3.9
		l-0.5,3.4l-2.2,3.4l-2.2,3.7l-3.1,3.6l-2.7,1.2l-2.7,0.1l-2.7,1.7l-4.2,1.7l-4.1,0.9l-3.5-1.4l-2.2-1.4l-0.6-2.5l-0.2-3.6v-2.5
		l-0.6-3.2l-1.2-3.6v-2.7l2.5-1.9l2-2.4l2.4-1.7l1.5-3l2.2-3l0.6-2.4l-1.7-1.9l-2.5,0.2l-3.1,0.1h-1.7l-1.5,2.2l-1.2,1.7v2.6
		l0.2,1.9l0.2,1.7l-2.2,2.2c0,0-1,2-1.4,2s-2.2,0.6-2.2,0.6l-1.2,2.2l-2,2l-1.2,2.6l-0.7,2.2l-0.5,4.1l0.7,3l0.7,2.5l2.4,0.2
		l2.2,2.2l0.9,1.9l-0.7,3l-1.7,1.7l-2,1.7l-1.7,0.5l-0.5,13.9l-2.9,0.6l-2.9,1.2l-1.2,0.9l-0.9,1.9l-2.5,1.2l-2-0.4l-1.2,2.6l-1,1.7
		l-2.6,1.2v1.7l2.7-1.7l3.6-1.4l1.5-0.2l1.2,2.6l1.7,1.2l3.2-1.5l4-2l2.7-1.7l2.2-0.6l1.9,1.4l1.7,2l1.5-0.6l2.2-0.4h3.2l2.9,0.1
		h2.5l-0.4-2.6l-2.2-1.2l-1.7-0.6l-2.2-2.6l-0.6-2.2l-0.1-3.2l0.4-2l0.4-2.2l1.4-1.4l1.9-1.4l1.7,1.5l2.6,1.9l1.5,1l1-1.5l-0.4-2.7
		v-3.5H168l-1.2-0.7l-2.2,1.2l-1.9,2l-1.2-1.5l-0.1-2.7l0.9-2.5h2.5L165.6,207.2z M176.7,325.4l0.1,2.2l2,0.3l1.7,0.7l1.9,0.4
		l2.2-0.2l2.4-0.1l0.4-0.9l0.1-1.1l-1.4,0.1l-2.5-0.6l-2.6-0.3l-1.7-0.6l-1.8-0.1L176.7,325.4z M123.6,311.8l2.2-1.5l0.2-2.2
		l-0.2-4.1v-2.2l-1.5-1.2l-0.1-2.5l0.9-0.1l-0.1-3.8l-0.7-0.9l-1.7,1.4l-1.1,1.7l0.2,2.4l1.1,1.9l-0.5,1.6l-2.4,0.4l0.6,1.8l0.7,1.4
		l-0.1,5.8L123.6,311.8z"/>
</g>
<g>
	<g class="st1">
		<path class="st2" d="M146.8,240.4h3.7v0.7h-2.9v1.7h1.4c0.5,0,0.9,0,1.2,0.1s0.5,0.3,0.7,0.5s0.3,0.6,0.3,0.9
			c0,0.3-0.1,0.6-0.2,0.8c-0.1,0.2-0.3,0.5-0.6,0.6c-0.3,0.2-0.7,0.2-1.3,0.2h-2.2L146.8,240.4L146.8,240.4z M147.5,245.5h1.5
			c0.4,0,0.7-0.1,0.9-0.2c0.2-0.2,0.3-0.4,0.3-0.7c0-0.2-0.1-0.4-0.2-0.6c-0.1-0.2-0.3-0.3-0.5-0.3c-0.2-0.1-0.6-0.1-1.1-0.1h-1
			L147.5,245.5L147.5,245.5z"/>
		<path class="st2" d="M151.9,247.7V242h0.6v0.5c0.1-0.2,0.3-0.4,0.5-0.5s0.4-0.2,0.7-0.2c0.4,0,0.7,0.1,0.9,0.3s0.5,0.4,0.6,0.8
			c0.1,0.3,0.2,0.7,0.2,1.1c0,0.4-0.1,0.8-0.2,1.1c-0.2,0.3-0.4,0.6-0.7,0.8s-0.6,0.3-0.9,0.3c-0.2,0-0.4,0-0.6-0.1
			c-0.2-0.1-0.3-0.2-0.5-0.4v2L151.9,247.7L151.9,247.7z M152.5,244.1c0,0.5,0.1,0.9,0.3,1.2s0.5,0.4,0.8,0.4s0.6-0.1,0.8-0.4
			c0.2-0.3,0.3-0.7,0.3-1.2s-0.1-0.9-0.3-1.2s-0.5-0.4-0.8-0.4s-0.6,0.1-0.8,0.4C152.6,243.1,152.5,243.5,152.5,244.1z"/>
		<path class="st2" d="M159.1,244.8l0.7,0.1c-0.1,0.4-0.3,0.7-0.6,1c-0.3,0.2-0.7,0.3-1.2,0.3c-0.6,0-1.1-0.2-1.4-0.6
			c-0.4-0.4-0.5-0.9-0.5-1.6c0-0.7,0.2-1.2,0.5-1.6c0.4-0.4,0.8-0.6,1.4-0.6c0.5,0,1,0.2,1.3,0.6c0.3,0.4,0.5,0.9,0.5,1.6
			c0,0,0,0.1,0,0.2h-3.1c0,0.5,0.2,0.8,0.4,1s0.5,0.4,0.9,0.4c0.3,0,0.5-0.1,0.7-0.2S159,245.1,159.1,244.8z M156.8,243.6h2.3
			c0-0.3-0.1-0.6-0.3-0.8c-0.2-0.3-0.5-0.4-0.9-0.4c-0.3,0-0.6,0.1-0.8,0.3C156.9,243,156.8,243.3,156.8,243.6z"/>
		<path class="st2" d="M163.3,244.6l0.7,0.1c-0.1,0.5-0.3,0.8-0.6,1.1s-0.7,0.4-1.1,0.4c-0.6,0-1-0.2-1.4-0.6
			c-0.3-0.4-0.5-0.9-0.5-1.6c0-0.4,0.1-0.8,0.2-1.2s0.4-0.6,0.7-0.7c0.3-0.2,0.6-0.3,1-0.3s0.8,0.1,1.1,0.3s0.5,0.5,0.5,1l-0.7,0.1
			c-0.1-0.3-0.2-0.5-0.3-0.6c-0.2-0.1-0.4-0.2-0.6-0.2c-0.4,0-0.6,0.1-0.9,0.4c-0.2,0.3-0.3,0.6-0.3,1.2c0,0.6,0.1,1,0.3,1.2
			c0.2,0.3,0.5,0.4,0.8,0.4s0.5-0.1,0.7-0.3C163.2,245.2,163.3,244.9,163.3,244.6z"/>
		<path class="st2" d="M164.2,242h3.3v0.6h-1.3v3.5h-0.7v-3.5h-1.3V242L164.2,242z"/>
	</g>
	<g class="st1">
		<path class="st2" d="M155.4,232.3v-5.7h2.1c0.4,0,0.8,0.1,1,0.2c0.3,0.1,0.5,0.3,0.6,0.5s0.2,0.5,0.2,0.7s-0.1,0.5-0.2,0.7
			c-0.1,0.2-0.3,0.4-0.6,0.5c0.3,0.1,0.6,0.3,0.8,0.5s0.3,0.5,0.3,0.9c0,0.3-0.1,0.5-0.2,0.7c-0.1,0.2-0.3,0.4-0.4,0.5
			s-0.4,0.2-0.6,0.3s-0.6,0.1-0.9,0.1L155.4,232.3L155.4,232.3z M156.2,229.1h1.2c0.3,0,0.6,0,0.7-0.1c0.2-0.1,0.3-0.2,0.4-0.3
			s0.1-0.3,0.1-0.5s0-0.4-0.1-0.5s-0.2-0.2-0.4-0.3s-0.5-0.1-0.9-0.1h-1.1L156.2,229.1L156.2,229.1z M156.2,231.7h1.4
			c0.2,0,0.4,0,0.5,0c0.2,0,0.3-0.1,0.4-0.2s0.2-0.2,0.3-0.3s0.1-0.3,0.1-0.5s-0.1-0.4-0.2-0.6s-0.3-0.3-0.4-0.3
			c-0.2-0.1-0.5-0.1-0.8-0.1h-1.3V231.7L156.2,231.7z"/>
		<path class="st2" d="M160.6,228.2h0.7v3.1l1.9-3.1h0.7v4.1h-0.7v-3.1l-1.9,3.1h-0.7V228.2z"/>
		<path class="st2" d="M164.7,228.2h3.3v0.6h-1.3v3.5H166v-3.5h-1.3V228.2L164.7,228.2z"/>
		<path class="st2" d="M171.4,231l0.7,0.1c-0.1,0.4-0.3,0.7-0.6,1c-0.3,0.2-0.7,0.3-1.2,0.3c-0.6,0-1.1-0.2-1.4-0.6
			c-0.4-0.4-0.5-0.9-0.5-1.6c0-0.7,0.2-1.2,0.5-1.6c0.4-0.4,0.8-0.6,1.4-0.6c0.5,0,1,0.2,1.3,0.6c0.3,0.4,0.5,0.9,0.5,1.6
			c0,0,0,0.1,0,0.2H169c0,0.5,0.2,0.8,0.4,1s0.5,0.4,0.9,0.4c0.3,0,0.5-0.1,0.7-0.2S171.3,231.3,171.4,231z M169.1,229.9h2.3
			c0-0.3-0.1-0.6-0.3-0.8c-0.2-0.3-0.5-0.4-0.9-0.4c-0.3,0-0.6,0.1-0.8,0.3C169.3,229.3,169.1,229.5,169.1,229.9z"/>
		<path class="st2" d="M175.9,226.5h0.6c0,0.3-0.1,0.5-0.2,0.6c-0.1,0.1-0.2,0.2-0.4,0.2c-0.1,0-0.4,0-0.9,0c-0.6,0-1,0.1-1.2,0.2
			c-0.2,0.1-0.4,0.3-0.4,0.5c-0.1,0.2-0.1,0.6-0.2,0.9c0.2-0.3,0.4-0.5,0.6-0.6c0.2-0.1,0.5-0.2,0.8-0.2c0.5,0,1,0.2,1.3,0.6
			s0.5,0.9,0.5,1.5c0,0.5-0.1,0.9-0.3,1.2s-0.4,0.5-0.6,0.7c-0.2,0.2-0.6,0.3-1,0.3c-0.5,0-0.9-0.1-1.1-0.3
			c-0.3-0.2-0.5-0.5-0.6-0.9c-0.1-0.3-0.2-1-0.2-1.8c0-1.1,0.2-1.8,0.6-2.2c0.4-0.4,0.9-0.6,1.7-0.6c0.5,0,0.7,0,0.8,0
			S175.9,226.6,175.9,226.5z M175.9,230.3c0-0.4-0.1-0.8-0.3-1.1s-0.5-0.4-0.9-0.4s-0.7,0.1-0.9,0.4c-0.2,0.3-0.3,0.7-0.3,1.2
			s0.1,0.8,0.3,1.1s0.5,0.4,0.9,0.4c0.3,0,0.6-0.1,0.8-0.4C175.8,231.1,175.9,230.8,175.9,230.3z"/>
		<path class="st2" d="M180,230.8l0.7,0.1c-0.1,0.5-0.3,0.8-0.6,1.1s-0.7,0.4-1.1,0.4c-0.6,0-1-0.2-1.4-0.6
			c-0.3-0.4-0.5-0.9-0.5-1.6c0-0.4,0.1-0.8,0.2-1.2s0.4-0.6,0.7-0.7c0.3-0.2,0.6-0.3,1-0.3s0.8,0.1,1.1,0.3s0.5,0.5,0.5,1l-0.7,0.1
			c-0.1-0.3-0.2-0.5-0.3-0.6c-0.2-0.1-0.4-0.2-0.6-0.2c-0.4,0-0.6,0.1-0.9,0.4c-0.2,0.3-0.3,0.6-0.3,1.2c0,0.6,0.1,1,0.3,1.2
			c0.2,0.3,0.5,0.4,0.8,0.4s0.5-0.1,0.7-0.3C179.8,231.4,180,231.2,180,230.8z"/>
		<path class="st2" d="M181.3,228.2h0.7v1.8c0.2,0,0.4,0,0.5-0.1s0.2-0.3,0.4-0.7c0.1-0.3,0.2-0.5,0.3-0.6s0.2-0.2,0.3-0.2
			s0.3-0.1,0.5-0.1h0.1v0.6h-0.2c-0.2,0-0.3,0-0.4,0.1c-0.1,0.1-0.1,0.2-0.2,0.5c-0.1,0.3-0.2,0.5-0.3,0.6s-0.2,0.2-0.4,0.3
			c0.3,0.1,0.6,0.4,0.9,0.8l0.8,1.3h-0.8l-0.7-1.3c-0.2-0.3-0.3-0.4-0.4-0.5c-0.1-0.1-0.2-0.1-0.4-0.1v1.9h-0.7L181.3,228.2
			L181.3,228.2z"/>
	</g>
	<g class="st1">
		<path class="st2" d="M122.5,201.8l0.7,0.2c-0.2,0.6-0.4,1.1-0.8,1.4s-0.9,0.5-1.5,0.5s-1.1-0.1-1.5-0.4c-0.4-0.2-0.7-0.6-0.9-1.1
			c-0.2-0.5-0.3-1-0.3-1.5c0-0.6,0.1-1.1,0.3-1.5c0.2-0.4,0.5-0.8,1-1c0.4-0.2,0.9-0.3,1.4-0.3c0.6,0,1,0.1,1.4,0.4
			c0.4,0.3,0.7,0.7,0.8,1.2l-0.7,0.2c-0.1-0.4-0.3-0.7-0.6-0.9s-0.6-0.3-0.9-0.3c-0.4,0-0.8,0.1-1.1,0.3c-0.3,0.2-0.5,0.5-0.6,0.8
			c-0.1,0.4-0.2,0.7-0.2,1.1c0,0.5,0.1,0.9,0.2,1.3c0.1,0.4,0.4,0.6,0.7,0.8s0.6,0.3,1,0.3s0.8-0.1,1.1-0.4
			C122.2,202.6,122.4,202.3,122.5,201.8z"/>
		<path class="st2" d="M126.8,203.3c-0.3,0.2-0.5,0.4-0.7,0.5s-0.5,0.1-0.8,0.1c-0.4,0-0.8-0.1-1-0.3s-0.4-0.5-0.4-0.8
			c0-0.2,0-0.4,0.1-0.6c0.1-0.2,0.2-0.3,0.4-0.4c0.1-0.1,0.3-0.2,0.5-0.2c0.1,0,0.3-0.1,0.6-0.1c0.6-0.1,1-0.1,1.2-0.2
			c0-0.1,0-0.2,0-0.2c0-0.3-0.1-0.5-0.2-0.6c-0.2-0.2-0.4-0.2-0.8-0.2c-0.3,0-0.6,0.1-0.7,0.2c-0.2,0.1-0.3,0.3-0.3,0.6L124,201
			c0.1-0.3,0.2-0.5,0.3-0.7s0.3-0.3,0.6-0.4c0.3-0.1,0.6-0.1,0.9-0.1s0.6,0,0.9,0.1s0.4,0.2,0.5,0.3s0.2,0.3,0.2,0.5
			c0,0.1,0,0.3,0,0.6v0.9c0,0.6,0,1.1,0,1.2c0,0.2,0.1,0.3,0.2,0.5H127C126.9,203.6,126.8,203.5,126.8,203.3z M126.8,201.7
			c-0.3,0.1-0.6,0.2-1.1,0.3c-0.3,0-0.5,0.1-0.6,0.1c-0.1,0.1-0.2,0.1-0.3,0.2s-0.1,0.2-0.1,0.3c0,0.2,0.1,0.3,0.2,0.5
			c0.1,0.1,0.3,0.2,0.6,0.2c0.3,0,0.5-0.1,0.7-0.2s0.4-0.3,0.5-0.5s0.1-0.4,0.1-0.7L126.8,201.7L126.8,201.7z"/>
		<path class="st2" d="M128.5,199.7h0.7v1.7h1.9v-1.7h0.7v4.1h-0.7V202h-1.9v1.8h-0.7V199.7z"/>
		<path class="st2" d="M132.9,199.7h0.7v1.8c0.2,0,0.4,0,0.5-0.1s0.2-0.3,0.4-0.7c0.1-0.3,0.2-0.5,0.3-0.6s0.2-0.2,0.3-0.2
			s0.3-0.1,0.5-0.1h0.1v0.6h-0.2c-0.2,0-0.3,0-0.4,0.1c-0.1,0.1-0.1,0.2-0.2,0.5c-0.1,0.3-0.2,0.5-0.3,0.6s-0.2,0.2-0.4,0.3
			c0.3,0.1,0.6,0.4,0.9,0.8l0.8,1.3h-0.8l-0.7-1.3c-0.2-0.3-0.3-0.4-0.4-0.5c-0.1-0.1-0.2-0.1-0.4-0.1v1.9h-0.7L132.9,199.7
			L132.9,199.7z"/>
		<path class="st2" d="M136.1,199.7h3.3v0.6h-1.3v3.5h-0.7v-3.5h-1.3V199.7L136.1,199.7z"/>
		<path class="st2" d="M139.8,202.1v-0.7h2.1v0.7H139.8z"/>
		<path class="st2" d="M142.8,198.1h4.5v5.7h-0.8v-5h-3v5h-0.7V198.1L142.8,198.1z"/>
		<path class="st2" d="M151.2,202.5l0.7,0.1c-0.1,0.4-0.3,0.7-0.6,1c-0.3,0.2-0.7,0.3-1.2,0.3c-0.6,0-1.1-0.2-1.4-0.6
			c-0.4-0.4-0.5-0.9-0.5-1.6c0-0.7,0.2-1.2,0.5-1.6c0.4-0.4,0.8-0.6,1.4-0.6c0.5,0,1,0.2,1.3,0.6c0.3,0.4,0.5,0.9,0.5,1.6
			c0,0,0,0.1,0,0.2h-3.1c0,0.5,0.2,0.8,0.4,1s0.5,0.4,0.9,0.4c0.3,0,0.5-0.1,0.7-0.2S151.1,202.8,151.2,202.5z M148.9,201.3h2.3
			c0-0.3-0.1-0.6-0.3-0.8c-0.2-0.3-0.5-0.4-0.9-0.4c-0.3,0-0.6,0.1-0.8,0.3C149.1,200.7,148.9,201,148.9,201.3z"/>
		<path class="st2" d="M152.2,199.7h3.3v0.6h-1.3v3.5h-0.7v-3.5h-1.3V199.7L152.2,199.7z"/>
		<path class="st2" d="M158.9,202.5l0.7,0.1c-0.1,0.4-0.3,0.7-0.6,1c-0.3,0.2-0.7,0.3-1.2,0.3c-0.6,0-1.1-0.2-1.4-0.6
			c-0.4-0.4-0.5-0.9-0.5-1.6c0-0.7,0.2-1.2,0.5-1.6s0.8-0.6,1.4-0.6c0.5,0,1,0.2,1.3,0.6c0.3,0.4,0.5,0.9,0.5,1.6c0,0,0,0.1,0,0.2
			h-3.1c0,0.5,0.2,0.8,0.4,1s0.5,0.4,0.9,0.4c0.3,0,0.5-0.1,0.7-0.2S158.8,202.8,158.9,202.5z M156.6,201.3h2.3
			c0-0.3-0.1-0.6-0.3-0.8c-0.2-0.3-0.5-0.4-0.9-0.4c-0.3,0-0.6,0.1-0.8,0.3C156.7,200.7,156.6,201,156.6,201.3z"/>
		<path class="st2" d="M160.5,205.4v-5.7h0.6v0.5c0.1-0.2,0.3-0.4,0.5-0.5s0.4-0.2,0.7-0.2c0.4,0,0.7,0.1,0.9,0.3s0.5,0.4,0.6,0.8
			c0.1,0.3,0.2,0.7,0.2,1.1c0,0.4-0.1,0.8-0.2,1.1c-0.2,0.3-0.4,0.6-0.7,0.8s-0.6,0.3-0.9,0.3c-0.2,0-0.4,0-0.6-0.1
			c-0.2-0.1-0.3-0.2-0.5-0.4v2L160.5,205.4L160.5,205.4z M161.1,201.8c0,0.5,0.1,0.9,0.3,1.2s0.5,0.4,0.8,0.4s0.6-0.1,0.8-0.4
			c0.2-0.3,0.3-0.7,0.3-1.2s-0.1-0.9-0.3-1.2s-0.5-0.4-0.8-0.4s-0.6,0.1-0.8,0.4C161.2,200.8,161.1,201.2,161.1,201.8z"/>
		<path class="st2" d="M167.9,198h0.6c0,0.3-0.1,0.5-0.2,0.6c-0.1,0.1-0.2,0.2-0.4,0.2c-0.1,0-0.4,0-0.9,0c-0.6,0-1,0.1-1.2,0.2
			c-0.2,0.1-0.4,0.3-0.4,0.5c-0.1,0.2-0.1,0.6-0.2,0.9c0.2-0.3,0.4-0.5,0.6-0.6c0.2-0.1,0.5-0.2,0.8-0.2c0.5,0,1,0.2,1.3,0.6
			s0.5,0.9,0.5,1.5c0,0.5-0.1,0.9-0.3,1.2s-0.4,0.5-0.6,0.7c-0.2,0.2-0.6,0.3-1,0.3c-0.5,0-0.9-0.1-1.1-0.3
			c-0.3-0.2-0.5-0.5-0.6-0.9c-0.1-0.3-0.2-1-0.2-1.8c0-1.1,0.2-1.8,0.6-2.2c0.4-0.4,0.9-0.6,1.7-0.6c0.5,0,0.7,0,0.8,0
			S167.9,198,167.9,198z M167.8,201.7c0-0.4-0.1-0.8-0.3-1.1s-0.5-0.4-0.9-0.4s-0.7,0.1-0.9,0.4c-0.2,0.3-0.3,0.7-0.3,1.2
			s0.1,0.8,0.3,1.1s0.5,0.4,0.9,0.4c0.3,0,0.6-0.1,0.8-0.4C167.7,202.6,167.8,202.2,167.8,201.7z"/>
		<path class="st2" d="M169.2,205.4l-0.1-0.7c0.2,0,0.3,0.1,0.4,0.1c0.2,0,0.3,0,0.4-0.1s0.2-0.1,0.2-0.2c0-0.1,0.1-0.2,0.2-0.5
			c0,0,0-0.1,0.1-0.2l-1.6-4.1h0.7l0.9,2.4c0.1,0.3,0.2,0.6,0.3,0.9c0.1-0.3,0.2-0.6,0.3-0.9l0.9-2.4h0.7l-1.6,4.2
			c-0.2,0.5-0.3,0.8-0.4,0.9c-0.1,0.2-0.3,0.4-0.4,0.5s-0.4,0.2-0.6,0.2C169.5,205.4,169.4,205.4,169.2,205.4z"/>
		<path class="st2" d="M173.1,205.4v-5.7h0.6v0.5c0.1-0.2,0.3-0.4,0.5-0.5s0.4-0.2,0.7-0.2c0.4,0,0.7,0.1,0.9,0.3s0.5,0.4,0.6,0.8
			c0.1,0.3,0.2,0.7,0.2,1.1c0,0.4-0.1,0.8-0.2,1.1c-0.2,0.3-0.4,0.6-0.7,0.8s-0.6,0.3-0.9,0.3c-0.2,0-0.4,0-0.6-0.1
			c-0.2-0.1-0.3-0.2-0.5-0.4v2L173.1,205.4L173.1,205.4z M173.7,201.8c0,0.5,0.1,0.9,0.3,1.2s0.5,0.4,0.8,0.4s0.6-0.1,0.8-0.4
			c0.2-0.3,0.3-0.7,0.3-1.2s-0.1-0.9-0.3-1.2s-0.5-0.4-0.8-0.4s-0.6,0.1-0.8,0.4C173.8,200.8,173.7,201.2,173.7,201.8z"/>
		<path class="st2" d="M177.5,199.7h2.4v0.6h-1.7v3.5h-0.7V199.7z"/>
	</g>
	<g class="st1">
		<path class="st2" d="M218.5,225v-5.7h1.1l1.3,4c0.1,0.4,0.2,0.7,0.3,0.8c0.1-0.2,0.2-0.5,0.3-0.9l1.4-3.9h1v5.7h-0.7v-4.7
			l-1.6,4.7h-0.7l-1.6-4.8v4.8L218.5,225L218.5,225z"/>
		<path class="st2" d="M224.9,222.9c0-0.8,0.2-1.3,0.6-1.7c0.4-0.3,0.8-0.5,1.3-0.5c0.6,0,1,0.2,1.4,0.6s0.5,0.9,0.5,1.5
			c0,0.5-0.1,0.9-0.2,1.2c-0.2,0.3-0.4,0.5-0.7,0.7s-0.6,0.3-1,0.3c-0.6,0-1-0.2-1.4-0.6C225.1,224.1,224.9,223.6,224.9,222.9z
			 M225.6,222.9c0,0.5,0.1,0.9,0.3,1.2s0.5,0.4,0.9,0.4c0.3,0,0.6-0.1,0.9-0.4s0.3-0.7,0.3-1.2s-0.1-0.9-0.3-1.2s-0.5-0.4-0.9-0.4
			c-0.3,0-0.6,0.1-0.9,0.4C225.7,222,225.6,222.4,225.6,222.9z"/>
		<path class="st2" d="M232.2,223.5l0.7,0.1c-0.1,0.5-0.3,0.8-0.6,1.1s-0.7,0.4-1.1,0.4c-0.6,0-1-0.2-1.4-0.6
			c-0.3-0.4-0.5-0.9-0.5-1.6c0-0.4,0.1-0.8,0.2-1.2s0.4-0.6,0.7-0.7c0.3-0.2,0.6-0.3,1-0.3s0.8,0.1,1.1,0.3s0.5,0.5,0.5,1l-0.7,0.1
			c-0.1-0.3-0.2-0.5-0.3-0.6c-0.2-0.1-0.4-0.2-0.6-0.2c-0.4,0-0.6,0.1-0.9,0.4c-0.2,0.3-0.3,0.6-0.3,1.2c0,0.6,0.1,1,0.3,1.2
			c0.2,0.3,0.5,0.4,0.8,0.4s0.5-0.1,0.7-0.3C232,224.1,232.2,223.8,232.2,223.5z"/>
		<path class="st2" d="M233.5,220.9h0.7v1.8c0.2,0,0.4,0,0.5-0.1s0.2-0.3,0.4-0.7c0.1-0.3,0.2-0.5,0.3-0.6s0.2-0.2,0.3-0.2
			s0.3-0.1,0.5-0.1h0.1v0.6h-0.2c-0.2,0-0.3,0-0.4,0.1c-0.1,0.1-0.1,0.2-0.2,0.5c-0.1,0.3-0.2,0.5-0.3,0.6s-0.2,0.2-0.4,0.3
			c0.3,0.1,0.6,0.4,0.9,0.8l0.8,1.3h-0.8l-0.7-1.3c-0.2-0.3-0.3-0.4-0.4-0.5c-0.1-0.1-0.2-0.1-0.4-0.1v1.9h-0.7L233.5,220.9
			L233.5,220.9z"/>
		<path class="st2" d="M237,220.9h1.6c0.4,0,0.7,0,0.9,0.1s0.4,0.2,0.5,0.4s0.2,0.4,0.2,0.6c0,0.2,0,0.4-0.1,0.5s-0.2,0.3-0.4,0.4
			c0.2,0.1,0.4,0.2,0.5,0.4s0.2,0.4,0.2,0.6c0,0.4-0.2,0.7-0.4,0.9c-0.3,0.2-0.6,0.3-1.1,0.3H237V220.9L237,220.9z M237.6,222.6h0.7
			c0.3,0,0.5,0,0.6,0s0.2-0.1,0.3-0.2c0.1-0.1,0.1-0.2,0.1-0.3c0-0.2-0.1-0.4-0.2-0.5c-0.2-0.1-0.4-0.1-0.8-0.1h-0.8L237.6,222.6
			L237.6,222.6z M237.6,224.4h0.9c0.4,0,0.7,0,0.8-0.1s0.2-0.3,0.2-0.5c0-0.1,0-0.3-0.1-0.4c-0.1-0.1-0.2-0.2-0.3-0.2s-0.4,0-0.7,0
			h-0.8L237.6,224.4L237.6,224.4z"/>
		<path class="st2" d="M243.7,224.4c-0.3,0.2-0.5,0.4-0.7,0.5s-0.5,0.1-0.8,0.1c-0.4,0-0.8-0.1-1-0.3s-0.4-0.5-0.4-0.8
			c0-0.2,0-0.4,0.1-0.6c0.1-0.2,0.2-0.3,0.4-0.4c0.1-0.1,0.3-0.2,0.5-0.2c0.1,0,0.3-0.1,0.6-0.1c0.6-0.1,1-0.1,1.2-0.2
			c0-0.1,0-0.2,0-0.2c0-0.3-0.1-0.5-0.2-0.6c-0.2-0.2-0.4-0.2-0.8-0.2c-0.3,0-0.6,0.1-0.7,0.2c-0.2,0.1-0.3,0.3-0.3,0.6l-0.7-0.1
			c0.1-0.3,0.2-0.5,0.3-0.7s0.3-0.3,0.6-0.4c0.3-0.1,0.6-0.1,0.9-0.1c0.4,0,0.6,0,0.9,0.1c0.2,0.1,0.4,0.2,0.5,0.3s0.2,0.3,0.2,0.5
			c0,0.1,0,0.3,0,0.6v0.9c0,0.6,0,1.1,0,1.2c0,0.2,0.1,0.3,0.2,0.5h-0.7C243.8,224.8,243.8,224.6,243.7,224.4z M243.7,222.9
			c-0.3,0.1-0.6,0.2-1.1,0.3c-0.3,0-0.5,0.1-0.6,0.1c-0.1,0.1-0.2,0.1-0.3,0.2s-0.1,0.2-0.1,0.3c0,0.2,0.1,0.3,0.2,0.5
			c0.1,0.1,0.3,0.2,0.6,0.2s0.5-0.1,0.7-0.2c0.2-0.1,0.4-0.3,0.5-0.5s0.1-0.4,0.1-0.7L243.7,222.9L243.7,222.9z"/>
	</g>
	<g class="st1">
		<path class="st2" d="M276.2,203.8h4.5v5.7h-0.8v-5h-3v5h-0.7V203.8L276.2,203.8z"/>
		<path class="st2" d="M284.6,208.1l0.7,0.1c-0.1,0.4-0.3,0.7-0.6,1s-0.7,0.3-1.2,0.3c-0.6,0-1.1-0.2-1.4-0.6
			c-0.4-0.4-0.5-0.9-0.5-1.6c0-0.7,0.2-1.2,0.5-1.6s0.8-0.6,1.4-0.6c0.5,0,1,0.2,1.3,0.6c0.3,0.4,0.5,0.9,0.5,1.6c0,0,0,0.1,0,0.2
			h-3.1c0,0.5,0.2,0.8,0.4,1c0.2,0.2,0.5,0.4,0.9,0.4c0.3,0,0.5-0.1,0.7-0.2S284.5,208.4,284.6,208.1z M282.3,207h2.3
			c0-0.3-0.1-0.6-0.3-0.8c-0.2-0.3-0.5-0.4-0.9-0.4c-0.3,0-0.6,0.1-0.8,0.3C282.4,206.4,282.3,206.6,282.3,207z"/>
		<path class="st2" d="M286.2,211v-5.7h0.6v0.5c0.1-0.2,0.3-0.4,0.5-0.5s0.4-0.2,0.7-0.2c0.4,0,0.7,0.1,0.9,0.3s0.5,0.4,0.6,0.8
			s0.2,0.7,0.2,1.1c0,0.4-0.1,0.8-0.2,1.1c-0.2,0.3-0.4,0.6-0.7,0.8s-0.6,0.3-0.9,0.3c-0.2,0-0.4,0-0.6-0.1s-0.3-0.2-0.5-0.4v2
			L286.2,211L286.2,211z M286.8,207.4c0,0.5,0.1,0.9,0.3,1.2c0.2,0.3,0.5,0.4,0.8,0.4s0.6-0.1,0.8-0.4c0.2-0.3,0.3-0.7,0.3-1.2
			s-0.1-0.9-0.3-1.2c-0.2-0.3-0.5-0.4-0.8-0.4s-0.6,0.1-0.8,0.4C286.9,206.5,286.8,206.9,286.8,207.4z"/>
		<path class="st2" d="M290.6,205.3h1.1l1.1,3.3l1.2-3.3h1v4.1h-0.7v-3.3l-1.2,3.3h-0.6l-1.1-3.5v3.5h-0.7L290.6,205.3L290.6,205.3z
			"/>
		<path class="st2" d="M296,205.3h0.7v1.6h0.9c0.6,0,1,0.1,1.3,0.3s0.5,0.5,0.5,0.9c0,0.3-0.1,0.6-0.4,0.9c-0.3,0.2-0.7,0.4-1.2,0.4
			H296V205.3L296,205.3z M296.7,208.9h0.7c0.4,0,0.8-0.1,0.9-0.2s0.3-0.3,0.3-0.5s-0.1-0.3-0.2-0.5s-0.4-0.2-0.9-0.2h-0.8V208.9
			L296.7,208.9z"/>
	</g>
	<g class="st1">
		<path class="st2" d="M230.4,208.2h0.7v4.5l3-4.5h0.8v5.7h-0.7v-4.5l-3,4.5h-0.7L230.4,208.2L230.4,208.2z"/>
		<path class="st2" d="M238.5,209.7v1.8c0.2,0,0.4,0,0.5-0.1s0.2-0.3,0.4-0.7s0.3-0.6,0.4-0.7c0.1-0.1,0.3-0.2,0.6-0.2h0.3v0.6h-0.2
			c-0.2,0-0.3,0-0.4,0.1c-0.1,0.1-0.1,0.2-0.2,0.5c-0.1,0.3-0.2,0.5-0.3,0.6s-0.2,0.2-0.4,0.3c0.3,0.1,0.6,0.4,0.9,0.8l0.8,1.3h-0.8
			l-0.7-1.3c-0.2-0.3-0.3-0.4-0.4-0.5s-0.2-0.1-0.4-0.1v1.9h-0.7v-1.9c-0.2,0-0.3,0-0.4,0.1s-0.2,0.2-0.4,0.5l-0.7,1.3h-0.8l0.8-1.3
			c0.3-0.5,0.6-0.8,0.9-0.8c-0.2-0.1-0.4-0.2-0.4-0.3s-0.2-0.4-0.4-0.8c-0.1-0.1-0.1-0.2-0.2-0.3c-0.1,0-0.2-0.1-0.3-0.1
			c0,0-0.1,0-0.2,0v-0.6h0.1c0.3,0,0.5,0,0.6,0s0.2,0.1,0.3,0.2c0.1,0.1,0.2,0.3,0.3,0.7c0.2,0.4,0.3,0.6,0.4,0.7
			c0.1,0.1,0.2,0.1,0.5,0.1v-1.8H238.5L238.5,209.7z"/>
		<path class="st2" d="M244.1,212.5l0.7,0.1c-0.1,0.4-0.3,0.7-0.6,1s-0.7,0.3-1.2,0.3c-0.6,0-1.1-0.2-1.4-0.6
			c-0.4-0.4-0.5-0.9-0.5-1.6c0-0.7,0.2-1.2,0.5-1.6s0.8-0.6,1.4-0.6c0.5,0,1,0.2,1.3,0.6c0.3,0.4,0.5,0.9,0.5,1.6c0,0,0,0.1,0,0.2
			h-3.1c0,0.5,0.2,0.8,0.4,1s0.5,0.4,0.9,0.4c0.3,0,0.5-0.1,0.7-0.2C243.9,213,244,212.8,244.1,212.5z M241.8,211.4h2.3
			c0-0.3-0.1-0.6-0.3-0.8c-0.2-0.3-0.5-0.4-0.9-0.4c-0.3,0-0.6,0.1-0.8,0.3C242,210.7,241.9,211,241.8,211.4z"/>
		<path class="st2" d="M245.7,209.7h1.6c0.4,0,0.7,0,0.9,0.1s0.4,0.2,0.5,0.4s0.2,0.4,0.2,0.6c0,0.2,0,0.4-0.1,0.5s-0.2,0.3-0.4,0.4
			c0.2,0.1,0.4,0.2,0.5,0.4s0.2,0.4,0.2,0.6c0,0.4-0.2,0.7-0.4,0.9c-0.3,0.2-0.6,0.3-1.1,0.3h-1.9V209.7L245.7,209.7z M246.4,211.4
			h0.7c0.3,0,0.5,0,0.6,0s0.2-0.1,0.3-0.2c0.1-0.1,0.1-0.2,0.1-0.3c0-0.2-0.1-0.4-0.2-0.5c-0.2-0.1-0.4-0.1-0.8-0.1h-0.8
			L246.4,211.4L246.4,211.4z M246.4,213.2h0.9c0.4,0,0.7,0,0.8-0.1s0.2-0.3,0.2-0.5c0-0.1,0-0.3-0.1-0.4c-0.1-0.1-0.2-0.2-0.3-0.2
			s-0.4,0-0.7,0h-0.8L246.4,213.2L246.4,213.2z"/>
		<path class="st2" d="M252.5,212.3l0.7,0.1c-0.1,0.5-0.3,0.8-0.6,1.1s-0.7,0.4-1.1,0.4c-0.6,0-1-0.2-1.4-0.6
			c-0.3-0.4-0.5-0.9-0.5-1.6c0-0.4,0.1-0.8,0.2-1.2s0.4-0.6,0.7-0.7c0.3-0.2,0.6-0.3,1-0.3s0.8,0.1,1.1,0.3s0.5,0.5,0.5,1l-0.7,0.1
			c-0.1-0.3-0.2-0.5-0.3-0.6c-0.2-0.1-0.4-0.2-0.6-0.2c-0.4,0-0.6,0.1-0.9,0.4c-0.2,0.3-0.3,0.6-0.3,1.2c0,0.6,0.1,1,0.3,1.2
			c0.2,0.3,0.5,0.4,0.8,0.4s0.5-0.1,0.7-0.3C252.3,212.9,252.5,212.7,252.5,212.3z"/>
		<path class="st2" d="M253.8,209.7h0.7v1.8c0.2,0,0.4,0,0.5-0.1s0.2-0.3,0.4-0.7c0.1-0.3,0.2-0.5,0.3-0.6s0.2-0.2,0.3-0.2
			s0.3-0.1,0.5-0.1h0.1v0.6h-0.2c-0.2,0-0.3,0-0.4,0.1s-0.1,0.2-0.2,0.5c-0.1,0.3-0.2,0.5-0.3,0.6s-0.2,0.2-0.4,0.3
			c0.3,0.1,0.6,0.4,0.9,0.8l0.8,1.3H256l-0.7-1.3c-0.2-0.3-0.3-0.4-0.4-0.5c-0.1-0.1-0.2-0.1-0.4-0.1v1.9h-0.7L253.8,209.7
			L253.8,209.7z"/>
	</g>
	<g class="st1">
		<path class="st2" d="M297.1,218.1v-5.7h4.1v0.7h-3.3v1.7h3.1v0.7h-3.1v1.9h3.5v0.7L297.1,218.1L297.1,218.1z"/>
		<path class="st2" d="M302.3,214h0.7v1.8c0.2,0,0.4,0,0.5-0.1s0.2-0.3,0.4-0.7c0.1-0.3,0.2-0.5,0.3-0.6s0.2-0.2,0.3-0.2
			c0.1,0,0.3-0.1,0.5-0.1h0.1v0.6h-0.2c-0.2,0-0.3,0-0.4,0.1s-0.1,0.2-0.2,0.5s-0.2,0.5-0.3,0.6s-0.2,0.2-0.4,0.3
			c0.3,0.1,0.6,0.4,0.9,0.8l0.8,1.3h-0.8l-0.7-1.3c-0.2-0.3-0.3-0.4-0.4-0.5s-0.2-0.1-0.4-0.1v1.9h-0.7L302.3,214L302.3,214z"/>
		<path class="st2" d="M308.6,217.6c-0.3,0.2-0.5,0.4-0.7,0.5s-0.5,0.1-0.8,0.1c-0.5,0-0.8-0.1-1-0.3s-0.4-0.5-0.4-0.8
			c0-0.2,0-0.4,0.1-0.6c0.1-0.2,0.2-0.3,0.4-0.4s0.3-0.2,0.5-0.2c0.1,0,0.3-0.1,0.6-0.1c0.6-0.1,1-0.1,1.2-0.2c0-0.1,0-0.2,0-0.2
			c0-0.3-0.1-0.5-0.2-0.6c-0.2-0.2-0.4-0.2-0.8-0.2c-0.3,0-0.6,0.1-0.7,0.2c-0.2,0.1-0.3,0.3-0.3,0.6l-0.7-0.1
			c0.1-0.3,0.2-0.5,0.3-0.7s0.3-0.3,0.6-0.4c0.3-0.1,0.6-0.1,0.9-0.1c0.4,0,0.6,0,0.9,0.1c0.2,0.1,0.4,0.2,0.5,0.3s0.2,0.3,0.2,0.5
			c0,0.1,0,0.3,0,0.6v0.9c0,0.6,0,1.1,0,1.2c0,0.2,0.1,0.3,0.2,0.5h-0.7C308.7,217.9,308.7,217.8,308.6,217.6z M308.6,216
			c-0.3,0.1-0.6,0.2-1.1,0.3c-0.3,0-0.5,0.1-0.6,0.1c-0.1,0.1-0.2,0.1-0.3,0.2s-0.1,0.2-0.1,0.3c0,0.2,0.1,0.3,0.2,0.5
			c0.1,0.1,0.3,0.2,0.6,0.2c0.3,0,0.5-0.1,0.7-0.2c0.2-0.1,0.4-0.3,0.5-0.5s0.1-0.4,0.1-0.7L308.6,216L308.6,216z"/>
		<path class="st2" d="M309.8,214h3.3v0.6h-1.3v3.5h-0.7v-3.5h-1.3V214L309.8,214z"/>
		<path class="st2" d="M316.5,216.8l0.7,0.1c-0.1,0.4-0.3,0.7-0.6,1c-0.3,0.2-0.7,0.3-1.2,0.3c-0.6,0-1.1-0.2-1.4-0.6
			c-0.4-0.4-0.5-0.9-0.5-1.6c0-0.7,0.2-1.2,0.5-1.6s0.8-0.6,1.4-0.6c0.5,0,1,0.2,1.3,0.6c0.3,0.4,0.5,0.9,0.5,1.6c0,0,0,0.1,0,0.2
			h-3.1c0,0.5,0.2,0.8,0.4,1c0.2,0.2,0.5,0.4,0.9,0.4c0.3,0,0.5-0.1,0.7-0.2S316.4,217,316.5,216.8z M314.2,215.6h2.3
			c0-0.3-0.1-0.6-0.3-0.8c-0.2-0.3-0.5-0.4-0.9-0.4c-0.3,0-0.6,0.1-0.8,0.3C314.4,215,314.3,215.3,314.2,215.6z"/>
		<path class="st2" d="M318.1,219.6V214h0.6v0.5c0.1-0.2,0.3-0.4,0.5-0.5s0.4-0.2,0.7-0.2c0.4,0,0.7,0.1,0.9,0.3s0.5,0.4,0.6,0.8
			c0.1,0.3,0.2,0.7,0.2,1.1c0,0.4-0.1,0.8-0.2,1.1c-0.2,0.3-0.4,0.6-0.7,0.8c-0.3,0.2-0.6,0.3-0.9,0.3c-0.2,0-0.4,0-0.6-0.1
			s-0.3-0.2-0.5-0.4v2L318.1,219.6L318.1,219.6z M318.8,216c0,0.5,0.1,0.9,0.3,1.2c0.2,0.3,0.5,0.4,0.8,0.4s0.6-0.1,0.8-0.4
			c0.2-0.3,0.3-0.7,0.3-1.2s-0.1-0.9-0.3-1.2c-0.2-0.3-0.5-0.4-0.8-0.4s-0.6,0.1-0.8,0.4C318.9,215.1,318.8,215.5,318.8,216z"/>
		<path class="st2" d="M322.5,214h0.7v3.1l1.9-3.1h0.7v4.1h-0.7V215l-1.9,3.1h-0.7V214z"/>
		<path class="st2" d="M326.9,214h0.7v1.7h1.9V214h0.7v4.1h-0.7v-1.8h-1.9v1.8h-0.7V214z"/>
		<path class="st2" d="M334.3,212.3h0.6c0,0.3-0.1,0.5-0.2,0.6s-0.2,0.2-0.4,0.2s-0.4,0-0.9,0c-0.6,0-1,0.1-1.2,0.2
			c-0.2,0.1-0.4,0.3-0.5,0.5s-0.1,0.6-0.2,0.9c0.2-0.3,0.4-0.5,0.6-0.6s0.5-0.2,0.8-0.2c0.5,0,1,0.2,1.3,0.6s0.5,0.9,0.5,1.5
			c0,0.5-0.1,0.9-0.3,1.2c-0.2,0.3-0.4,0.5-0.6,0.7s-0.6,0.3-1,0.3c-0.5,0-0.9-0.1-1.1-0.3c-0.3-0.2-0.5-0.5-0.6-0.9
			c-0.1-0.3-0.2-1-0.2-1.8c0-1.1,0.2-1.8,0.5-2.2c0.4-0.4,0.9-0.6,1.7-0.6c0.5,0,0.7,0,0.8,0S334.3,212.3,334.3,212.3z M334.3,216
			c0-0.4-0.1-0.8-0.3-1.1c-0.2-0.3-0.5-0.4-0.9-0.4s-0.7,0.1-0.9,0.4s-0.3,0.7-0.3,1.2s0.1,0.8,0.3,1.1c0.2,0.3,0.5,0.4,0.9,0.4
			c0.3,0,0.6-0.1,0.8-0.4C334.2,216.9,334.3,216.5,334.3,216z"/>
		<path class="st2" d="M335.6,219.7l-0.1-0.7c0.2,0,0.3,0.1,0.4,0.1c0.2,0,0.3,0,0.4-0.1s0.2-0.1,0.2-0.2c0-0.1,0.1-0.2,0.2-0.5
			c0,0,0-0.1,0.1-0.2l-1.6-4.1h0.7l0.9,2.4c0.1,0.3,0.2,0.6,0.3,0.9c0.1-0.3,0.2-0.6,0.3-0.9l0.9-2.4h0.7l-1.6,4.2
			c-0.2,0.5-0.3,0.8-0.4,0.9c-0.1,0.2-0.3,0.4-0.4,0.5c-0.2,0.1-0.4,0.2-0.6,0.2C336,219.7,335.8,219.7,335.6,219.7z"/>
		<path class="st2" d="M339.5,219.6V214h0.6v0.5c0.1-0.2,0.3-0.4,0.5-0.5s0.4-0.2,0.7-0.2c0.4,0,0.7,0.1,0.9,0.3s0.5,0.4,0.6,0.8
			c0.1,0.3,0.2,0.7,0.2,1.1c0,0.4-0.1,0.8-0.2,1.1c-0.2,0.3-0.4,0.6-0.7,0.8c-0.3,0.2-0.6,0.3-0.9,0.3c-0.2,0-0.4,0-0.6-0.1
			s-0.3-0.2-0.5-0.4v2L339.5,219.6L339.5,219.6z M340.2,216c0,0.5,0.1,0.9,0.3,1.2c0.2,0.3,0.5,0.4,0.8,0.4s0.6-0.1,0.8-0.4
			c0.2-0.3,0.3-0.7,0.3-1.2s-0.1-0.9-0.3-1.2c-0.2-0.3-0.5-0.4-0.8-0.4s-0.6,0.1-0.8,0.4C340.3,215.1,340.2,215.5,340.2,216z"/>
		<path class="st2" d="M343.9,214h2.4v0.6h-1.7v3.5h-0.7L343.9,214L343.9,214z"/>
	</g>
	<g class="st1">
		<path class="st2" d="M374.2,217.4v-5.7h0.7v2.3h2.9v-2.3h0.7v5.7h-0.7v-2.7H375v2.7H374.2z"/>
		<path class="st2" d="M379.6,215.3c0-0.8,0.2-1.3,0.6-1.7c0.4-0.3,0.8-0.5,1.3-0.5c0.6,0,1,0.2,1.4,0.6c0.4,0.4,0.5,0.9,0.5,1.5
			c0,0.5-0.1,0.9-0.2,1.2c-0.2,0.3-0.4,0.5-0.7,0.7c-0.3,0.2-0.6,0.3-1,0.3c-0.6,0-1-0.2-1.4-0.6C379.8,216.5,379.6,216,379.6,215.3
			z M380.3,215.3c0,0.5,0.1,0.9,0.3,1.2c0.2,0.3,0.5,0.4,0.9,0.4c0.3,0,0.6-0.1,0.9-0.4c0.2-0.3,0.3-0.7,0.3-1.2s-0.1-0.9-0.3-1.2
			s-0.5-0.4-0.9-0.4c-0.3,0-0.6,0.1-0.9,0.4C380.4,214.4,380.3,214.8,380.3,215.3z"/>
		<path class="st2" d="M384.2,213.3h1.6c0.4,0,0.7,0,0.9,0.1c0.2,0.1,0.4,0.2,0.5,0.4s0.2,0.4,0.2,0.6c0,0.2,0,0.4-0.1,0.5
			s-0.2,0.3-0.4,0.4c0.2,0.1,0.4,0.2,0.5,0.4s0.2,0.4,0.2,0.6c0,0.4-0.2,0.7-0.4,0.9c-0.3,0.2-0.6,0.3-1.1,0.3h-1.9L384.2,213.3
			L384.2,213.3L384.2,213.3z M384.9,215h0.7c0.3,0,0.5,0,0.6,0s0.2-0.1,0.3-0.2c0.1-0.1,0.1-0.2,0.1-0.3c0-0.2-0.1-0.4-0.2-0.5
			s-0.4-0.1-0.8-0.1h-0.8L384.9,215L384.9,215z M384.9,216.8h0.9c0.4,0,0.7,0,0.8-0.1c0.1-0.1,0.2-0.3,0.2-0.5c0-0.1,0-0.3-0.1-0.4
			c-0.1-0.1-0.2-0.2-0.3-0.2c-0.1,0-0.4,0-0.7,0h-0.8V216.8L384.9,216.8z"/>
		<path class="st2" d="M388.1,215.3c0-0.8,0.2-1.3,0.6-1.7c0.4-0.3,0.8-0.5,1.3-0.5c0.6,0,1,0.2,1.4,0.6c0.4,0.4,0.5,0.9,0.5,1.5
			c0,0.5-0.1,0.9-0.2,1.2c-0.2,0.3-0.4,0.5-0.7,0.7c-0.3,0.2-0.6,0.3-1,0.3c-0.6,0-1-0.2-1.4-0.6C388.3,216.5,388.1,216,388.1,215.3
			z M388.8,215.3c0,0.5,0.1,0.9,0.3,1.2c0.2,0.3,0.5,0.4,0.9,0.4c0.3,0,0.6-0.1,0.9-0.4c0.2-0.3,0.3-0.7,0.3-1.2s-0.1-0.9-0.3-1.2
			s-0.5-0.4-0.9-0.4c-0.3,0-0.6,0.1-0.9,0.4C388.9,214.4,388.8,214.8,388.8,215.3z"/>
		<path class="st2" d="M395.4,215.9l0.7,0.1c-0.1,0.5-0.3,0.8-0.6,1.1c-0.3,0.3-0.7,0.4-1.1,0.4c-0.6,0-1-0.2-1.4-0.6
			c-0.3-0.4-0.5-0.9-0.5-1.6c0-0.4,0.1-0.8,0.2-1.2s0.4-0.6,0.7-0.7c0.3-0.2,0.6-0.3,1-0.3s0.8,0.1,1.1,0.3c0.3,0.2,0.5,0.5,0.5,1
			l-0.7,0.1c-0.1-0.3-0.2-0.5-0.3-0.6c-0.2-0.1-0.4-0.2-0.6-0.2c-0.4,0-0.6,0.1-0.9,0.4c-0.2,0.3-0.3,0.6-0.3,1.2
			c0,0.6,0.1,1,0.3,1.2c0.2,0.3,0.5,0.4,0.8,0.4s0.5-0.1,0.7-0.3C395.3,216.5,395.4,216.2,395.4,215.9z"/>
		<path class="st2" d="M396.7,213.3h0.7v3.1l1.9-3.1h0.7v4.1h-0.7v-3.1l-1.9,3.1h-0.7V213.3L396.7,213.3z"/>
		<path class="st2" d="M404.1,211.6h0.6c0,0.3-0.1,0.5-0.2,0.6s-0.2,0.2-0.4,0.2c-0.1,0-0.4,0-0.9,0c-0.6,0-1,0.1-1.2,0.2
			c-0.2,0.1-0.4,0.3-0.5,0.5s-0.1,0.6-0.2,0.9c0.2-0.3,0.4-0.5,0.6-0.6s0.5-0.2,0.8-0.2c0.5,0,1,0.2,1.3,0.6
			c0.4,0.4,0.5,0.9,0.5,1.5c0,0.5-0.1,0.9-0.3,1.2c-0.2,0.3-0.4,0.5-0.6,0.7s-0.6,0.3-1,0.3c-0.5,0-0.9-0.1-1.1-0.3
			c-0.3-0.2-0.5-0.5-0.6-0.9s-0.2-1-0.2-1.8c0-1.1,0.2-1.8,0.6-2.2s0.9-0.6,1.7-0.6c0.5,0,0.7,0,0.8,0
			C404.1,211.6,404.1,211.6,404.1,211.6z M404.1,215.3c0-0.4-0.1-0.8-0.3-1.1c-0.2-0.3-0.5-0.4-0.9-0.4s-0.7,0.1-0.9,0.4
			c-0.2,0.3-0.3,0.7-0.3,1.2s0.1,0.8,0.3,1.1c0.2,0.3,0.5,0.4,0.9,0.4c0.3,0,0.6-0.1,0.8-0.4C404,216.2,404.1,215.8,404.1,215.3z"/>
		<path class="st2" d="M405.7,213.3h0.7v3.1l1.9-3.1h0.7v4.1h-0.7v-3.1l-1.9,3.1h-0.7V213.3L405.7,213.3z"/>
		<path class="st2" d="M410.1,218.9v-5.7h0.6v0.5c0.1-0.2,0.3-0.4,0.5-0.5s0.4-0.2,0.7-0.2c0.4,0,0.7,0.1,0.9,0.3
			c0.3,0.2,0.5,0.4,0.6,0.8c0.1,0.3,0.2,0.7,0.2,1.1c0,0.4-0.1,0.8-0.2,1.1c-0.2,0.3-0.4,0.6-0.7,0.8s-0.6,0.3-0.9,0.3
			c-0.2,0-0.4,0-0.6-0.1s-0.3-0.2-0.5-0.4v2L410.1,218.9L410.1,218.9z M410.7,215.3c0,0.5,0.1,0.9,0.3,1.2c0.2,0.3,0.5,0.4,0.8,0.4
			s0.6-0.1,0.8-0.4c0.2-0.3,0.3-0.7,0.3-1.2s-0.1-0.9-0.3-1.2c-0.2-0.3-0.5-0.4-0.8-0.4s-0.6,0.1-0.8,0.4
			C410.8,214.4,410.7,214.8,410.7,215.3z"/>
		<path class="st2" d="M417.2,215.9l0.7,0.1c-0.1,0.5-0.3,0.8-0.6,1.1c-0.3,0.3-0.7,0.4-1.1,0.4c-0.6,0-1-0.2-1.4-0.6
			c-0.3-0.4-0.5-0.9-0.5-1.6c0-0.4,0.1-0.8,0.2-1.2s0.4-0.6,0.7-0.7c0.3-0.2,0.6-0.3,1-0.3s0.8,0.1,1.1,0.3c0.3,0.2,0.5,0.5,0.5,1
			l-0.7,0.1c-0.1-0.3-0.2-0.5-0.3-0.6c-0.2-0.1-0.4-0.2-0.6-0.2c-0.4,0-0.6,0.1-0.9,0.4c-0.2,0.3-0.3,0.6-0.3,1.2
			c0,0.6,0.1,1,0.3,1.2c0.2,0.3,0.5,0.4,0.8,0.4s0.5-0.1,0.7-0.3C417,216.5,417.1,216.2,417.2,215.9z"/>
		<path class="st2" d="M418.4,213.3h0.7v1.8c0.2,0,0.4,0,0.5-0.1s0.2-0.3,0.4-0.7c0.1-0.3,0.2-0.5,0.3-0.6s0.2-0.2,0.3-0.2
			s0.3-0.1,0.5-0.1h0.1v0.6H421c-0.2,0-0.3,0-0.4,0.1s-0.1,0.2-0.2,0.5s-0.2,0.5-0.3,0.6c-0.1,0.1-0.2,0.2-0.4,0.3
			c0.3,0.1,0.6,0.4,0.9,0.8l0.8,1.3h-0.8l-0.7-1.3c-0.2-0.3-0.3-0.4-0.4-0.5s-0.2-0.1-0.4-0.1v1.9h-0.7V213.3L418.4,213.3z"/>
	</g>
	<g class="st1">
		<path class="st2" d="M386.5,227.5h3.7v0.7h-2.9v1.7h1.4c0.5,0,0.9,0,1.2,0.1s0.5,0.3,0.7,0.5s0.3,0.6,0.3,0.9
			c0,0.3-0.1,0.6-0.2,0.8s-0.3,0.5-0.6,0.6c-0.3,0.2-0.7,0.2-1.3,0.2h-2.2L386.5,227.5L386.5,227.5z M387.2,232.5h1.5
			c0.4,0,0.7-0.1,0.9-0.2c0.2-0.2,0.3-0.4,0.3-0.7c0-0.2-0.1-0.4-0.2-0.6c-0.1-0.2-0.3-0.3-0.5-0.3c-0.2-0.1-0.6-0.1-1.1-0.1h-1
			L387.2,232.5L387.2,232.5z"/>
		<path class="st2" d="M391.5,229.1h0.7v3.1l1.9-3.1h0.7v4.1h-0.7v-3.1l-1.9,3.1h-0.7V229.1z"/>
		<path class="st2" d="M396,229.1h0.7v3.1l1.9-3.1h0.7v4.1h-0.7v-3.1l-1.9,3.1H396V229.1z M398.4,227.5h0.5c0,0.3-0.2,0.6-0.4,0.7
			c-0.2,0.2-0.5,0.3-0.8,0.3s-0.6-0.1-0.8-0.3c-0.2-0.2-0.3-0.4-0.4-0.7h0.5c0,0.2,0.1,0.3,0.2,0.4c0.1,0.1,0.3,0.1,0.4,0.1
			c0.2,0,0.4,0,0.5-0.1C398.3,227.8,398.3,227.7,398.4,227.5z"/>
		<path class="st2" d="M403.1,231.7l0.7,0.1c-0.1,0.5-0.3,0.8-0.6,1.1c-0.3,0.3-0.7,0.4-1.1,0.4c-0.6,0-1-0.2-1.4-0.6
			c-0.3-0.4-0.5-0.9-0.5-1.6c0-0.4,0.1-0.8,0.2-1.2s0.4-0.6,0.7-0.7c0.3-0.2,0.6-0.3,1-0.3s0.8,0.1,1.1,0.3c0.3,0.2,0.5,0.5,0.5,1
			l-0.7,0.1c-0.1-0.3-0.2-0.5-0.3-0.6c-0.2-0.1-0.4-0.2-0.6-0.2c-0.4,0-0.6,0.1-0.9,0.4c-0.2,0.3-0.3,0.6-0.3,1.2
			c0,0.6,0.1,1,0.3,1.2c0.2,0.3,0.5,0.4,0.8,0.4s0.5-0.1,0.7-0.3C402.9,232.3,403,232,403.1,231.7z"/>
		<path class="st2" d="M404.3,229.1h0.7v1.8c0.2,0,0.4,0,0.5-0.1s0.2-0.3,0.4-0.7c0.1-0.3,0.2-0.5,0.3-0.6s0.2-0.2,0.3-0.2
			s0.3-0.1,0.5-0.1h0.1v0.6h-0.2c-0.2,0-0.3,0-0.4,0.1s-0.1,0.2-0.2,0.5s-0.2,0.5-0.3,0.6c-0.1,0.1-0.2,0.2-0.4,0.3
			c0.3,0.1,0.6,0.4,0.9,0.8l0.8,1.3h-0.8l-0.7-1.3c-0.2-0.3-0.3-0.4-0.4-0.5s-0.2-0.1-0.4-0.1v1.9h-0.7L404.3,229.1L404.3,229.1z"/>
	</g>
	<g>
		<path class="st2" d="M367,277.1l-0.6,1.9h-0.8l2.1-6.1h0.9l2.1,6.1h-0.8l-0.6-1.9H367z M369,276.5l-0.6-1.7
			c-0.1-0.4-0.2-0.8-0.3-1.1l0,0c-0.1,0.4-0.2,0.7-0.3,1.1l-0.6,1.8L369,276.5L369,276.5z"/>
		<path class="st2" d="M374.9,274.6v4.4h-0.8v-3.7h-1.5v1.1c0,1.2-0.1,2-0.7,2.4c-0.2,0.2-0.5,0.3-0.9,0.3l-0.1-0.6
			c0.2,0,0.3-0.1,0.4-0.2c0.4-0.3,0.5-0.9,0.5-1.9v-1.8L374.9,274.6L374.9,274.6z"/>
		<path class="st2" d="M376.3,274.6h1l0.8,2.2c0.1,0.3,0.3,0.9,0.4,1.2l0,0c0.1-0.3,0.3-1,0.5-1.5l0.7-1.9h1l0.3,4.4h-0.8l-0.1-2.1
			c0-0.5-0.1-1-0.1-1.6l0,0c-0.1,0.4-0.2,0.7-0.5,1.4l-0.8,2.2h-0.6l-0.8-2.2c-0.1-0.4-0.3-1-0.4-1.4l0,0c0,0.5,0,1.1-0.1,1.6
			l-0.1,2.1H376L376.3,274.6z"/>
		<path class="st2" d="M384.4,279l-0.1-0.5l0,0c-0.2,0.3-0.7,0.6-1.3,0.6c-0.9,0-1.3-0.6-1.3-1.3c0-1.1,0.9-1.6,2.6-1.6v-0.1
			c0-0.4-0.1-1-1-1c-0.4,0-0.8,0.1-1.1,0.3l-0.2-0.5c0.4-0.2,0.9-0.4,1.4-0.4c1.3,0,1.7,0.9,1.7,1.8v1.6c0,0.4,0,0.7,0.1,1h-0.8V279
			z M384.3,276.8c-0.9,0-1.8,0.1-1.8,1c0,0.5,0.3,0.8,0.7,0.8c0.6,0,0.9-0.4,1.1-0.7c0-0.1,0-0.2,0-0.3L384.3,276.8L384.3,276.8z"/>
		<path class="st2" d="M389.2,274.6v0.6h-1.4v3.7H387v-3.7h-1.4v-0.6H389.2z"/>
		<path class="st2" d="M390.7,274.6v1.5c0.2,0,0.4-0.1,0.7-0.1c0.9,0,1.9,0.4,1.9,1.5c0,0.5-0.2,0.8-0.5,1c-0.5,0.4-1.2,0.5-1.8,0.5
			c-0.4,0-0.8,0-1.2-0.1v-4.3H390.7z M390.7,278.5c0.2,0,0.3,0,0.5,0c0.6,0,1.3-0.3,1.3-0.9c0-0.7-0.6-0.9-1.2-0.9
			c-0.2,0-0.4,0-0.6,0L390.7,278.5L390.7,278.5z M394.6,274.6v4.4h-0.8v-4.4H394.6z"/>
	</g>
	<g class="st1">
		<path class="st2" d="M504.8,322.5h0.7v5h1.9v-5h0.7v5h1.9v-5h0.7v5.7h-6L504.8,322.5L504.8,322.5z"/>
		<path class="st2" d="M514.6,327.6c-0.3,0.2-0.5,0.4-0.7,0.5s-0.5,0.1-0.8,0.1c-0.5,0-0.8-0.1-1-0.3c-0.2-0.2-0.4-0.5-0.4-0.8
			c0-0.2,0-0.4,0.1-0.6s0.2-0.3,0.4-0.4c0.1-0.1,0.3-0.2,0.5-0.2c0.1,0,0.3-0.1,0.6-0.1c0.6-0.1,1-0.1,1.2-0.2c0-0.1,0-0.2,0-0.2
			c0-0.3-0.1-0.5-0.2-0.6c-0.2-0.2-0.4-0.2-0.8-0.2c-0.3,0-0.6,0.1-0.7,0.2c-0.2,0.1-0.3,0.3-0.3,0.6l-0.7-0.1
			c0.1-0.3,0.2-0.5,0.3-0.7s0.3-0.3,0.6-0.4s0.6-0.1,0.9-0.1c0.3,0,0.6,0,0.9,0.1s0.4,0.2,0.5,0.3c0.1,0.1,0.2,0.3,0.2,0.5
			c0,0.1,0,0.3,0,0.6v0.9c0,0.6,0,1.1,0,1.2s0.1,0.3,0.2,0.5h-0.7C514.7,328,514.6,327.8,514.6,327.6z M514.5,326.1
			c-0.3,0.1-0.6,0.2-1.1,0.3c-0.3,0-0.5,0.1-0.6,0.1c-0.1,0.1-0.2,0.1-0.3,0.2s-0.1,0.2-0.1,0.3c0,0.2,0.1,0.3,0.2,0.5
			s0.3,0.2,0.6,0.2s0.5-0.1,0.7-0.2s0.4-0.3,0.5-0.5s0.1-0.4,0.1-0.7L514.5,326.1L514.5,326.1z"/>
		<path class="st2" d="M516.3,324h0.7v1.7h1.9V324h0.7v4.1H519v-1.8h-2v1.8h-0.7V324z"/>
		<path class="st2" d="M520.2,328.1l1.5-2.1l-1.4-2h0.9l0.6,1c0.1,0.2,0.2,0.3,0.3,0.5c0.1-0.2,0.2-0.3,0.3-0.5l0.7-1h0.8l-1.4,1.9
			l1.5,2.2h-0.9l-0.8-1.3l-0.2-0.3l-1.1,1.6L520.2,328.1L520.2,328.1z"/>
		<path class="st2" d="M527.2,327.6c-0.3,0.2-0.5,0.4-0.7,0.5s-0.5,0.1-0.8,0.1c-0.5,0-0.8-0.1-1-0.3c-0.2-0.2-0.4-0.5-0.4-0.8
			c0-0.2,0-0.4,0.1-0.6s0.2-0.3,0.4-0.4c0.1-0.1,0.3-0.2,0.5-0.2c0.1,0,0.3-0.1,0.6-0.1c0.6-0.1,1-0.1,1.2-0.2c0-0.1,0-0.2,0-0.2
			c0-0.3-0.1-0.5-0.2-0.6c-0.2-0.2-0.4-0.2-0.8-0.2c-0.3,0-0.6,0.1-0.7,0.2c-0.2,0.1-0.3,0.3-0.3,0.6l-0.7-0.1
			c0.1-0.3,0.2-0.5,0.3-0.7s0.3-0.3,0.6-0.4s0.6-0.1,0.9-0.1c0.3,0,0.6,0,0.9,0.1s0.4,0.2,0.5,0.3c0.1,0.1,0.2,0.3,0.2,0.5
			c0,0.1,0,0.3,0,0.6v0.9c0,0.6,0,1.1,0,1.2c0,0.2,0.1,0.3,0.2,0.5h-0.7C527.3,328,527.3,327.8,527.2,327.6z M527.2,326.1
			c-0.3,0.1-0.6,0.2-1.1,0.3c-0.3,0-0.5,0.1-0.6,0.1c-0.1,0.1-0.2,0.1-0.3,0.2s-0.1,0.2-0.1,0.3c0,0.2,0.1,0.3,0.2,0.5
			s0.3,0.2,0.6,0.2s0.5-0.1,0.7-0.2s0.4-0.3,0.5-0.5s0.1-0.4,0.1-0.7L527.2,326.1L527.2,326.1z"/>
		<path class="st2" d="M529,324h0.7v3.1l1.9-3.1h0.8v4.1h-0.7V325l-1.9,3.1H529V324z M531.4,322.5h0.5c0,0.3-0.2,0.6-0.4,0.7
			c-0.2,0.2-0.5,0.3-0.8,0.3s-0.6-0.1-0.8-0.3c-0.2-0.2-0.3-0.4-0.4-0.7h0.5c0,0.2,0.1,0.3,0.2,0.4s0.3,0.1,0.4,0.1
			c0.2,0,0.4,0,0.5-0.1C531.3,322.8,531.3,322.6,531.4,322.5z"/>
	</g>
	<g class="st1">
		<path class="st2" d="M278.8,287.7l2.2-5.7h0.8l2.3,5.7h-0.9l-0.7-1.7h-2.4l-0.6,1.7H278.8z M280.5,285.4h1.9l-0.6-1.6
			c-0.2-0.5-0.3-0.9-0.4-1.2c-0.1,0.4-0.2,0.7-0.3,1.1L280.5,285.4z"/>
		<path class="st2" d="M284.6,283.6h0.7v1.8c0.2,0,0.4,0,0.5-0.1s0.2-0.3,0.4-0.7c0.1-0.3,0.2-0.5,0.3-0.6s0.2-0.2,0.3-0.2
			c0.1,0,0.3-0.1,0.5-0.1h0.1v0.6h-0.2c-0.2,0-0.3,0-0.4,0.1s-0.1,0.2-0.2,0.5s-0.2,0.5-0.3,0.6s-0.2,0.2-0.4,0.3
			c0.3,0.1,0.6,0.4,0.9,0.8l0.8,1.3h-0.8l-0.7-1.3c-0.2-0.3-0.3-0.4-0.4-0.5s-0.2-0.1-0.4-0.1v1.9h-0.7L284.6,283.6L284.6,283.6z"/>
		<path class="st2" d="M287.8,283.6h3.3v0.6h-1.3v3.5h-0.7v-3.5h-1.3V283.6L287.8,283.6z"/>
		<path class="st2" d="M294.4,287.2c-0.3,0.2-0.5,0.4-0.7,0.5s-0.5,0.1-0.8,0.1c-0.5,0-0.8-0.1-1-0.3c-0.2-0.2-0.4-0.5-0.4-0.8
			c0-0.2,0-0.4,0.1-0.6s0.2-0.3,0.4-0.4s0.3-0.2,0.5-0.2c0.1,0,0.3-0.1,0.6-0.1c0.6-0.1,1-0.1,1.2-0.2c0-0.1,0-0.2,0-0.2
			c0-0.3-0.1-0.5-0.2-0.6c-0.2-0.2-0.4-0.2-0.8-0.2c-0.3,0-0.6,0.1-0.7,0.2c-0.2,0.1-0.3,0.3-0.3,0.6l-0.7-0.1
			c0.1-0.3,0.2-0.5,0.3-0.7s0.3-0.3,0.6-0.4c0.3-0.1,0.6-0.1,0.9-0.1c0.4,0,0.6,0,0.9,0.1s0.4,0.2,0.5,0.3s0.2,0.3,0.2,0.5
			c0,0.1,0,0.3,0,0.6v0.9c0,0.6,0,1.1,0,1.2c0,0.2,0.1,0.3,0.2,0.5h-0.7C294.5,287.6,294.4,287.4,294.4,287.2z M294.4,285.6
			c-0.3,0.1-0.6,0.2-1.1,0.3c-0.3,0-0.5,0.1-0.6,0.1c-0.1,0.1-0.2,0.1-0.3,0.2s-0.1,0.2-0.1,0.3c0,0.2,0.1,0.3,0.2,0.5
			c0.1,0.1,0.3,0.2,0.6,0.2c0.3,0,0.5-0.1,0.7-0.2s0.4-0.3,0.5-0.5s0.1-0.4,0.1-0.7L294.4,285.6L294.4,285.6z"/>
		<path class="st2" d="M296,289.3l-0.1-0.7c0.2,0,0.3,0.1,0.4,0.1c0.2,0,0.3,0,0.4-0.1s0.2-0.1,0.2-0.2s0.1-0.2,0.2-0.5
			c0,0,0-0.1,0.1-0.2l-1.6-4.1h0.7l0.9,2.4c0.1,0.3,0.2,0.6,0.3,0.9c0.1-0.3,0.2-0.6,0.3-0.9l0.9-2.4h0.7l-1.6,4.2
			c-0.2,0.5-0.3,0.8-0.4,0.9c-0.1,0.2-0.3,0.4-0.4,0.5c-0.2,0.1-0.4,0.2-0.6,0.2C296.3,289.4,296.2,289.3,296,289.3z"/>
	</g>
	<g class="st1">
		<path class="st2" d="M227.2,237.6v-5h-1.9V232h4.5v0.7H228v5L227.2,237.6L227.2,237.6z"/>
		<path class="st2" d="M230.1,239.2l-0.1-0.7c0.2,0,0.3,0.1,0.4,0.1c0.2,0,0.3,0,0.4-0.1s0.2-0.1,0.2-0.2c0-0.1,0.1-0.2,0.2-0.5
			c0,0,0-0.1,0.1-0.2l-1.6-4.1h0.7l0.9,2.4c0.1,0.3,0.2,0.6,0.3,0.9c0.1-0.3,0.2-0.6,0.3-0.9l0.9-2.4h0.7l-1.6,4.2
			c-0.2,0.5-0.3,0.8-0.4,0.9c-0.1,0.2-0.3,0.4-0.4,0.5s-0.4,0.2-0.6,0.2C230.4,239.3,230.2,239.3,230.1,239.2z"/>
		<path class="st2" d="M234.2,233.5h3.2v4.1h-0.7v-3.5h-1.8v2c0,0.5,0,0.8,0,0.9c0,0.2-0.1,0.3-0.3,0.4c-0.1,0.1-0.3,0.2-0.6,0.2
			c-0.2,0-0.3,0-0.6,0V237h0.3c0.1,0,0.2,0,0.3,0s0.1-0.1,0.1-0.1c0-0.1,0-0.3,0-0.6L234.2,233.5L234.2,233.5z"/>
		<path class="st2" d="M241.2,237.1c-0.3,0.2-0.5,0.4-0.7,0.5s-0.5,0.1-0.8,0.1c-0.4,0-0.8-0.1-1-0.3s-0.4-0.5-0.4-0.8
			c0-0.2,0-0.4,0.1-0.6c0.1-0.2,0.2-0.3,0.4-0.4c0.1-0.1,0.3-0.2,0.5-0.2c0.1,0,0.3-0.1,0.6-0.1c0.6-0.1,1-0.1,1.2-0.2
			c0-0.1,0-0.2,0-0.2c0-0.3-0.1-0.5-0.2-0.6c-0.2-0.2-0.4-0.2-0.8-0.2c-0.3,0-0.6,0.1-0.7,0.2c-0.2,0.1-0.3,0.3-0.3,0.6l-0.7-0.1
			c0.1-0.3,0.2-0.5,0.3-0.7s0.3-0.3,0.6-0.4c0.3-0.1,0.6-0.1,0.9-0.1c0.4,0,0.6,0,0.9,0.1s0.4,0.2,0.5,0.3s0.2,0.3,0.2,0.5
			c0,0.1,0,0.3,0,0.6v0.9c0,0.6,0,1.1,0,1.2c0,0.2,0.1,0.3,0.2,0.5h-0.7C241.3,237.5,241.2,237.3,241.2,237.1z M241.1,235.6
			c-0.3,0.1-0.6,0.2-1.1,0.3c-0.3,0-0.5,0.1-0.6,0.1c-0.1,0.1-0.2,0.1-0.3,0.2s-0.1,0.2-0.1,0.3c0,0.2,0.1,0.3,0.2,0.5
			c0.1,0.1,0.3,0.2,0.6,0.2s0.5-0.1,0.7-0.2s0.4-0.3,0.5-0.5s0.1-0.4,0.1-0.7L241.1,235.6L241.1,235.6z"/>
	</g>
	<g class="st1">
		<path class="st2" d="M179.2,248.5h3.7v0.7H180v1.7h1.4c0.5,0,0.9,0,1.2,0.1s0.5,0.3,0.7,0.5s0.3,0.6,0.3,0.9
			c0,0.3-0.1,0.6-0.2,0.8c-0.1,0.2-0.3,0.5-0.6,0.6c-0.3,0.2-0.7,0.2-1.3,0.2h-2.2L179.2,248.5L179.2,248.5z M179.9,253.6h1.5
			c0.4,0,0.7-0.1,0.9-0.2c0.2-0.2,0.3-0.4,0.3-0.7c0-0.2-0.1-0.4-0.2-0.6c-0.1-0.2-0.3-0.3-0.5-0.3s-0.6-0.1-1.1-0.1h-1L179.9,253.6
			L179.9,253.6z"/>
		<path class="st2" d="M187.1,252.9l0.7,0.1c-0.1,0.4-0.3,0.7-0.6,1c-0.3,0.2-0.7,0.3-1.2,0.3c-0.6,0-1.1-0.2-1.4-0.6
			c-0.4-0.4-0.5-0.9-0.5-1.6c0-0.7,0.2-1.2,0.5-1.6c0.4-0.4,0.8-0.6,1.4-0.6c0.5,0,1,0.2,1.3,0.6c0.3,0.4,0.5,0.9,0.5,1.6
			c0,0,0,0.1,0,0.2h-3.1c0,0.5,0.2,0.8,0.4,1s0.5,0.4,0.9,0.4c0.3,0,0.5-0.1,0.7-0.2C186.8,253.4,186.9,253.2,187.1,252.9z
			 M184.8,251.8h2.3c0-0.3-0.1-0.6-0.3-0.8c-0.2-0.3-0.5-0.4-0.9-0.4c-0.3,0-0.6,0.1-0.8,0.3C184.9,251.1,184.8,251.4,184.8,251.8z"
			/>
		<path class="st2" d="M188.7,250.1h3.2v4.1h-0.7v-3.5h-1.8v2c0,0.5,0,0.8,0,0.9s-0.1,0.3-0.3,0.4c-0.1,0.1-0.3,0.2-0.6,0.2
			c-0.2,0-0.3,0-0.6,0v-0.6h0.3c0.1,0,0.2,0,0.3,0s0.1-0.1,0.1-0.1c0-0.1,0-0.3,0-0.6L188.7,250.1L188.7,250.1z"/>
		<path class="st2" d="M193,250.1h2.4v0.6h-1.7v3.5H193V250.1z"/>
		<path class="st2" d="M195.4,252.2c0-0.8,0.2-1.3,0.6-1.7c0.4-0.3,0.8-0.5,1.3-0.5c0.6,0,1,0.2,1.4,0.6s0.5,0.9,0.5,1.5
			c0,0.5-0.1,0.9-0.2,1.2c-0.2,0.3-0.4,0.5-0.7,0.7s-0.6,0.3-1,0.3c-0.6,0-1-0.2-1.4-0.6C195.6,253.4,195.4,252.8,195.4,252.2z
			 M196.2,252.2c0,0.5,0.1,0.9,0.3,1.2s0.5,0.4,0.9,0.4c0.3,0,0.6-0.1,0.9-0.4s0.3-0.7,0.3-1.2s-0.1-0.9-0.3-1.2s-0.5-0.4-0.9-0.4
			c-0.3,0-0.6,0.1-0.9,0.4S196.2,251.6,196.2,252.2z"/>
		<path class="st2" d="M200.1,255.8v-5.7h0.6v0.5c0.1-0.2,0.3-0.4,0.5-0.5s0.4-0.2,0.7-0.2c0.4,0,0.7,0.1,0.9,0.3
			c0.3,0.2,0.5,0.4,0.6,0.8c0.1,0.3,0.2,0.7,0.2,1.1c0,0.4-0.1,0.8-0.2,1.1c-0.2,0.3-0.4,0.6-0.7,0.8s-0.6,0.3-0.9,0.3
			c-0.2,0-0.4,0-0.6-0.1c-0.2-0.1-0.3-0.2-0.5-0.4v2L200.1,255.8L200.1,255.8z M200.7,252.2c0,0.5,0.1,0.9,0.3,1.2s0.5,0.4,0.8,0.4
			s0.6-0.1,0.8-0.4c0.2-0.3,0.3-0.7,0.3-1.2s-0.1-0.9-0.3-1.2s-0.5-0.4-0.8-0.4s-0.6,0.1-0.8,0.4
			C200.9,251.2,200.7,251.6,200.7,252.2z"/>
		<path class="st2" d="M204.3,252.2c0-0.8,0.2-1.3,0.6-1.7c0.4-0.3,0.8-0.5,1.3-0.5c0.6,0,1,0.2,1.4,0.6s0.5,0.9,0.5,1.5
			c0,0.5-0.1,0.9-0.2,1.2c-0.2,0.3-0.4,0.5-0.7,0.7s-0.6,0.3-1,0.3c-0.6,0-1-0.2-1.4-0.6C204.4,253.4,204.3,252.8,204.3,252.2z
			 M205,252.2c0,0.5,0.1,0.9,0.3,1.2s0.5,0.4,0.9,0.4c0.3,0,0.6-0.1,0.9-0.4s0.3-0.7,0.3-1.2s-0.1-0.9-0.3-1.2s-0.5-0.4-0.9-0.4
			c-0.3,0-0.6,0.1-0.9,0.4S205,251.6,205,252.2z"/>
		<path class="st2" d="M209.3,250.1h2.9v3.5h0.4v1.7H212v-1.2h-3.2v1.2h-0.6v-1.7h0.4C209.1,253,209.3,251.8,209.3,250.1z
			 M209.9,250.7c-0.1,1.3-0.3,2.3-0.6,3h2.2v-3H209.9z"/>
	</g>
	<g class="st1">
		<path class="st2" d="M238.1,273.8h0.7v2.5c0.3,0,0.6-0.1,0.7-0.2c0.1-0.1,0.3-0.5,0.5-1c0.2-0.4,0.3-0.6,0.4-0.8
			c0.1-0.2,0.2-0.3,0.4-0.4s0.4-0.2,0.6-0.2c0.3,0,0.4,0,0.5,0v0.6h-0.1c-0.1,0-0.1,0-0.1,0c-0.2,0-0.4,0.1-0.5,0.2
			s-0.3,0.4-0.4,0.7c-0.2,0.5-0.4,0.8-0.5,0.9s-0.3,0.2-0.5,0.3c0.4,0.1,0.7,0.4,1.1,1l1.2,1.9h-0.9l-0.9-1.5
			c-0.3-0.4-0.5-0.7-0.7-0.9c-0.2-0.2-0.4-0.2-0.7-0.2v2.7h-0.7L238.1,273.8L238.1,273.8L238.1,273.8z"/>
		<path class="st2" d="M242.6,281v-5.7h0.6v0.5c0.1-0.2,0.3-0.4,0.5-0.5s0.4-0.2,0.7-0.2c0.4,0,0.7,0.1,0.9,0.3s0.5,0.4,0.6,0.8
			c0.1,0.3,0.2,0.7,0.2,1.1s-0.1,0.8-0.2,1.1c-0.2,0.3-0.4,0.6-0.7,0.8c-0.3,0.2-0.6,0.3-0.9,0.3c-0.2,0-0.4,0-0.6-0.1
			c-0.2-0.1-0.3-0.2-0.5-0.4v2L242.6,281L242.6,281z M243.2,277.4c0,0.5,0.1,0.9,0.3,1.2c0.2,0.3,0.5,0.4,0.8,0.4s0.6-0.1,0.8-0.4
			s0.3-0.7,0.3-1.2s-0.1-0.9-0.3-1.2c-0.2-0.3-0.5-0.4-0.8-0.4s-0.6,0.1-0.8,0.4C243.4,276.5,243.2,276.9,243.2,277.4z"/>
		<path class="st2" d="M249.7,278.9c-0.3,0.2-0.5,0.4-0.7,0.5s-0.5,0.1-0.8,0.1c-0.4,0-0.8-0.1-1-0.3c-0.2-0.2-0.4-0.5-0.4-0.8
			c0-0.2,0-0.4,0.1-0.6s0.2-0.3,0.4-0.4s0.3-0.2,0.5-0.2c0.1,0,0.3-0.1,0.6-0.1c0.6-0.1,1-0.1,1.2-0.2c0-0.1,0-0.2,0-0.2
			c0-0.3-0.1-0.5-0.2-0.6c-0.2-0.2-0.4-0.2-0.8-0.2c-0.3,0-0.6,0.1-0.7,0.2c-0.2,0.1-0.3,0.3-0.3,0.6l-0.7-0.1
			c0.1-0.3,0.2-0.5,0.3-0.7s0.3-0.3,0.6-0.4s0.6-0.1,0.9-0.1c0.4,0,0.6,0,0.9,0.1c0.2,0.1,0.4,0.2,0.5,0.3s0.2,0.3,0.2,0.5
			c0,0.1,0,0.3,0,0.6v0.9c0,0.6,0,1.1,0,1.2c0,0.2,0.1,0.3,0.2,0.5h-0.7C249.8,279.3,249.7,279.1,249.7,278.9z M249.6,277.4
			c-0.3,0.1-0.6,0.2-1.1,0.3c-0.3,0-0.5,0.1-0.6,0.1c-0.1,0.1-0.2,0.1-0.3,0.2s-0.1,0.2-0.1,0.3c0,0.2,0.1,0.3,0.2,0.5
			c0.1,0.1,0.3,0.2,0.6,0.2s0.5-0.1,0.7-0.2s0.4-0.3,0.5-0.5s0.1-0.4,0.1-0.7L249.6,277.4L249.6,277.4z"/>
		<path class="st2" d="M254.1,277.9l0.7,0.1c-0.1,0.5-0.3,0.8-0.6,1.1c-0.3,0.3-0.7,0.4-1.1,0.4c-0.6,0-1-0.2-1.4-0.6
			c-0.3-0.4-0.5-0.9-0.5-1.6c0-0.4,0.1-0.8,0.2-1.2s0.4-0.6,0.7-0.7c0.3-0.2,0.6-0.3,1-0.3s0.8,0.1,1.1,0.3s0.5,0.5,0.5,1l-0.7,0.1
			c-0.1-0.3-0.2-0.5-0.3-0.6s-0.4-0.2-0.6-0.2c-0.4,0-0.6,0.1-0.9,0.4c-0.2,0.3-0.3,0.6-0.3,1.2s0.1,1,0.3,1.2
			c0.2,0.3,0.5,0.4,0.8,0.4s0.5-0.1,0.7-0.3C253.9,278.6,254,278.3,254.1,277.9z"/>
		<path class="st2" d="M255.4,275.3h0.7v1.7h1.9v-1.7h0.7v4.1H258v-1.8h-1.9v1.8h-0.7L255.4,275.3L255.4,275.3z"/>
		<path class="st2" d="M259.5,277.4c0-0.8,0.2-1.3,0.6-1.7c0.4-0.3,0.8-0.5,1.3-0.5c0.6,0,1,0.2,1.4,0.6s0.5,0.9,0.5,1.5
			c0,0.5-0.1,0.9-0.2,1.2c-0.2,0.3-0.4,0.5-0.7,0.7c-0.3,0.2-0.6,0.3-1,0.3c-0.6,0-1-0.2-1.4-0.6
			C259.7,278.6,259.5,278.1,259.5,277.4z M260.2,277.4c0,0.5,0.1,0.9,0.3,1.2c0.2,0.3,0.5,0.4,0.9,0.4c0.3,0,0.6-0.1,0.9-0.4
			c0.2-0.3,0.3-0.7,0.3-1.2s-0.1-0.9-0.3-1.2c-0.2-0.3-0.5-0.4-0.9-0.4c-0.3,0-0.6,0.1-0.9,0.4C260.3,276.5,260.2,276.9,260.2,277.4
			z"/>
		<path class="st2" d="M264.5,275.3h2.9v3.5h0.4v1.7h-0.6v-1.2H264v1.2h-0.6v-1.7h0.4C264.3,278.2,264.5,277,264.5,275.3z
			 M265.1,275.9c-0.1,1.3-0.3,2.3-0.6,3h2.2v-3H265.1z"/>
		<path class="st2" d="M271.3,278.9c-0.3,0.2-0.5,0.4-0.7,0.5s-0.5,0.1-0.8,0.1c-0.5,0-0.8-0.1-1-0.3c-0.2-0.2-0.4-0.5-0.4-0.8
			c0-0.2,0-0.4,0.1-0.6s0.2-0.3,0.4-0.4s0.3-0.2,0.5-0.2c0.1,0,0.3-0.1,0.6-0.1c0.6-0.1,1-0.1,1.2-0.2c0-0.1,0-0.2,0-0.2
			c0-0.3-0.1-0.5-0.2-0.6c-0.2-0.2-0.4-0.2-0.8-0.2c-0.3,0-0.6,0.1-0.7,0.2c-0.2,0.1-0.3,0.3-0.3,0.6l-0.7-0.1
			c0.1-0.3,0.2-0.5,0.3-0.7s0.3-0.3,0.6-0.4c0.3-0.1,0.6-0.1,0.9-0.1c0.4,0,0.6,0,0.9,0.1s0.4,0.2,0.5,0.3s0.2,0.3,0.2,0.5
			c0,0.1,0,0.3,0,0.6v0.9c0,0.6,0,1.1,0,1.2c0,0.2,0.1,0.3,0.2,0.5h-0.7C271.3,279.3,271.3,279.1,271.3,278.9z M271.2,277.4
			c-0.3,0.1-0.6,0.2-1.1,0.3c-0.3,0-0.5,0.1-0.6,0.1c-0.1,0.1-0.2,0.1-0.3,0.2s-0.1,0.2-0.1,0.3c0,0.2,0.1,0.3,0.2,0.5
			s0.3,0.2,0.6,0.2c0.3,0,0.5-0.1,0.7-0.2s0.4-0.3,0.5-0.5s0.1-0.4,0.1-0.7L271.2,277.4L271.2,277.4z"/>
		<path class="st2" d="M273,281v-5.7h0.6v0.5c0.1-0.2,0.3-0.4,0.5-0.5s0.4-0.2,0.7-0.2c0.4,0,0.7,0.1,0.9,0.3s0.5,0.4,0.6,0.8
			c0.1,0.3,0.2,0.7,0.2,1.1s-0.1,0.8-0.2,1.1c-0.2,0.3-0.4,0.6-0.7,0.8c-0.3,0.2-0.6,0.3-0.9,0.3c-0.2,0-0.4,0-0.6-0.1
			s-0.3-0.2-0.5-0.4v2L273,281L273,281z M273.6,277.4c0,0.5,0.1,0.9,0.3,1.2c0.2,0.3,0.5,0.4,0.8,0.4s0.6-0.1,0.8-0.4
			c0.2-0.3,0.3-0.7,0.3-1.2s-0.1-0.9-0.3-1.2c-0.2-0.3-0.5-0.4-0.8-0.4s-0.6,0.1-0.8,0.4C273.7,276.5,273.6,276.9,273.6,277.4z"/>
	</g>
	<g class="st1">
		<path class="st2" d="M250.1,263.8v-5.7h2.1c0.4,0,0.8,0.1,1,0.2c0.3,0.1,0.5,0.3,0.6,0.5s0.2,0.5,0.2,0.7s-0.1,0.5-0.2,0.7
			c-0.1,0.2-0.3,0.4-0.6,0.5c0.3,0.1,0.6,0.3,0.8,0.5s0.3,0.5,0.3,0.9c0,0.3-0.1,0.5-0.2,0.7c-0.1,0.2-0.3,0.4-0.4,0.5
			s-0.4,0.2-0.6,0.3c-0.2,0.1-0.6,0.1-0.9,0.1L250.1,263.8L250.1,263.8z M250.9,260.5h1.2c0.3,0,0.6,0,0.7-0.1
			c0.2-0.1,0.3-0.2,0.4-0.3s0.1-0.3,0.1-0.5s0-0.4-0.1-0.5s-0.2-0.2-0.4-0.3c-0.2-0.1-0.5-0.1-0.9-0.1h-1.1L250.9,260.5L250.9,260.5
			z M250.9,263.1h1.4c0.2,0,0.4,0,0.5,0c0.2,0,0.3-0.1,0.4-0.2s0.2-0.2,0.3-0.3s0.1-0.3,0.1-0.5s-0.1-0.4-0.2-0.5
			c-0.1-0.2-0.3-0.3-0.4-0.3c-0.2-0.1-0.5-0.1-0.8-0.1h-1.3V263.1L250.9,263.1z"/>
		<path class="st2" d="M255.1,261.8c0-0.8,0.2-1.3,0.6-1.7c0.4-0.3,0.8-0.5,1.3-0.5c0.6,0,1,0.2,1.4,0.6s0.5,0.9,0.5,1.5
			c0,0.5-0.1,0.9-0.2,1.2c-0.2,0.3-0.4,0.5-0.7,0.7c-0.3,0.2-0.6,0.3-1,0.3c-0.6,0-1-0.2-1.4-0.6C255.2,263,255.1,262.4,255.1,261.8
			z M255.8,261.8c0,0.5,0.1,0.9,0.3,1.2c0.2,0.3,0.5,0.4,0.9,0.4c0.3,0,0.6-0.1,0.9-0.4c0.2-0.3,0.3-0.7,0.3-1.2s-0.1-0.9-0.3-1.2
			c-0.2-0.3-0.5-0.4-0.9-0.4c-0.3,0-0.6,0.1-0.9,0.4C255.9,260.8,255.8,261.2,255.8,261.8z"/>
		<path class="st2" d="M259.9,259.7h3.2v4.1h-0.7v-3.5h-1.8v2c0,0.5,0,0.8,0,0.9c0,0.2-0.1,0.3-0.3,0.4c-0.1,0.1-0.3,0.2-0.6,0.2
			c-0.2,0-0.3,0-0.6,0v-0.6h0.3c0.1,0,0.2,0,0.3,0c0.1,0,0.1-0.1,0.1-0.1c0-0.1,0-0.3,0-0.6L259.9,259.7L259.9,259.7z"/>
		<path class="st2" d="M264.2,259.7h2.4v0.6h-1.7v3.5h-0.7L264.2,259.7L264.2,259.7z"/>
		<path class="st2" d="M266.6,261.8c0-0.8,0.2-1.3,0.6-1.7c0.4-0.3,0.8-0.5,1.3-0.5c0.6,0,1,0.2,1.4,0.6s0.5,0.9,0.5,1.5
			c0,0.5-0.1,0.9-0.2,1.2c-0.2,0.3-0.4,0.5-0.7,0.7c-0.3,0.2-0.6,0.3-1,0.3c-0.6,0-1-0.2-1.4-0.6C266.8,263,266.6,262.4,266.6,261.8
			z M267.3,261.8c0,0.5,0.1,0.9,0.3,1.2c0.2,0.3,0.5,0.4,0.9,0.4c0.3,0,0.6-0.1,0.9-0.4c0.2-0.3,0.3-0.7,0.3-1.2s-0.1-0.9-0.3-1.2
			c-0.2-0.3-0.5-0.4-0.9-0.4c-0.3,0-0.6,0.1-0.9,0.4C267.5,260.8,267.3,261.2,267.3,261.8z"/>
		<path class="st2" d="M271.3,259.7h2.4v0.6H272v3.5h-0.7V259.7L271.3,259.7z"/>
		<path class="st2" d="M274.2,265.4v-5.7h0.6v0.5c0.1-0.2,0.3-0.4,0.5-0.5s0.4-0.2,0.7-0.2c0.4,0,0.7,0.1,0.9,0.3
			c0.3,0.2,0.5,0.4,0.6,0.8c0.1,0.3,0.2,0.7,0.2,1.1s-0.1,0.8-0.2,1.1c-0.2,0.3-0.4,0.6-0.7,0.8c-0.3,0.2-0.6,0.3-0.9,0.3
			c-0.2,0-0.4,0-0.6-0.1s-0.3-0.2-0.5-0.4v2L274.2,265.4L274.2,265.4z M274.8,261.8c0,0.5,0.1,0.9,0.3,1.2s0.5,0.4,0.8,0.4
			s0.6-0.1,0.8-0.4c0.2-0.3,0.3-0.7,0.3-1.2s-0.1-0.9-0.3-1.2c-0.2-0.3-0.5-0.4-0.8-0.4s-0.6,0.1-0.8,0.4
			C274.9,260.8,274.8,261.3,274.8,261.8z"/>
		<path class="st2" d="M281.2,263.3c-0.3,0.2-0.5,0.4-0.7,0.5s-0.5,0.1-0.8,0.1c-0.5,0-0.8-0.1-1-0.3c-0.2-0.2-0.4-0.5-0.4-0.8
			c0-0.2,0-0.4,0.1-0.6s0.2-0.3,0.4-0.4s0.3-0.2,0.5-0.2c0.1,0,0.3-0.1,0.6-0.1c0.6-0.1,1-0.1,1.2-0.2c0-0.1,0-0.2,0-0.2
			c0-0.3-0.1-0.5-0.2-0.6c-0.2-0.2-0.4-0.2-0.8-0.2c-0.3,0-0.6,0.1-0.7,0.2c-0.2,0.1-0.3,0.3-0.3,0.6l-0.7-0.1
			c0.1-0.3,0.2-0.5,0.3-0.7s0.3-0.3,0.6-0.4c0.3-0.1,0.6-0.1,0.9-0.1c0.4,0,0.6,0,0.9,0.1s0.4,0.2,0.5,0.3s0.2,0.3,0.2,0.5
			c0,0.1,0,0.3,0,0.6v0.9c0,0.6,0,1.1,0,1.2c0,0.2,0.1,0.3,0.2,0.5h-0.7C281.3,263.7,281.3,263.5,281.2,263.3z M281.2,261.7
			c-0.3,0.1-0.6,0.2-1.1,0.3c-0.3,0-0.5,0.1-0.6,0.1c-0.1,0.1-0.2,0.1-0.3,0.2s-0.1,0.2-0.1,0.3c0,0.2,0.1,0.3,0.2,0.5
			c0.1,0.1,0.3,0.2,0.6,0.2c0.3,0,0.5-0.1,0.7-0.2s0.4-0.3,0.5-0.5s0.1-0.4,0.1-0.7L281.2,261.7L281.2,261.7z"/>
		<path class="st2" d="M283.5,259.7h2.9v3.5h0.4v1.7h-0.6v-1.2H283v1.2h-0.6v-1.7h0.4C283.3,262.6,283.5,261.4,283.5,259.7z
			 M284.1,260.3c-0.1,1.3-0.3,2.3-0.6,3h2.2v-3H284.1z"/>
	</g>
	<g class="st1">
		<path class="st2" d="M259.5,249.3l0.7,0.2c-0.2,0.6-0.4,1.1-0.8,1.4s-0.9,0.5-1.5,0.5s-1.1-0.1-1.5-0.4c-0.4-0.2-0.7-0.6-0.9-1.1
			c-0.2-0.5-0.3-1-0.3-1.5c0-0.6,0.1-1.1,0.3-1.5c0.2-0.4,0.5-0.8,1-1c0.4-0.2,0.9-0.3,1.4-0.3c0.6,0,1,0.1,1.4,0.4s0.7,0.7,0.8,1.2
			l-0.7,0.2c-0.1-0.4-0.3-0.7-0.6-0.9c-0.3-0.2-0.6-0.3-0.9-0.3c-0.4,0-0.8,0.1-1.1,0.3c-0.3,0.2-0.5,0.5-0.6,0.8
			c-0.1,0.4-0.2,0.7-0.2,1.1c0,0.5,0.1,0.9,0.2,1.3c0.1,0.4,0.4,0.6,0.7,0.8c0.3,0.2,0.6,0.3,1,0.3c0.4,0,0.8-0.1,1.1-0.4
			C259.2,250.1,259.4,249.8,259.5,249.3z"/>
		<path class="st2" d="M263.9,250.8c-0.3,0.2-0.5,0.4-0.7,0.5s-0.5,0.1-0.8,0.1c-0.5,0-0.8-0.1-1-0.3c-0.2-0.2-0.4-0.5-0.4-0.8
			c0-0.2,0-0.4,0.1-0.6s0.2-0.3,0.4-0.4c0.2-0.1,0.3-0.2,0.5-0.2c0.1,0,0.3-0.1,0.6-0.1c0.6-0.1,1-0.1,1.2-0.2c0-0.1,0-0.2,0-0.2
			c0-0.3-0.1-0.5-0.2-0.6c-0.2-0.2-0.4-0.2-0.8-0.2c-0.3,0-0.6,0.1-0.7,0.2c-0.2,0.1-0.3,0.3-0.3,0.6l-0.7-0.1
			c0.1-0.3,0.2-0.5,0.3-0.7c0.1-0.2,0.3-0.3,0.6-0.4c0.3-0.1,0.6-0.1,0.9-0.1c0.4,0,0.6,0,0.9,0.1c0.2,0.1,0.4,0.2,0.5,0.3
			s0.2,0.3,0.2,0.5c0,0.1,0,0.3,0,0.6v0.9c0,0.6,0,1.1,0,1.2c0,0.2,0.1,0.3,0.2,0.5H264C264,251.2,263.9,251,263.9,250.8z
			 M263.8,249.2c-0.3,0.1-0.6,0.2-1.1,0.3c-0.3,0-0.5,0.1-0.6,0.1c-0.1,0.1-0.2,0.1-0.3,0.2c-0.1,0.1-0.1,0.2-0.1,0.3
			c0,0.2,0.1,0.3,0.2,0.5c0.1,0.1,0.3,0.2,0.6,0.2c0.3,0,0.5-0.1,0.7-0.2s0.4-0.3,0.5-0.5c0.1-0.2,0.1-0.4,0.1-0.7L263.8,249.2
			L263.8,249.2z"/>
		<path class="st2" d="M265.6,252.9v-5.7h0.6v0.5c0.1-0.2,0.3-0.4,0.5-0.5s0.4-0.2,0.7-0.2c0.4,0,0.7,0.1,0.9,0.3
			c0.2,0.2,0.5,0.4,0.6,0.8c0.1,0.3,0.2,0.7,0.2,1.1s-0.1,0.8-0.2,1.1c-0.2,0.3-0.4,0.6-0.7,0.8c-0.3,0.2-0.6,0.3-0.9,0.3
			c-0.2,0-0.4,0-0.6-0.1s-0.3-0.2-0.5-0.4v2L265.6,252.9L265.6,252.9z M266.2,249.3c0,0.5,0.1,0.9,0.3,1.2c0.2,0.3,0.5,0.4,0.8,0.4
			s0.6-0.1,0.8-0.4c0.2-0.3,0.3-0.7,0.3-1.2s-0.1-0.9-0.3-1.2c-0.2-0.3-0.5-0.4-0.8-0.4s-0.6,0.1-0.8,0.4
			C266.4,248.3,266.2,248.7,266.2,249.3z"/>
		<path class="st2" d="M272.7,250.8c-0.3,0.2-0.5,0.4-0.7,0.5s-0.5,0.1-0.8,0.1c-0.5,0-0.8-0.1-1-0.3c-0.2-0.2-0.4-0.5-0.4-0.8
			c0-0.2,0-0.4,0.1-0.6s0.2-0.3,0.4-0.4c0.2-0.1,0.3-0.2,0.5-0.2c0.1,0,0.3-0.1,0.6-0.1c0.6-0.1,1-0.1,1.2-0.2c0-0.1,0-0.2,0-0.2
			c0-0.3-0.1-0.5-0.2-0.6c-0.2-0.2-0.4-0.2-0.8-0.2c-0.3,0-0.6,0.1-0.7,0.2c-0.2,0.1-0.3,0.3-0.3,0.6l-0.7-0.1
			c0.1-0.3,0.2-0.5,0.3-0.7c0.1-0.2,0.3-0.3,0.6-0.4c0.3-0.1,0.6-0.1,0.9-0.1c0.4,0,0.6,0,0.9,0.1c0.2,0.1,0.4,0.2,0.5,0.3
			s0.2,0.3,0.2,0.5c0,0.1,0,0.3,0,0.6v0.9c0,0.6,0,1.1,0,1.2c0,0.2,0.1,0.3,0.2,0.5h-0.7C272.8,251.2,272.7,251,272.7,250.8z
			 M272.6,249.2c-0.3,0.1-0.6,0.2-1.1,0.3c-0.3,0-0.5,0.1-0.6,0.1c-0.1,0.1-0.2,0.1-0.3,0.2c-0.1,0.1-0.1,0.2-0.1,0.3
			c0,0.2,0.1,0.3,0.2,0.5c0.1,0.1,0.3,0.2,0.6,0.2c0.3,0,0.5-0.1,0.7-0.2s0.4-0.3,0.5-0.5c0.1-0.2,0.1-0.4,0.1-0.7L272.6,249.2
			L272.6,249.2z"/>
		<path class="st2" d="M273.9,247.2h3.3v0.6h-1.3v3.5h-0.7v-3.5h-1.3V247.2L273.9,247.2z"/>
		<path class="st2" d="M277.5,249.2c0-0.8,0.2-1.3,0.6-1.7c0.4-0.3,0.8-0.5,1.3-0.5c0.6,0,1,0.2,1.4,0.6c0.4,0.4,0.5,0.9,0.5,1.5
			c0,0.5-0.1,0.9-0.2,1.2c-0.2,0.3-0.4,0.5-0.7,0.7c-0.3,0.2-0.6,0.3-1,0.3c-0.6,0-1-0.2-1.4-0.6
			C277.7,250.5,277.5,249.9,277.5,249.2z M278.2,249.2c0,0.5,0.1,0.9,0.3,1.2c0.2,0.3,0.5,0.4,0.9,0.4c0.3,0,0.6-0.1,0.9-0.4
			c0.2-0.3,0.3-0.7,0.3-1.2s-0.1-0.9-0.3-1.2c-0.2-0.3-0.5-0.4-0.9-0.4c-0.3,0-0.6,0.1-0.9,0.4C278.3,248.3,278.2,248.7,278.2,249.2
			z"/>
		<path class="st2" d="M282.2,247.2h1.6c0.4,0,0.7,0,0.9,0.1s0.4,0.2,0.5,0.4c0.1,0.2,0.2,0.4,0.2,0.6c0,0.2,0,0.4-0.1,0.5
			s-0.2,0.3-0.4,0.4c0.2,0.1,0.4,0.2,0.5,0.4c0.1,0.2,0.2,0.4,0.2,0.6c0,0.4-0.2,0.7-0.4,0.9c-0.3,0.2-0.6,0.3-1.1,0.3h-1.9
			L282.2,247.2L282.2,247.2z M282.9,248.9h0.7c0.3,0,0.5,0,0.6,0s0.2-0.1,0.3-0.2c0.1-0.1,0.1-0.2,0.1-0.3c0-0.2-0.1-0.4-0.2-0.5
			c-0.2-0.1-0.4-0.1-0.8-0.1h-0.8L282.9,248.9L282.9,248.9z M282.9,250.7h0.9c0.4,0,0.7,0,0.8-0.1c0.1-0.1,0.2-0.3,0.2-0.5
			c0-0.1,0-0.3-0.1-0.4c-0.1-0.1-0.2-0.2-0.3-0.2c-0.1,0-0.4,0-0.7,0h-0.8V250.7L282.9,250.7z"/>
	</g>
	<g class="st1">
		<path class="st2" d="M259.3,230.3h0.7v2.5c0.3,0,0.6-0.1,0.7-0.2c0.1-0.1,0.3-0.5,0.5-1c0.2-0.4,0.3-0.6,0.4-0.8s0.2-0.3,0.4-0.4
			c0.2-0.1,0.4-0.2,0.6-0.2c0.3,0,0.4,0,0.5,0v0.6H263c-0.1,0-0.1,0-0.1,0c-0.2,0-0.4,0.1-0.5,0.2c-0.1,0.1-0.3,0.4-0.4,0.7
			c-0.2,0.5-0.4,0.8-0.5,0.9s-0.3,0.2-0.5,0.3c0.4,0.1,0.7,0.4,1.1,1l1.2,1.9h-0.9l-0.9-1.5c-0.3-0.4-0.5-0.7-0.7-0.9
			s-0.4-0.2-0.7-0.2v2.7h-0.7L259.3,230.3L259.3,230.3L259.3,230.3z"/>
		<path class="st2" d="M266.5,235.5c-0.3,0.2-0.5,0.4-0.7,0.5s-0.5,0.1-0.8,0.1c-0.5,0-0.8-0.1-1-0.3s-0.4-0.5-0.4-0.8
			c0-0.2,0-0.4,0.1-0.6c0.1-0.2,0.2-0.3,0.4-0.4s0.3-0.2,0.5-0.2c0.1,0,0.3-0.1,0.6-0.1c0.6-0.1,1-0.1,1.2-0.2c0-0.1,0-0.2,0-0.2
			c0-0.3-0.1-0.5-0.2-0.6c-0.2-0.2-0.4-0.2-0.8-0.2c-0.3,0-0.6,0.1-0.7,0.2c-0.2,0.1-0.3,0.3-0.3,0.6l-0.7-0.1
			c0.1-0.3,0.2-0.5,0.3-0.7s0.3-0.3,0.6-0.4c0.3-0.1,0.6-0.1,0.9-0.1c0.4,0,0.6,0,0.9,0.1s0.4,0.2,0.5,0.3s0.2,0.3,0.2,0.5
			c0,0.1,0,0.3,0,0.6v0.9c0,0.6,0,1.1,0,1.2c0,0.2,0.1,0.3,0.2,0.5h-0.7C266.5,235.9,266.5,235.7,266.5,235.5z M266.4,233.9
			c-0.3,0.1-0.6,0.2-1.1,0.3c-0.3,0-0.5,0.1-0.6,0.1c-0.1,0.1-0.2,0.1-0.3,0.2s-0.1,0.2-0.1,0.3c0,0.2,0.1,0.3,0.2,0.5
			c0.1,0.1,0.3,0.2,0.6,0.2c0.3,0,0.5-0.1,0.7-0.2c0.2-0.1,0.4-0.3,0.5-0.5s0.1-0.4,0.1-0.7L266.4,233.9L266.4,233.9z"/>
		<path class="st2" d="M269,234.1v-0.5c0.3,0,0.5,0,0.6,0s0.2-0.1,0.3-0.2s0.1-0.2,0.1-0.4s-0.1-0.3-0.2-0.4
			c-0.1-0.1-0.3-0.2-0.5-0.2c-0.4,0-0.7,0.2-0.8,0.7l-0.7-0.1c0.2-0.8,0.7-1.2,1.5-1.2c0.4,0,0.8,0.1,1,0.4c0.2,0.2,0.4,0.5,0.4,0.9
			c0,0.3-0.2,0.6-0.5,0.8c0.2,0.1,0.4,0.3,0.5,0.4s0.2,0.4,0.2,0.6c0,0.4-0.1,0.7-0.4,0.9s-0.6,0.3-1.1,0.3c-0.9,0-1.5-0.4-1.6-1.2
			l0.7-0.1c0.1,0.3,0.2,0.5,0.4,0.6s0.4,0.2,0.6,0.2s0.4-0.1,0.6-0.2c0.2-0.1,0.2-0.3,0.2-0.5s0-0.3-0.1-0.4s-0.2-0.2-0.3-0.2
			s-0.3,0-0.6,0C269.1,234.1,269.1,234.1,269,234.1z"/>
		<path class="st2" d="M274.4,235.5c-0.3,0.2-0.5,0.4-0.7,0.5s-0.5,0.1-0.8,0.1c-0.5,0-0.8-0.1-1-0.3s-0.4-0.5-0.4-0.8
			c0-0.2,0-0.4,0.1-0.6c0.1-0.2,0.2-0.3,0.4-0.4s0.3-0.2,0.5-0.2c0.1,0,0.3-0.1,0.6-0.1c0.6-0.1,1-0.1,1.2-0.2c0-0.1,0-0.2,0-0.2
			c0-0.3-0.1-0.5-0.2-0.6c-0.2-0.2-0.4-0.2-0.8-0.2c-0.3,0-0.6,0.1-0.7,0.2c-0.2,0.1-0.3,0.3-0.3,0.6l-0.7-0.1
			c0.1-0.3,0.2-0.5,0.3-0.7s0.3-0.3,0.6-0.4c0.3-0.1,0.6-0.1,0.9-0.1c0.4,0,0.6,0,0.9,0.1c0.2,0.1,0.4,0.2,0.5,0.3s0.2,0.3,0.2,0.5
			c0,0.1,0,0.3,0,0.6v0.9c0,0.6,0,1.1,0,1.2c0,0.2,0.1,0.3,0.2,0.5h-0.7C274.5,235.9,274.4,235.7,274.4,235.5z M274.3,233.9
			c-0.3,0.1-0.6,0.2-1.1,0.3c-0.3,0-0.5,0.1-0.6,0.1c-0.1,0.1-0.2,0.1-0.3,0.2s-0.1,0.2-0.1,0.3c0,0.2,0.1,0.3,0.2,0.5
			c0.1,0.1,0.3,0.2,0.6,0.2c0.3,0,0.5-0.1,0.7-0.2c0.2-0.1,0.4-0.3,0.5-0.5s0.1-0.4,0.1-0.7L274.3,233.9L274.3,233.9z"/>
		<path class="st2" d="M276.1,231.9h0.7v1.7h1.9v-1.7h0.7v4.1h-0.7v-1.8h-1.9v1.8h-0.7V231.9z"/>
		<path class="st2" d="M280.5,231.9h0.7v1.6h0.9c0.6,0,1,0.1,1.3,0.3s0.5,0.5,0.5,0.9c0,0.3-0.1,0.6-0.4,0.9
			c-0.3,0.2-0.7,0.4-1.2,0.4h-1.7L280.5,231.9L280.5,231.9z M281.2,235.4h0.7c0.4,0,0.8-0.1,0.9-0.2s0.3-0.3,0.3-0.5
			s-0.1-0.3-0.2-0.5s-0.4-0.2-0.9-0.2h-0.8V235.4L281.2,235.4z"/>
	</g>
	<g class="st1">
		<path class="st2" d="M189,242.4v-5.7h1.1l1.3,4c0.1,0.4,0.2,0.7,0.3,0.8c0.1-0.2,0.2-0.5,0.3-0.9l1.4-3.9h1v5.7h-0.7v-4.7
			l-1.6,4.7h-0.7l-1.6-4.8v4.8L189,242.4L189,242.4z"/>
		<path class="st2" d="M195.6,238.3h0.7v3.1l1.9-3.1h0.7v4.1h-0.7v-3.1l-1.9,3.1h-0.7V238.3z"/>
		<path class="st2" d="M200,238.3h0.7v1.7h1.9v-1.7h0.7v4.1h-0.7v-1.8h-1.9v1.8H200V238.3z"/>
		<path class="st2" d="M207,240.9l0.7,0.1c-0.1,0.5-0.3,0.8-0.6,1.1s-0.7,0.4-1.1,0.4c-0.6,0-1-0.2-1.4-0.6
			c-0.3-0.4-0.5-0.9-0.5-1.6c0-0.4,0.1-0.8,0.2-1.2s0.4-0.6,0.7-0.7c0.3-0.2,0.6-0.3,1-0.3s0.8,0.1,1.1,0.3s0.5,0.5,0.5,1l-0.7,0.1
			c-0.1-0.3-0.2-0.5-0.3-0.6c-0.2-0.1-0.4-0.2-0.6-0.2c-0.4,0-0.6,0.1-0.9,0.4c-0.2,0.3-0.3,0.6-0.3,1.2c0,0.6,0.1,1,0.3,1.2
			c0.2,0.3,0.5,0.4,0.8,0.4s0.5-0.1,0.7-0.3C206.9,241.5,207,241.2,207,240.9z"/>
		<path class="st2" d="M208.3,238.3h0.7v1.8c0.2,0,0.4,0,0.5-0.1s0.2-0.3,0.4-0.7c0.1-0.3,0.2-0.5,0.3-0.6s0.2-0.2,0.3-0.2
			s0.3-0.1,0.5-0.1h0.1v0.6h-0.2c-0.2,0-0.3,0-0.4,0.1c-0.1,0.1-0.1,0.2-0.2,0.5c-0.1,0.3-0.2,0.5-0.3,0.6s-0.2,0.2-0.4,0.3
			c0.3,0.1,0.6,0.4,0.9,0.8l0.8,1.3h-0.8l-0.7-1.3c-0.2-0.3-0.3-0.4-0.4-0.5c-0.1-0.1-0.2-0.1-0.4-0.1v1.9h-0.7L208.3,238.3
			L208.3,238.3z"/>
	</g>
	<g class="st1">
		<path class="st2" d="M146.9,259.1h3.4v5h0.5v2h-0.7v-1.3h-3.7v1.3h-0.7v-2h0.4c0.5-0.7,0.7-2.1,0.7-4.2v-0.8H146.9z M149.6,259.8
			h-2v0.3c0,0.5,0,1.1-0.1,2s-0.3,1.5-0.5,2.1h2.6V259.8L149.6,259.8z"/>
		<path class="st2" d="M151.7,260.7h0.7v1.7h1.9v-1.7h0.7v4.1h-0.7V263h-1.9v1.8h-0.7V260.7z"/>
		<path class="st2" d="M158.8,263.5l0.7,0.1c-0.1,0.4-0.3,0.7-0.6,1s-0.7,0.3-1.2,0.3c-0.6,0-1.1-0.2-1.4-0.6
			c-0.4-0.4-0.5-0.9-0.5-1.6s0.2-1.2,0.5-1.6c0.4-0.4,0.8-0.6,1.4-0.6c0.5,0,1,0.2,1.3,0.6s0.5,0.9,0.5,1.6c0,0,0,0.1,0,0.2h-3.1
			c0,0.5,0.2,0.8,0.4,1s0.5,0.4,0.9,0.4c0.3,0,0.5-0.1,0.7-0.2C158.6,264,158.7,263.8,158.8,263.5z M156.6,262.4h2.3
			c0-0.3-0.1-0.6-0.3-0.8c-0.2-0.3-0.5-0.4-0.9-0.4c-0.3,0-0.6,0.1-0.8,0.3C156.7,261.7,156.6,262,156.6,262.4z"/>
		<path class="st2" d="M160.4,260.7h3.2v4.1H163v-3.5h-1.8v3.5h-0.7L160.4,260.7L160.4,260.7z"/>
		<path class="st2" d="M164.7,266.4v-5.7h0.6v0.5c0.1-0.2,0.3-0.4,0.5-0.5s0.4-0.2,0.7-0.2c0.4,0,0.7,0.1,0.9,0.3
			c0.3,0.2,0.5,0.4,0.6,0.8c0.1,0.3,0.2,0.7,0.2,1.1s-0.1,0.8-0.2,1.1c-0.2,0.3-0.4,0.6-0.7,0.8c-0.3,0.2-0.6,0.3-0.9,0.3
			c-0.2,0-0.4,0-0.6-0.1c-0.2-0.1-0.3-0.2-0.5-0.4v2L164.7,266.4L164.7,266.4z M165.3,262.8c0,0.5,0.1,0.9,0.3,1.2s0.5,0.4,0.8,0.4
			s0.6-0.1,0.8-0.4s0.3-0.7,0.3-1.2s-0.1-0.9-0.3-1.2c-0.2-0.3-0.5-0.4-0.8-0.4s-0.6,0.1-0.8,0.4
			C165.5,261.8,165.3,262.2,165.3,262.8z"/>
		<path class="st2" d="M168.9,262.7c0-0.8,0.2-1.3,0.6-1.7c0.4-0.3,0.8-0.5,1.3-0.5c0.6,0,1,0.2,1.4,0.6s0.5,0.9,0.5,1.5
			c0,0.5-0.1,0.9-0.2,1.2c-0.2,0.3-0.4,0.5-0.7,0.7s-0.6,0.3-1,0.3c-0.6,0-1-0.2-1.4-0.6C169,264,168.9,263.4,168.9,262.7z
			 M169.6,262.7c0,0.5,0.1,0.9,0.3,1.2c0.2,0.3,0.5,0.4,0.9,0.4c0.3,0,0.6-0.1,0.9-0.4c0.2-0.3,0.3-0.7,0.3-1.2s-0.1-0.9-0.3-1.2
			c-0.2-0.3-0.5-0.4-0.9-0.4c-0.3,0-0.6,0.1-0.9,0.4C169.7,261.8,169.6,262.2,169.6,262.7z"/>
		<path class="st2" d="M173.5,260.7h3.2v4.1H176v-3.5h-1.8v3.5h-0.7V260.7L173.5,260.7z"/>
		<path class="st2" d="M180.6,263.5l0.7,0.1c-0.1,0.4-0.3,0.7-0.6,1s-0.7,0.3-1.2,0.3c-0.6,0-1.1-0.2-1.4-0.6
			c-0.4-0.4-0.5-0.9-0.5-1.6s0.2-1.2,0.5-1.6c0.4-0.4,0.8-0.6,1.4-0.6c0.5,0,1,0.2,1.3,0.6s0.5,0.9,0.5,1.6c0,0,0,0.1,0,0.2h-3.1
			c0,0.5,0.2,0.8,0.4,1s0.5,0.4,0.9,0.4c0.3,0,0.5-0.1,0.7-0.2C180.4,264,180.5,263.8,180.6,263.5z M178.3,262.4h2.3
			c0-0.3-0.1-0.6-0.3-0.8c-0.2-0.3-0.5-0.4-0.9-0.4c-0.3,0-0.6,0.1-0.8,0.3C178.5,261.7,178.3,262,178.3,262.4z"/>
		<path class="st2" d="M181.6,260.7h3.3v0.6h-1.3v3.5h-0.7v-3.5h-1.3V260.7L181.6,260.7z"/>
		<path class="st2" d="M185.6,266.4v-5.7h0.6v0.5c0.1-0.2,0.3-0.4,0.5-0.5s0.4-0.2,0.7-0.2c0.4,0,0.7,0.1,0.9,0.3
			c0.3,0.2,0.5,0.4,0.6,0.8c0.1,0.3,0.2,0.7,0.2,1.1s-0.1,0.8-0.2,1.1c-0.2,0.3-0.4,0.6-0.7,0.8c-0.3,0.2-0.6,0.3-0.9,0.3
			c-0.2,0-0.4,0-0.6-0.1s-0.3-0.2-0.5-0.4v2L185.6,266.4L185.6,266.4z M186.2,262.8c0,0.5,0.1,0.9,0.3,1.2c0.2,0.3,0.5,0.4,0.8,0.4
			s0.6-0.1,0.8-0.4s0.3-0.7,0.3-1.2s-0.1-0.9-0.3-1.2c-0.2-0.3-0.5-0.4-0.8-0.4s-0.6,0.1-0.8,0.4
			C186.3,261.8,186.2,262.2,186.2,262.8z"/>
		<path class="st2" d="M189.7,262.7c0-0.8,0.2-1.3,0.6-1.7c0.4-0.3,0.8-0.5,1.3-0.5c0.6,0,1,0.2,1.4,0.6s0.5,0.9,0.5,1.5
			c0,0.5-0.1,0.9-0.2,1.2c-0.2,0.3-0.4,0.5-0.7,0.7s-0.6,0.3-1,0.3c-0.6,0-1-0.2-1.4-0.6C189.9,264,189.7,263.4,189.7,262.7z
			 M190.4,262.7c0,0.5,0.1,0.9,0.3,1.2c0.2,0.3,0.5,0.4,0.9,0.4c0.3,0,0.6-0.1,0.9-0.4c0.2-0.3,0.3-0.7,0.3-1.2s-0.1-0.9-0.3-1.2
			c-0.2-0.3-0.5-0.4-0.9-0.4c-0.3,0-0.6,0.1-0.9,0.4S190.4,262.2,190.4,262.7z"/>
		<path class="st2" d="M194.4,260.7h1.6c0.4,0,0.7,0,0.9,0.1s0.4,0.2,0.5,0.4c0.1,0.2,0.2,0.4,0.2,0.6s0,0.4-0.1,0.5
			s-0.2,0.3-0.4,0.4c0.2,0.1,0.4,0.2,0.5,0.4c0.1,0.2,0.2,0.4,0.2,0.6c0,0.4-0.2,0.7-0.4,0.9c-0.3,0.2-0.6,0.3-1.1,0.3h-1.9V260.7
			L194.4,260.7z M195.1,262.4h0.7c0.3,0,0.5,0,0.6,0s0.2-0.1,0.3-0.2s0.1-0.2,0.1-0.3c0-0.2-0.1-0.4-0.2-0.5
			c-0.2-0.1-0.4-0.1-0.8-0.1H195L195.1,262.4L195.1,262.4z M195.1,264.2h0.9c0.4,0,0.7,0,0.8-0.1s0.2-0.3,0.2-0.5
			c0-0.1,0-0.3-0.1-0.4s-0.2-0.2-0.3-0.2s-0.4,0-0.7,0h-0.8L195.1,264.2L195.1,264.2z"/>
		<path class="st2" d="M201.1,263.3l0.7,0.1c-0.1,0.5-0.3,0.8-0.6,1.1c-0.3,0.3-0.7,0.4-1.1,0.4c-0.6,0-1-0.2-1.4-0.6
			c-0.3-0.4-0.5-0.9-0.5-1.6c0-0.4,0.1-0.8,0.2-1.2s0.4-0.6,0.7-0.7c0.3-0.2,0.6-0.3,1-0.3s0.8,0.1,1.1,0.3s0.5,0.5,0.5,1l-0.7,0.1
			c-0.1-0.3-0.2-0.5-0.3-0.6s-0.4-0.2-0.6-0.2c-0.4,0-0.6,0.1-0.9,0.4c-0.2,0.3-0.3,0.6-0.3,1.2s0.1,1,0.3,1.2
			c0.2,0.3,0.5,0.4,0.8,0.4s0.5-0.1,0.7-0.3C201,263.9,201.1,263.6,201.1,263.3z"/>
		<path class="st2" d="M202.4,260.7h0.7v1.8c0.2,0,0.4,0,0.5-0.1s0.2-0.3,0.4-0.7c0.1-0.3,0.2-0.5,0.3-0.6s0.2-0.2,0.3-0.2
			s0.3-0.1,0.5-0.1h0.1v0.6H205c-0.2,0-0.3,0-0.4,0.1c-0.1,0.1-0.1,0.2-0.2,0.5c-0.1,0.3-0.2,0.5-0.3,0.6s-0.2,0.2-0.4,0.3
			c0.3,0.1,0.6,0.4,0.9,0.8l0.8,1.3h-0.8l-0.7-1.3c-0.2-0.3-0.3-0.4-0.4-0.5c-0.1-0.1-0.2-0.1-0.4-0.1v1.9h-0.7L202.4,260.7
			L202.4,260.7z"/>
	</g>
	<g class="st1">
		<path class="st2" d="M165.1,274.6V269h2.1c0.4,0,0.7,0,0.9,0.1c0.3,0,0.5,0.1,0.7,0.3s0.3,0.3,0.5,0.5c0.1,0.2,0.2,0.5,0.2,0.8
			c0,0.5-0.2,0.9-0.5,1.2c-0.3,0.3-0.9,0.5-1.7,0.5h-1.5v2.3L165.1,274.6L165.1,274.6z M165.8,271.7h1.5c0.5,0,0.8-0.1,1-0.3
			c0.2-0.2,0.3-0.4,0.3-0.8c0-0.2-0.1-0.4-0.2-0.6c-0.1-0.2-0.3-0.3-0.5-0.3c-0.1,0-0.4,0-0.7,0h-1.4L165.8,271.7L165.8,271.7z"/>
		<path class="st2" d="M169.7,272.6c0-0.8,0.2-1.3,0.6-1.7c0.4-0.3,0.8-0.5,1.3-0.5c0.6,0,1,0.2,1.4,0.6s0.5,0.9,0.5,1.5
			c0,0.5-0.1,0.9-0.2,1.2c-0.2,0.3-0.4,0.5-0.7,0.7s-0.6,0.3-1,0.3c-0.6,0-1-0.2-1.4-0.6C169.8,273.8,169.7,273.3,169.7,272.6z
			 M170.4,272.6c0,0.5,0.1,0.9,0.3,1.2c0.2,0.3,0.5,0.4,0.9,0.4c0.3,0,0.6-0.1,0.9-0.4s0.3-0.7,0.3-1.2s-0.1-0.9-0.3-1.2
			c-0.2-0.3-0.5-0.4-0.9-0.4c-0.3,0-0.6,0.1-0.9,0.4S170.4,272,170.4,272.6z"/>
		<path class="st2" d="M177,273.1l0.7,0.1c-0.1,0.5-0.3,0.8-0.6,1.1c-0.3,0.3-0.7,0.4-1.1,0.4c-0.6,0-1-0.2-1.4-0.6
			c-0.3-0.4-0.5-0.9-0.5-1.6c0-0.4,0.1-0.8,0.2-1.2s0.4-0.6,0.7-0.7c0.3-0.2,0.6-0.3,1-0.3s0.8,0.1,1.1,0.3s0.5,0.5,0.5,1l-0.7,0.1
			c-0.1-0.3-0.2-0.5-0.3-0.6s-0.4-0.2-0.6-0.2c-0.4,0-0.6,0.1-0.9,0.4c-0.2,0.3-0.3,0.6-0.3,1.2s0.1,1,0.3,1.2
			c0.2,0.3,0.5,0.4,0.8,0.4s0.5-0.1,0.7-0.3C176.8,273.7,177,273.5,177,273.1z"/>
		<path class="st2" d="M177.9,270.5h3.3v0.6h-1.3v3.5h-0.7v-3.5h-1.3V270.5L177.9,270.5z"/>
		<path class="st2" d="M181.6,272.6c0-0.8,0.2-1.3,0.6-1.7c0.4-0.3,0.8-0.5,1.3-0.5c0.6,0,1,0.2,1.4,0.6s0.5,0.9,0.5,1.5
			c0,0.5-0.1,0.9-0.2,1.2c-0.2,0.3-0.4,0.5-0.7,0.7s-0.6,0.3-1,0.3c-0.6,0-1-0.2-1.4-0.6C181.7,273.8,181.6,273.3,181.6,272.6z
			 M182.3,272.6c0,0.5,0.1,0.9,0.3,1.2c0.2,0.3,0.5,0.4,0.9,0.4c0.3,0,0.6-0.1,0.9-0.4s0.3-0.7,0.3-1.2s-0.1-0.9-0.3-1.2
			c-0.2-0.3-0.5-0.4-0.9-0.4c-0.3,0-0.6,0.1-0.9,0.4S182.3,272,182.3,272.6z"/>
		<path class="st2" d="M186.2,270.5h1.6c0.4,0,0.7,0,0.9,0.1s0.4,0.2,0.5,0.4c0.1,0.2,0.2,0.4,0.2,0.6s0,0.4-0.1,0.5
			s-0.2,0.3-0.4,0.4c0.2,0.1,0.4,0.2,0.5,0.4c0.1,0.2,0.2,0.4,0.2,0.6c0,0.4-0.2,0.7-0.4,0.9c-0.3,0.2-0.6,0.3-1.1,0.3h-1.9V270.5
			L186.2,270.5z M186.9,272.3h0.7c0.3,0,0.5,0,0.6,0s0.2-0.1,0.3-0.2s0.1-0.2,0.1-0.3c0-0.2-0.1-0.4-0.2-0.5
			c-0.2-0.1-0.4-0.1-0.8-0.1h-0.8L186.9,272.3L186.9,272.3z M186.9,274.1h0.9c0.4,0,0.7,0,0.8-0.1s0.2-0.3,0.2-0.5
			c0-0.1,0-0.3-0.1-0.4s-0.2-0.2-0.3-0.2s-0.4,0-0.7,0h-0.8L186.9,274.1L186.9,274.1z"/>
		<path class="st2" d="M190.2,272.9v-0.7h2.1v0.7H190.2z"/>
		<path class="st2" d="M193.1,270.5h0.7v1.7h1.9v-1.7h0.7v4.1h-0.7v-1.8h-1.9v1.8h-0.7V270.5z"/>
		<path class="st2" d="M200.1,274.1c-0.3,0.2-0.5,0.4-0.7,0.5s-0.5,0.1-0.8,0.1c-0.4,0-0.8-0.1-1-0.3c-0.2-0.2-0.4-0.5-0.4-0.8
			c0-0.2,0-0.4,0.1-0.6s0.2-0.3,0.4-0.4c0.1-0.1,0.3-0.2,0.5-0.2c0.1,0,0.3-0.1,0.6-0.1c0.6-0.1,1-0.1,1.2-0.2c0-0.1,0-0.2,0-0.2
			c0-0.3-0.1-0.5-0.2-0.6c-0.2-0.2-0.4-0.2-0.8-0.2c-0.3,0-0.6,0.1-0.7,0.2c-0.2,0.1-0.3,0.3-0.3,0.6l-0.7-0.1
			c0.1-0.3,0.2-0.5,0.3-0.7s0.3-0.3,0.6-0.4s0.6-0.1,0.9-0.1c0.4,0,0.6,0,0.9,0.1s0.4,0.2,0.5,0.3s0.2,0.3,0.2,0.5
			c0,0.1,0,0.3,0,0.6v0.9c0,0.6,0,1.1,0,1.2c0,0.2,0.1,0.3,0.2,0.5h-0.7C200.2,274.5,200.1,274.3,200.1,274.1z M200,272.6
			c-0.3,0.1-0.6,0.2-1.1,0.3c-0.3,0-0.5,0.1-0.6,0.1c-0.1,0.1-0.2,0.1-0.3,0.2s-0.1,0.2-0.1,0.3c0,0.2,0.1,0.3,0.2,0.5
			s0.3,0.2,0.6,0.2s0.5-0.1,0.7-0.2s0.4-0.3,0.5-0.5s0.1-0.4,0.1-0.7L200,272.6L200,272.6z"/>
		<path class="st2" d="M201.6,272.9v-0.7h2.1v0.7H201.6z"/>
		<path class="st2" d="M205.1,269h3.4v5h0.5v2h-0.7v-1.3h-3.7v1.3h-0.7v-2h0.4c0.5-0.7,0.7-2.1,0.7-4.2V269H205.1z M207.8,269.6h-2
			v0.3c0,0.5,0,1.1-0.1,2s-0.3,1.5-0.5,2.1h2.6V269.6L207.8,269.6z"/>
		<path class="st2" d="M209.7,272.6c0-0.8,0.2-1.3,0.6-1.7c0.4-0.3,0.8-0.5,1.3-0.5c0.6,0,1,0.2,1.4,0.6s0.5,0.9,0.5,1.5
			c0,0.5-0.1,0.9-0.2,1.2c-0.2,0.3-0.4,0.5-0.7,0.7s-0.6,0.3-1,0.3c-0.6,0-1-0.2-1.4-0.6C209.8,273.8,209.7,273.3,209.7,272.6z
			 M210.4,272.6c0,0.5,0.1,0.9,0.3,1.2c0.2,0.3,0.5,0.4,0.9,0.4c0.3,0,0.6-0.1,0.9-0.4s0.3-0.7,0.3-1.2s-0.1-0.9-0.3-1.2
			c-0.2-0.3-0.5-0.4-0.9-0.4c-0.3,0-0.6,0.1-0.9,0.4S210.4,272,210.4,272.6z"/>
		<path class="st2" d="M214.3,270.5h0.7v1.7h1.9v-1.7h0.7v4.1h-0.7v-1.8H215v1.8h-0.7V270.5z"/>
		<path class="st2" d="M218.6,276.2l-0.1-0.7c0.2,0,0.3,0.1,0.4,0.1c0.2,0,0.3,0,0.4-0.1s0.2-0.1,0.2-0.2s0.1-0.2,0.2-0.5
			c0,0,0-0.1,0.1-0.2l-1.6-4.1h0.7l0.9,2.4c0.1,0.3,0.2,0.6,0.3,0.9c0.1-0.3,0.2-0.6,0.3-0.9l0.9-2.4h0.7l-1.6,4.2
			c-0.2,0.5-0.3,0.8-0.4,0.9c-0.1,0.2-0.3,0.4-0.4,0.5s-0.4,0.2-0.6,0.2C219,276.3,218.8,276.3,218.6,276.2z"/>
	</g>
	<g class="st1">
		<path class="st2" d="M56.9,250.6h3.4v5h0.5v2h-0.7v-1.3h-3.7v1.3h-0.7v-2h0.4c0.5-0.7,0.7-2.1,0.7-4.2
			C56.9,251.4,56.9,250.6,56.9,250.6z M59.6,251.2h-2v0.3c0,0.5,0,1.1-0.1,2s-0.3,1.5-0.5,2.1h2.6V251.2L59.6,251.2z"/>
		<path class="st2" d="M61.6,252.1h0.7v1.7h0.8c0.1-0.6,0.2-1,0.5-1.3s0.7-0.5,1.2-0.5c0.4,0,0.7,0.1,1,0.3c0.2,0.2,0.4,0.4,0.6,0.7
			s0.2,0.7,0.2,1.2c0,0.7-0.2,1.2-0.5,1.6s-0.8,0.5-1.3,0.5s-0.9-0.2-1.2-0.5c-0.3-0.3-0.5-0.8-0.5-1.4h-0.8v1.8h-0.7L61.6,252.1
			L61.6,252.1z M64.9,252.6c-0.3,0-0.6,0.1-0.8,0.4c-0.2,0.3-0.3,0.6-0.3,1.1c0,0.6,0.1,1,0.3,1.2c0.2,0.3,0.4,0.4,0.8,0.4
			c0.3,0,0.6-0.1,0.8-0.4c0.2-0.2,0.3-0.6,0.3-1.2c0-0.5-0.1-0.9-0.3-1.2S65.3,252.6,64.9,252.6z"/>
		<path class="st2" d="M70.2,254.7l0.7,0.1c-0.1,0.5-0.3,0.8-0.6,1.1c-0.3,0.3-0.7,0.4-1.1,0.4c-0.6,0-1-0.2-1.4-0.6
			c-0.3-0.4-0.5-0.9-0.5-1.6c0-0.4,0.1-0.8,0.2-1.2s0.4-0.6,0.7-0.7c0.3-0.2,0.6-0.3,1-0.3s0.8,0.1,1.1,0.3c0.3,0.2,0.5,0.5,0.5,1
			l-0.7,0.1c-0.1-0.3-0.2-0.5-0.3-0.6c-0.2-0.1-0.4-0.2-0.6-0.2c-0.3,0-0.6,0.1-0.9,0.4c-0.2,0.3-0.3,0.6-0.3,1.2
			c0,0.6,0.1,1,0.3,1.2c0.2,0.3,0.5,0.4,0.8,0.4s0.5-0.1,0.7-0.3C70.1,255.3,70.2,255.1,70.2,254.7z"/>
		<path class="st2" d="M74.2,254.7l0.7,0.1c-0.1,0.5-0.3,0.8-0.6,1.1c-0.3,0.3-0.7,0.4-1.1,0.4c-0.6,0-1-0.2-1.4-0.6
			c-0.3-0.4-0.5-0.9-0.5-1.6c0-0.4,0.1-0.8,0.2-1.2s0.4-0.6,0.7-0.7c0.3-0.2,0.6-0.3,1-0.3s0.8,0.1,1.1,0.3c0.3,0.2,0.5,0.5,0.5,1
			l-0.7,0.1c-0.1-0.3-0.2-0.5-0.3-0.6c-0.2-0.1-0.4-0.2-0.6-0.2c-0.3,0-0.6,0.1-0.9,0.4c-0.2,0.3-0.3,0.6-0.3,1.2
			c0,0.6,0.1,1,0.3,1.2c0.2,0.3,0.5,0.4,0.8,0.4s0.5-0.1,0.7-0.3C74,255.3,74.1,255.1,74.2,254.7z"/>
		<path class="st2" d="M78.3,254.9L79,255c-0.1,0.4-0.3,0.7-0.6,1c-0.3,0.3-0.7,0.3-1.2,0.3c-0.6,0-1.1-0.2-1.4-0.6
			c-0.4-0.4-0.5-0.9-0.5-1.6c0-0.7,0.2-1.2,0.5-1.6c0.4-0.4,0.8-0.6,1.4-0.6c0.5,0,1,0.2,1.3,0.6c0.3,0.4,0.5,0.9,0.5,1.6
			c0,0,0,0.1,0,0.2h-3c0,0.5,0.2,0.8,0.4,1c0.2,0.2,0.5,0.4,0.9,0.4c0.3,0,0.5-0.1,0.7-0.2C78,255.4,78.2,255.2,78.3,254.9z
			 M76,253.8h2.3c0-0.3-0.1-0.6-0.3-0.8c-0.2-0.3-0.5-0.4-0.9-0.4c-0.3,0-0.6,0.1-0.8,0.3C76.1,253.1,76,253.4,76,253.8z"/>
		<path class="st2" d="M80,252.1h3.2v4.1h-0.7v-3.5h-1.8v2c0,0.5,0,0.8,0,0.9s-0.1,0.3-0.3,0.4c-0.1,0.1-0.3,0.2-0.6,0.2
			c-0.2,0-0.3,0-0.6,0v-0.6h0.3c0.1,0,0.2,0,0.3,0s0.1-0.1,0.1-0.1c0-0.1,0-0.3,0-0.6L80,252.1L80,252.1z"/>
		<path class="st2" d="M84.2,252.1h0.7v1.6h0.9c0.6,0,1,0.1,1.3,0.3s0.5,0.5,0.5,0.9c0,0.3-0.1,0.6-0.4,0.9
			c-0.3,0.2-0.7,0.4-1.2,0.4h-1.7C84.2,256.2,84.2,252.1,84.2,252.1z M84.9,255.7h0.7c0.4,0,0.8-0.1,0.9-0.2s0.3-0.3,0.3-0.5
			s-0.1-0.3-0.2-0.5s-0.4-0.2-0.9-0.2h-0.8V255.7L84.9,255.7z"/>
		<path class="st2" d="M88.9,252.1h2.9v3.5h0.4v1.7h-0.6v-1.2h-3.2v1.2h-0.6v-1.7h0.4C88.7,255,88.9,253.8,88.9,252.1z M89.5,252.7
			c-0.1,1.3-0.3,2.3-0.6,3h2.2v-3H89.5z"/>
		<path class="st2" d="M92.7,254.2c0-0.8,0.2-1.3,0.6-1.7c0.4-0.3,0.8-0.5,1.3-0.5c0.6,0,1,0.2,1.4,0.6s0.5,0.9,0.5,1.5
			c0,0.5-0.1,0.9-0.2,1.2c-0.2,0.3-0.4,0.5-0.7,0.7c-0.3,0.2-0.6,0.3-1,0.3c-0.6,0-1-0.2-1.4-0.6C92.9,255.4,92.7,254.9,92.7,254.2z
			 M93.4,254.2c0,0.5,0.1,0.9,0.3,1.2c0.2,0.3,0.5,0.4,0.9,0.4c0.3,0,0.6-0.1,0.9-0.4c0.2-0.3,0.3-0.7,0.3-1.2s-0.1-0.9-0.3-1.2
			c-0.2-0.3-0.5-0.4-0.9-0.4c-0.3,0-0.6,0.1-0.9,0.4S93.4,253.6,93.4,254.2z"/>
		<path class="st2" d="M97.4,257.8v-5.7H98v0.5c0.2-0.2,0.3-0.4,0.5-0.5s0.4-0.2,0.7-0.2c0.3,0,0.7,0.1,0.9,0.3s0.5,0.4,0.6,0.8
			c0.1,0.3,0.2,0.7,0.2,1.1c0,0.4-0.1,0.8-0.2,1.1c-0.2,0.3-0.4,0.6-0.7,0.8c-0.3,0.2-0.6,0.3-0.9,0.3c-0.2,0-0.4,0-0.6-0.1
			s-0.3-0.2-0.5-0.4v2H97.4L97.4,257.8z M98,254.2c0,0.5,0.1,0.9,0.3,1.2c0.2,0.3,0.5,0.4,0.8,0.4s0.6-0.1,0.8-0.4
			c0.2-0.3,0.3-0.7,0.3-1.2s-0.1-0.9-0.3-1.2c-0.2-0.3-0.5-0.4-0.8-0.4s-0.6,0.1-0.8,0.4C98.1,253.3,98,253.7,98,254.2z"/>
		<path class="st2" d="M104.2,250.6h0.7v2c0.1-0.2,0.3-0.3,0.5-0.4c0.2-0.1,0.4-0.1,0.6-0.1c0.5,0,0.9,0.2,1.2,0.6
			c0.3,0.4,0.4,0.9,0.4,1.5s-0.2,1.2-0.5,1.6c-0.3,0.4-0.7,0.6-1.1,0.6c-0.2,0-0.3,0-0.5-0.1s-0.3-0.2-0.6-0.4v1.9h-0.7v-1.9
			c-0.1,0.2-0.3,0.3-0.5,0.3c-0.2,0.1-0.4,0.1-0.5,0.1c-0.4,0-0.8-0.2-1.1-0.6s-0.5-0.9-0.5-1.6c0-0.6,0.1-1.1,0.4-1.5
			s0.7-0.6,1.2-0.6c0.2,0,0.4,0,0.6,0.1s0.3,0.2,0.4,0.4V250.6L104.2,250.6z M102.2,254.1c0,0.6,0.1,1,0.3,1.3
			c0.2,0.3,0.4,0.4,0.7,0.4c0.3,0,0.5-0.1,0.7-0.4s0.2-0.6,0.2-1.1s-0.1-0.9-0.2-1.2c-0.2-0.3-0.4-0.4-0.7-0.4
			c-0.3,0-0.5,0.1-0.7,0.4S102.2,253.6,102.2,254.1z M104.8,254.2c0,0.6,0.1,1,0.3,1.2c0.2,0.2,0.4,0.3,0.6,0.3
			c0.3,0,0.5-0.1,0.7-0.4c0.2-0.3,0.3-0.7,0.3-1.2s-0.1-0.9-0.3-1.2s-0.4-0.4-0.7-0.4c-0.3,0-0.5,0.1-0.7,0.4
			C104.9,253.3,104.8,253.7,104.8,254.2z"/>
	</g>
</g>
</svg>
