<svg width="512" height="512" viewBox="0 0 512 512" fill="none" xmlns="http://www.w3.org/2000/svg">
<path d="M104 224H24C10.745 224 0 234.745 0 248V488C0 501.255 10.745 512 24 512H104C117.255 512 128 501.255 128 488V248C128 234.745 117.255 224 104 224ZM64 472C50.745 472 40 461.255 40 448C40 434.745 50.745 424 64 424C77.255 424 88 434.745 88 448C88 461.255 77.255 472 64 472ZM384 81.452C384 123.868 358.03 147.66 350.723 176H452.446C485.843 176 511.843 203.746 511.999 234.098C512.083 252.036 504.453 271.347 492.56 283.295L492.45 283.405C502.286 306.742 500.687 339.442 483.142 362.874C491.823 388.769 483.073 420.578 466.76 437.631C471.058 455.229 469.004 470.206 460.612 482.263C440.202 511.587 389.616 512 346.839 512L343.994 511.999C295.707 511.982 256.188 494.401 224.434 480.274C208.477 473.175 187.613 464.387 171.783 464.096C165.243 463.976 160 458.639 160 452.098V238.328C160 235.128 161.282 232.057 163.558 229.807C203.172 190.663 220.206 149.22 252.675 116.696C267.479 101.864 272.863 79.46 278.068 57.794C282.515 39.293 291.817 0 312 0C336 0 384 8 384 81.452Z" fill="#EA0C00"/>
</svg>
