<svg width="512" height="512" viewBox="0 0 512 512" fill="none" xmlns="http://www.w3.org/2000/svg">
<g clip-path="url(#clip0)">
<path d="M504.99 105.01L407.09 7.00997C399.38 -0.700027 391.09 0.00997271 383.99 0.00997271V128.01H511.99C511.99 120.48 512.63 112.66 504.99 105.01V105.01ZM351.99 136.01V0.00997271H152C138.7 0.00997271 128 10.71 128 24.01V133C146.3 128 147.58 128 154.45 128C170.68 128 186.55 134.67 197.98 146.3C206.7 155.89 202.39 153.28 216.26 157.06C237.33 162.81 253.9 179.59 259.49 200.86C262.6 214.06 260.09 209.52 270.24 219.85C285.49 235.36 291.5 258.11 285.94 279.21C282.19 292.44 282.23 287.22 285.94 301.33C291.51 322.44 285.49 345.18 270.25 360.7C260.61 370.06 263.21 365.58 259.5 379.69C254.61 398.28 241.34 413.44 224 420.81V512H487.99C501.29 512 511.99 501.3 511.99 488V160.01H375.99C362.79 160.01 351.99 149.21 351.99 136.01ZM247.42 338.28C254.82 330.75 257.71 319.78 255 309.49C249.57 288.84 249.56 291.75 255 271.07C257.71 260.79 254.82 249.81 247.42 242.28C232.56 227.16 233.99 229.67 228.55 209.01C225.84 198.73 217.95 190.69 207.84 187.94C187.56 182.41 190 183.84 175.15 168.73C167.75 161.2 156.97 158.26 146.87 161.02C126.55 166.56 129.41 166.55 109.12 161.02C99.0201 158.26 88.2401 161.21 80.8401 168.73C65.9301 183.91 68.3401 182.43 48.1501 187.94C38.0401 190.7 30.1501 198.73 27.4401 209.01C21.9801 229.75 23.4401 227.14 8.57008 242.28C1.17008 249.81 -1.71992 260.78 0.990077 271.07C6.44008 291.78 6.41008 288.86 0.990077 309.48C-1.71992 319.76 1.17008 330.74 8.57008 338.27C23.4201 353.38 22.0001 350.88 27.4401 371.54C30.1501 381.82 38.0401 389.86 48.1501 392.61C62.4601 396.51 59.6701 395.58 63.9901 397.61V512L127.99 480L191.99 512V397.62C196.3 395.6 193.51 396.52 207.83 392.62C217.94 389.86 225.83 381.83 228.54 371.55C234.01 350.81 232.55 353.42 247.42 338.28V338.28ZM128 352.01C92.6601 352.01 64.0001 323.36 64.0001 288.01C64.0001 252.66 92.6601 224.01 128 224.01C163.34 224.01 192 252.66 192 288.01C192 323.36 163.34 352.01 128 352.01Z" fill="#EA0C00"/>
</g>
<defs>
<clipPath id="clip0">
<rect width="512" height="512" fill="white"/>
</clipPath>
</defs>
</svg>
