<?xml version="1.0" encoding="utf-8"?>
<!-- Generator: Adobe Illustrator 21.0.0, SVG Export Plug-In . SVG Version: 6.00 Build 0)  -->
<svg version="1.1" id="Layer_1" xmlns="http://www.w3.org/2000/svg" xmlns:xlink="http://www.w3.org/1999/xlink" x="0px" y="0px"
	 viewBox="0 0 199 100" style="enable-background:new 0 0 199 100;" xml:space="preserve">
<style type="text/css">
	.st0{fill:#FFFFFF;}
	.st1{fill:#D8232A;}
	.st2{fill:#005093;}
	.st3{fill:#003145;}
</style>
<g>
	<path class="st0" d="M0,100h100V0H0V100z"/>
	<path class="st1" d="M66.5,50.1c0,0-3.1,0.9-9.2,4.6c-5.4,3.3-7.6,5.6-7.6,5.6L32.9,48.7c0,0,7.1-5.2,13-1.2l7.9,5.4l1-0.6L32.9,37
		c0,0,3.1-0.9,9.2-4.6c5.4-3.3,7.6-5.6,7.6-5.6l16.8,11.6c0,0-7.1,5.2-13,1.2l-7.9-5.4l-1,0.6L66.5,50.1"/>
	<path class="st2" d="M83.3,77h4.2V65.9h-4.2V77z M82.7,65.9h-5.6l-4.5,3.9v-3.9h-4.2V77h4.2v-4l4.2,4h5.7l-6.2-5.7L82.7,65.9
		 M60.9,77.3c5.1,0,6.4-1.3,6.4-4.2v-7.3h-4v6.8c0,1.1-1,1.8-2.4,1.8c-1.4,0-2.4-0.7-2.4-1.9v-6.8h-4v7.3
		C54.5,76,55.8,77.3,60.9,77.3 M53.5,65.9H40.7v2.8h6.2l-6.4,6V77h13v-2.8H47l6.5-5.9L53.5,65.9 M33.2,77.3c5.1,0,6.4-1.3,6.4-4.2
		v-7.3h-4v6.8c0,1.1-1,1.8-2.4,1.8c-1.4,0-2.4-0.7-2.4-1.9v-6.8h-4v7.3C26.8,76,28.1,77.3,33.2,77.3 M16.8,69c0-0.9,1.3-0.9,1.7-0.9
		c0.4,0,1.4,0.2,2.1,1.3h4.8c0-2.1-2-3.8-6.8-3.8c-5.4,0-6.3,2.4-6.3,3.7c0,2.5,1.9,3.2,6.1,3.7c0.4,0,2.5-0.1,2.5,1
		c0,0.8-1.2,0.8-1.7,0.8s-1.3-0.1-2-1.3H12c0,2.5,1.7,3.9,7.2,3.9c5.1,0,6.5-2.1,6.5-3.7c0-1.5-1.1-3.1-5.4-3.7
		C18.5,69.7,16.8,69.6,16.8,69"/>
	<path class="st3" d="M99,100h100V0H99V100z"/>
	<path class="st0" d="M127.5,54.8h-2.9l-0.7-9.2l-0.8,9.2h-2.8l-1.2-11.2h2.2l0.6,9.1l0.8-9.1h2.6l0.7,9.1l0.7-9.1h2L127.5,54.8z
		 M133.1,54.8l-0.4-0.8c-0.4,0.5-0.9,0.9-1.8,0.9c-1.1,0-1.8-0.7-1.8-2.6c0-1.5,0.5-2.7,2.4-2.9l0.9-0.1v-0.6c0-0.8-0.1-1.1-0.4-1.1
		s-0.4,0.4-0.4,1l-2.1-0.3c0.2-0.9,0.8-2.2,2.7-2.2c1.8,0,2.4,0.9,2.4,2.9v5.7L133.1,54.8L133.1,54.8z M132.3,53.2v-2.6l-0.4,0
		c-0.5,0-0.7,0.5-0.7,1.4c0,1.1,0.2,1.3,0.5,1.3C131.9,53.3,132.1,53.3,132.3,53.2z M139.4,55c-0.4,1.7-1.2,2.3-2.4,2.3
		c-0.4,0-0.7-0.1-1.1-0.2v-1.5c0.3,0.1,0.5,0.1,0.8,0.1c0.4,0,0.7-0.2,0.8-1h-0.7l-1.8-8.4h2.4l0.7,6.6l1-6.6h2.2L139.4,55
		 M147.9,46.2c1.7,0,2.9,1,2.9,4.4c0,3.5-1.2,4.3-2.9,4.3c-1.7,0-2.9-0.9-2.9-4.3C145,47.1,146.2,46.2,147.9,46.2L147.9,46.2z
		 M147.9,53.4c0.5,0,0.6-0.4,0.6-2.8c0-2.4-0.2-2.9-0.6-2.9s-0.6,0.5-0.6,2.9C147.2,52.9,147.4,53.4,147.9,53.4L147.9,53.4z
		 M155.6,45c-0.3-0.1-0.6-0.1-0.9-0.2c-0.5,0-0.7,0.2-0.7,0.8v0.7h1.3v1.5h-1.3v6.8h-2.2v-6.8h-0.8v-1.5h0.8v-0.6
		c0-2,0.9-2.6,2.2-2.6c0.7,0,1.2,0.1,1.5,0.2V45 M161.6,43.6V53h3.1v1.8h-5.4V43.6L161.6,43.6 M165.1,45.3h2.4v-1.9h-2.4V45.3z
		 M165.2,54.8h2.2v-8.4h-2.2V54.8z M172.5,45c-0.3-0.1-0.6-0.1-0.9-0.2c-0.5,0-0.7,0.2-0.7,0.8v0.7h1.3v1.5h-1.3v6.8h-2.2v-6.8H168
		v-1.5h0.8v-0.6c0-2,0.9-2.6,2.2-2.6c0.7,0,1.2,0.1,1.5,0.2L172.5,45 M175.7,52.3l2,0.3c-0.1,0.9-0.8,2.3-2.6,2.3
		c-1.9,0-2.7-1.3-2.7-4.3c0-3.3,0.9-4.4,2.7-4.4c2.5,0,2.6,1.9,2.6,5h-3.1c0,1.9,0.2,2.1,0.6,2.1C175.5,53.3,175.6,53,175.7,52.3z
		 M174.6,49.8h1.1c0-1.9-0.2-2.2-0.6-2.2C174.8,47.5,174.6,47.8,174.6,49.8z M178.6,54.8h2.3v-2.2h-2.3V54.8L178.6,54.8z M178.9,51
		l-0.2-7.4h2.3l-0.2,7.4H178.9z"/>
</g>
</svg>
