<svg id="Layer_1" data-name="Layer 1" xmlns="http://www.w3.org/2000/svg" viewBox="0 0 42.42 42.42"><defs><style>.cls-1{fill:#ed1c24;}.cls-2{fill:#fff;}</style></defs><title>mts_logo</title><path class="cls-1" d="M42.42,38.17a4.24,4.24,0,0,1-4.25,4.24H4.24A4.24,4.24,0,0,1,0,38.17V4.24A4.24,4.24,0,0,1,4.24,0H38.17a4.24,4.24,0,0,1,4.25,4.24ZM21.2,36.93c7.94,0,11.49-6.32,11.49-12.57,0-8.81-6.12-18.86-11.49-18.86S9.73,15.54,9.73,24.35c0,6.26,3.54,12.57,11.47,12.57"/><path class="cls-2" d="M32.68,24.38c0-8.82-6.12-18.86-11.48-18.86S9.73,15.56,9.73,24.38C9.73,30.63,13.28,37,21.2,37s11.48-6.32,11.48-12.57"/></svg>