<svg width="128" height="128" viewBox="0 0 128 128" fill="none" xmlns="http://www.w3.org/2000/svg">
<path d="M128 64C128 81.095 121.356 97.1667 109.292 109.255C97.2269 121.343 81.1864 128 64.1248 128C51.0029 128 38.3948 124.042 27.6632 116.555C20.5137 111.567 14.5291 105.26 9.98051 97.9845V111.5H0V81.5H29.9415V91.5H17.7099C27.2892 107.837 44.6997 118 64.1248 118C93.8425 118 118.019 93.7757 118.019 64H128ZM63.6257 10C83.051 10 100.462 20.1635 110.041 36.5H98.0585V46.5H127.75V16.5H117.77V30.0152C113.221 22.7397 107.237 16.433 100.087 11.445C89.3557 3.95775 76.7476 0 63.6257 0C46.5738 0 30.574 6.661 18.5735 18.7555C6.59637 30.827 0 46.895 0 64H9.98051C9.98051 34.2243 34.0455 10 63.6257 10ZM44.7511 35.25L38.2994 41.6605C35.4156 44.5495 35.1107 48.5608 36.4271 52.6285C38.7057 59.67 41.1012 65.1995 52.0753 76.1925C63.0491 87.1857 68.8633 88.966 75.6949 91.7872C77.2676 92.4367 78.7532 92.7497 80.1452 92.7497C82.6196 92.7497 84.7981 91.7602 86.6438 89.9115L93.0682 83.4492L76.5632 66.888L68.0521 75.226C65.7957 73.572 63.2402 71.3555 60.0707 68.1805C56.8647 64.969 54.4215 62.2417 52.5763 59.8085L60.8384 51.4622L44.7511 35.25Z" fill="white"/>
</svg>
