<svg width="512" height="512" viewBox="0 0 512 512" xmlns="http://www.w3.org/2000/svg">
<path fill="#136c3a" d="M296 32H488C501.255 32 512 42.745 512 56V216C512 229.255 501.255 240 488 240H296C282.745 240 272 229.255 272 216V56C272 42.745 282.745 32 296 32ZM216 32H24C10.745 32 0 42.745 0 56V216C0 229.255 10.745 240 24 240H216C229.255 240 240 229.255 240 216V56C240 42.745 229.255 32 216 32ZM0 296V456C0 469.255 10.745 480 24 480H216C229.255 480 240 469.255 240 456V296C240 282.745 229.255 272 216 272H24C10.745 272 0 282.745 0 296ZM296 480H488C501.255 480 512 469.255 512 456V296C512 282.745 501.255 272 488 272H296C282.745 272 272 282.745 272 296V456C272 469.255 282.745 480 296 480Z" />
</svg>
