<svg width="640" height="512" viewBox="0 0 640 512" fill="none" xmlns="http://www.w3.org/2000/svg">
<path d="M256 336H255.98C255.98 319.82 257.32 327.27 170.93 154.49C153.28 119.2 102.74 119.13 85.06 154.49C-2.06001 328.75 0.02 320.33 0.02 336H0C0 380.18 57.31 416 128 416C198.69 416 256 380.18 256 336ZM128 176L200 320H56L128 176ZM639.98 336C639.98 319.82 641.32 327.27 554.93 154.49C537.28 119.2 486.74 119.13 469.06 154.49C381.94 328.75 384.02 320.33 384.02 336H384C384 380.18 441.31 416 512 416C582.69 416 640 380.18 640 336H639.98ZM440 320L512 176L584 320H440ZM528 448H352V153.25C375.51 142.96 393.16 121.77 398.39 96H528C536.84 96 544 88.84 544 80V48C544 39.16 536.84 32 528 32H383.64C369.04 12.68 346.09 0 320 0C293.91 0 270.96 12.68 256.36 32H112C103.16 32 96 39.16 96 48V80C96 88.84 103.16 96 112 96H241.61C246.84 121.76 264.48 142.96 288 153.25V448H112C103.16 448 96 455.16 96 464V496C96 504.84 103.16 512 112 512H528C536.84 512 544 504.84 544 496V464C544 455.16 536.84 448 528 448Z" fill="#136c3a"/>
</svg>
