<svg viewBox="0 0 448 512" xmlns="http://www.w3.org/2000/svg">
<path fill="#458A9D" d="M432 416H16C11.7565 416 7.68687 417.686 4.68629 420.686C1.68571 423.687 0 427.757 0 432L0 464C0 468.243 1.68571 472.313 4.68629 475.314C7.68687 478.314 11.7565 480 16 480H432C436.243 480 440.313 478.314 443.314 475.314C446.314 472.313 448 468.243 448 464V432C448 427.757 446.314 423.687 443.314 420.686C440.313 417.686 436.243 416 432 416ZM432 288H16C11.7565 288 7.68687 289.686 4.68629 292.686C1.68571 295.687 0 299.757 0 304L0 336C0 340.243 1.68571 344.313 4.68629 347.314C7.68687 350.314 11.7565 352 16 352H432C436.243 352 440.313 350.314 443.314 347.314C446.314 344.313 448 340.243 448 336V304C448 299.757 446.314 295.687 443.314 292.686C440.313 289.686 436.243 288 432 288ZM432 160H16C11.7565 160 7.68687 161.686 4.68629 164.686C1.68571 167.687 0 171.757 0 176L0 208C0 212.243 1.68571 216.313 4.68629 219.314C7.68687 222.314 11.7565 224 16 224H432C436.243 224 440.313 222.314 443.314 219.314C446.314 216.313 448 212.243 448 208V176C448 171.757 446.314 167.687 443.314 164.686C440.313 161.686 436.243 160 432 160ZM432 32H16C11.7565 32 7.68687 33.6857 4.68629 36.6863C1.68571 39.6869 0 43.7565 0 48L0 80C0 84.2435 1.68571 88.3131 4.68629 91.3137C7.68687 94.3143 11.7565 96 16 96H432C436.243 96 440.313 94.3143 443.314 91.3137C446.314 88.3131 448 84.2435 448 80V48C448 43.7565 446.314 39.6869 443.314 36.6863C440.313 33.6857 436.243 32 432 32V32Z" />
</svg>
