<svg width="260" height="140" viewBox="0 0 260 140" fill="none" xmlns="http://www.w3.org/2000/svg">
<path d="M0 107.919V2.00002H18.281V107.919H0ZM32 107.918V32.999H50.288V107.918H32V107.918ZM53.311 11.153C53.311 17.315 48.317 22.312 42.152 22.312C35.998 22.312 30.999 17.315 30.999 11.153C30.999 4.99102 35.998 -0.000976562 42.152 -0.000976562C48.317 -0.000976562 53.311 4.99102 53.311 11.153V11.153ZM100.11 17.237C93.426 17.237 88.899 20.871 88.899 28.862V32.904H108.962V47.308H89.472V107.918H71.354V47.308H60.999V32.904H71.354V27.138C71.354 17.402 73.532 12.172 77.601 8.10402C81.673 4.03502 87.979 1.99902 95.535 1.99902C101.645 1.99902 105.22 2.87102 109.144 4.03502V18.725C109.144 18.725 105.703 17.237 100.109 17.237H100.11ZM147.142 30C178.977 30 184.725 56.729 182.531 75.007L127.487 74.974C129.054 87.548 138.006 94.029 149.335 94.029L149.948 94.014C161.243 94.014 168.902 87.49 170.805 85.692L180.559 94.353C173.262 103.108 163.2 108.795 149.041 108.795C126.716 108.795 109.5 93.549 109.5 68.525C109.5 46.745 124.378 30.002 147.14 30.002L147.142 30ZM127.751 62.336H165.591C165.41 50.969 157.768 44.802 147 44.802C137.167 44.802 129.575 50.862 127.752 62.336H127.751ZM220.176 96.415C220.176 103.253 214.639 108.787 207.8 108.787C200.965 108.787 195.423 103.253 195.423 96.415C195.423 89.579 200.964 84.036 207.8 84.036C214.639 84.036 220.176 89.578 220.176 96.415ZM220.176 42.674C220.176 49.509 214.639 55.052 207.8 55.052C200.965 55.052 195.423 49.51 195.423 42.674C195.423 35.842 200.964 30.296 207.8 30.296C214.639 30.296 220.176 35.841 220.176 42.674ZM234.724 0.0900234C250.233 18.162 259.543 44.247 259.543 69.543C259.543 94.841 250.233 120.931 234.724 139.001L224.507 131.431C235.445 112.111 240.927 94.222 240.927 69.544C240.927 44.874 235.445 26.983 224.507 7.65702L234.724 0.0910234V0.0900234Z" fill="#FF2F00"/>
</svg>
