<svg width="144" height="36" viewBox="0 0 144 36" version="1.1" xmlns="http://www.w3.org/2000/svg" xmlns:xlink="http://www.w3.org/1999/xlink">
<title>logo_big</title>
<desc>Created using Figma</desc>
<g id="Canvas" transform="translate(-1136 190)">
<g id="logo_big">
<use xlink:href="#path0_fill" transform="translate(1135 -200)" fill="#F7A80F"/>
<use xlink:href="#path1_fill" transform="translate(1135 -200)"/>
</g>
</g>
<defs>
<path id="path0_fill" d="M 24.8438 16.6172L 16.4062 16.6172L 16.4062 45L 9.49219 45L 9.49219 16.6172L 1.19531 16.6172L 1.19531 10.875L 24.8438 10.875L 24.8438 16.6172ZM 51.2812 16.6172L 42.8438 16.6172L 42.8438 45L 35.9297 45L 35.9297 16.6172L 27.6328 16.6172L 27.6328 10.875L 51.2812 10.875L 51.2812 16.6172ZM 55.2422 45L 55.2422 10.875L 64.2656 10.875C 68.25 10.875 71.4219 12.1406 73.7812 14.6719C 76.1562 17.2031 77.3672 20.6719 77.4141 25.0781L 77.4141 30.6094C 77.4141 35.0938 76.2266 38.6172 73.8516 41.1797C 71.4922 43.7266 68.2344 45 64.0781 45L 55.2422 45ZM 62.1328 16.6172L 62.1328 39.2812L 64.1953 39.2812C 66.4922 39.2812 68.1094 38.6797 69.0469 37.4766C 69.9844 36.2578 70.4766 34.1641 70.5234 31.1953L 70.5234 25.2656C 70.5234 22.0781 70.0781 19.8594 69.1875 18.6094C 68.2969 17.3438 66.7812 16.6797 64.6406 16.6172L 62.1328 16.6172Z"/>
<path id="path1_fill" d="M 82.5938 41.625C 82.5938 40.5625 82.9453 39.6875 83.6484 39C 84.3672 38.3125 85.2969 37.9688 86.4375 37.9688C 87.5469 37.9688 88.4688 38.3125 89.2031 39C 89.9375 39.6719 90.3047 40.5469 90.3047 41.625C 90.3047 42.7188 89.9297 43.6016 89.1797 44.2734C 88.4453 44.9297 87.5312 45.2578 86.4375 45.2578C 85.3281 45.2578 84.4062 44.9219 83.6719 44.25C 82.9531 43.5781 82.5938 42.7031 82.5938 41.625ZM 96.3516 45L 96.3516 10.875L 106.898 10.875C 110.461 10.875 113.164 11.6719 115.008 13.2656C 116.867 14.8437 117.797 17.1641 117.797 20.2266C 117.797 21.9609 117.414 23.4531 116.648 24.7031C 115.883 25.9531 114.836 26.8672 113.508 27.4453C 115.039 27.8828 116.219 28.7656 117.047 30.0938C 117.875 31.4062 118.289 33.0312 118.289 34.9688C 118.289 38.2812 117.375 40.7812 115.547 42.4688C 113.734 44.1562 111.102 45 107.648 45L 96.3516 45ZM 103.242 30.1641L 103.242 39.2812L 107.648 39.2812C 108.883 39.2812 109.82 38.8984 110.461 38.1328C 111.102 37.3672 111.422 36.2812 111.422 34.875C 111.422 31.8125 110.312 30.2422 108.094 30.1641L 103.242 30.1641ZM 103.242 25.1484L 106.828 25.1484C 109.531 25.1484 110.883 23.75 110.883 20.9531C 110.883 19.4062 110.57 18.2969 109.945 17.625C 109.32 16.9531 108.305 16.6172 106.898 16.6172L 103.242 16.6172L 103.242 25.1484ZM 132.281 26.2031L 137.414 10.875L 144.914 10.875L 135.773 32.625L 135.773 45L 128.789 45L 128.789 32.625L 119.625 10.875L 127.125 10.875L 132.281 26.2031Z"/>
</defs>
</svg>
