<?xml version="1.0" encoding="UTF-8" standalone="no"?><!DOCTYPE svg PUBLIC "-//W3C//DTD SVG 1.1//EN" "http://www.w3.org/Graphics/SVG/1.1/DTD/svg11.dtd"><svg width="100%" height="100%" viewBox="0 0 147 72" version="1.1" xmlns="http://www.w3.org/2000/svg" xmlns:xlink="http://www.w3.org/1999/xlink" xml:space="preserve" xmlns:serif="http://www.serif.com/" style="fill-rule:evenodd;clip-rule:evenodd;stroke-linejoin:round;stroke-miterlimit:1.41421;"><g><g><path d="M0,7.204l0,-5.559l19.044,0l0,5.559l-4.927,0.947l0,13.896l4.39,0c0.442,-6.148 2.537,-11.19 6.285,-15.128c3.747,-3.937 8.537,-5.905 14.369,-5.905c6.232,0 11.28,2.21 15.144,6.632c3.863,4.421 5.795,9.98 5.795,16.675l0,0.695c0,6.737 -1.927,12.306 -5.78,16.706c-3.853,4.401 -8.895,6.601 -15.127,6.601c-5.538,0 -10.148,-1.774 -13.833,-5.322c-3.684,-3.547 -5.906,-8.163 -6.664,-13.848l-4.579,0l0,12.001l4.927,0.947l0,5.527l-19.044,0l0,-5.527l4.927,-0.947l0,-33.003l-4.927,-0.947Zm50.91,17.054c0,-4.758 -0.99,-8.622 -2.969,-11.591c-1.979,-2.968 -4.906,-4.453 -8.78,-4.453c-3.874,0 -6.764,1.474 -8.669,4.422c-1.905,2.947 -2.858,6.821 -2.858,11.622l0,0.758c0,4.842 0.963,8.743 2.89,11.701c1.926,2.958 4.816,4.437 8.669,4.437c3.895,0 6.821,-1.479 8.779,-4.437c1.959,-2.958 2.938,-6.859 2.938,-11.701l0,-0.758Z" style="fill:#2060a5;fill-rule:nonzero;"/><path d="M63.669,42.101l4.895,-0.947l0,-33.003l-4.895,-0.947l0,-5.559l18.791,0l0,5.559l-4.674,0.947l0,12.285l4.137,0l8.621,-12.411c1.832,-2.569 3.453,-4.348 4.864,-5.337c1.411,-0.99 3.285,-1.485 5.622,-1.485c1.073,0 2.073,0.148 3,0.442c0.926,0.295 1.779,0.685 2.558,1.169l-1.548,6.916c-0.673,-0.147 -1.131,-0.247 -1.373,-0.3c-0.242,-0.052 -0.574,-0.079 -0.995,-0.079c-0.969,0 -1.864,0.274 -2.685,0.821c-0.821,0.548 -1.81,1.569 -2.968,3.064l-7.201,9.853l12.727,18.223l4.832,0.789l0,5.527l-18.222,0l0,-5.527l2.621,-0.379l-8.59,-12.916l-5.4,0l0,12.348l4.674,0.947l0,5.527l-18.791,0l0,-5.527Z" style="fill:#2060a5;fill-rule:nonzero;"/><path d="M146.602,17.152l-6.853,0l-0.948,-6.127c-0.905,-0.905 -2.047,-1.621 -3.426,-2.147c-1.379,-0.527 -3.006,-0.79 -4.88,-0.79c-4,0 -7.079,1.453 -9.237,4.358c-2.158,2.906 -3.238,6.696 -3.238,11.37l0,1.61c0,4.674 1.074,8.475 3.222,11.401c2.147,2.927 5.179,4.39 9.095,4.39c1.811,0 3.469,-0.263 4.974,-0.789c1.506,-0.527 2.669,-1.243 3.49,-2.148l0.948,-6.127l6.853,0l0,9.096c-1.853,2.147 -4.216,3.858 -7.09,5.132c-2.874,1.274 -6.09,1.91 -9.648,1.91c-6.169,0 -11.222,-2.137 -15.16,-6.411c-3.937,-4.274 -5.905,-9.758 -5.905,-16.454l0,-1.547c0,-6.674 1.958,-12.159 5.874,-16.454c3.916,-4.295 8.98,-6.443 15.191,-6.443c3.558,0 6.769,0.648 9.632,1.942c2.863,1.295 5.232,3.006 7.106,5.132l0,9.096Z" style="fill:#2060a5;fill-rule:nonzero;"/></g><g><path d="M5.289,57.181c1.188,0 2.116,0.256 2.785,0.769c0.67,0.513 1.004,1.283 1.004,2.309c0,0.505 -0.16,0.957 -0.48,1.356c-0.32,0.398 -0.744,0.694 -1.27,0.886c0.683,0.146 1.222,0.482 1.618,1.008c0.395,0.526 0.593,1.138 0.593,1.836c0,1.042 -0.338,1.837 -1.015,2.387c-0.677,0.549 -1.594,0.824 -2.75,0.824l-5.469,0l0,-0.984l1.273,-0.219l0,-8.961l-1.273,-0.219l0,-0.992l4.984,0Zm-2.172,6.039l0,4.133l2.657,0c0.703,0 1.248,-0.173 1.636,-0.52c0.388,-0.346 0.582,-0.837 0.582,-1.472c0,-0.667 -0.162,-1.19 -0.488,-1.571c-0.325,-0.38 -0.824,-0.57 -1.496,-0.57l-2.891,0Zm0,-1.203l2.571,0c0.552,-0.016 0.998,-0.18 1.34,-0.492c0.341,-0.313 0.511,-0.745 0.511,-1.297c0,-0.615 -0.192,-1.074 -0.578,-1.379c-0.385,-0.305 -0.942,-0.457 -1.672,-0.457l-2.172,0l0,3.625Z" style="fill:#fd17e1;fill-rule:nonzero;"/><path d="M14.75,67.517c0.511,0 0.96,-0.158 1.348,-0.473c0.388,-0.315 0.582,-0.702 0.582,-1.16l1.383,0l0.015,0.047c0.026,0.729 -0.298,1.376 -0.972,1.941c-0.675,0.565 -1.46,0.848 -2.356,0.848c-1.229,0 -2.168,-0.401 -2.816,-1.203c-0.649,-0.802 -0.973,-1.81 -0.973,-3.024l0,-0.328c0,-1.203 0.326,-2.207 0.977,-3.011c0.651,-0.805 1.588,-1.207 2.812,-1.207c0.677,0 1.285,0.112 1.824,0.335c0.54,0.224 0.986,0.532 1.34,0.922l0.071,1.875l-1.227,0l-0.336,-1.328c-0.182,-0.177 -0.417,-0.32 -0.703,-0.429c-0.286,-0.11 -0.609,-0.165 -0.969,-0.165c-0.807,0 -1.384,0.291 -1.73,0.872c-0.347,0.58 -0.52,1.293 -0.52,2.136l0,0.328c0,0.865 0.172,1.585 0.516,2.161c0.344,0.575 0.922,0.863 1.734,0.863Z" style="fill:#fd17e1;fill-rule:nonzero;"/><path d="M23.438,68.72c-1.177,0 -2.114,-0.392 -2.809,-1.176c-0.695,-0.784 -1.043,-1.801 -1.043,-3.051l0,-0.343c0,-1.203 0.358,-2.205 1.074,-3.004c0.717,-0.8 1.564,-1.199 2.543,-1.199c1.136,0 1.996,0.343 2.582,1.031c0.586,0.687 0.879,1.604 0.879,2.75l0,0.961l-5.484,0l-0.023,0.039c0.015,0.812 0.221,1.48 0.617,2.004c0.396,0.523 0.95,0.785 1.664,0.785c0.521,0 0.978,-0.074 1.371,-0.223c0.393,-0.148 0.733,-0.353 1.019,-0.613l0.602,1c-0.302,0.292 -0.702,0.538 -1.199,0.738c-0.498,0.201 -1.095,0.301 -1.793,0.301Zm-0.235,-7.563c-0.515,0 -0.955,0.218 -1.32,0.653c-0.364,0.435 -0.588,0.98 -0.672,1.637l0.016,0.039l3.898,0l0,-0.204c0,-0.604 -0.161,-1.109 -0.484,-1.515c-0.323,-0.406 -0.802,-0.61 -1.438,-0.61Zm2.563,-2.601l-1.703,0l0,-1.563l1.703,0l0,1.563Zm-3.672,0l-1.703,0l0,-1.563l1.703,0l0,1.563Z" style="fill:#fd17e1;fill-rule:nonzero;"/><path d="M32.219,67.572l1.273,-0.219l0,-6.039l-1.273,-0.219l0,-0.992l9.391,0l0,0.992l-1.274,0.219l0,6.039l1.274,0.219l0,0.984l-4.086,0l0,-0.984l1.273,-0.219l0,-6.031l-3.765,0l0,6.031l1.273,0.219l0,0.984l-4.086,0l0,-0.984Z" style="fill:#fd17e1;fill-rule:nonzero;"/><path d="M43.071,64.251c0,-1.25 0.338,-2.28 1.015,-3.09c0.677,-0.81 1.597,-1.214 2.758,-1.214c1.167,0 2.09,0.403 2.77,1.21c0.679,0.808 1.019,1.839 1.019,3.094l0,0.172c0,1.261 -0.338,2.292 -1.016,3.094c-0.677,0.802 -1.596,1.203 -2.757,1.203c-1.172,0 -2.097,-0.402 -2.774,-1.207c-0.677,-0.805 -1.015,-1.835 -1.015,-3.09l0,-0.172Zm1.539,0.172c0,0.896 0.188,1.636 0.566,2.219c0.378,0.583 0.939,0.875 1.684,0.875c0.729,0 1.284,-0.292 1.664,-0.875c0.38,-0.583 0.57,-1.323 0.57,-2.219l0,-0.172c0,-0.885 -0.19,-1.622 -0.57,-2.211c-0.38,-0.588 -0.94,-0.883 -1.68,-0.883c-0.74,0 -1.297,0.295 -1.672,0.883c-0.375,0.589 -0.562,1.326 -0.562,2.211l0,0.172Z" style="fill:#fd17e1;fill-rule:nonzero;"/><path d="M56.024,64.251c0,-1.25 0.338,-2.28 1.015,-3.09c0.677,-0.81 1.597,-1.214 2.758,-1.214c1.167,0 2.09,0.403 2.77,1.21c0.679,0.808 1.019,1.839 1.019,3.094l0,0.172c0,1.261 -0.338,2.292 -1.015,3.094c-0.677,0.802 -1.597,1.203 -2.758,1.203c-1.172,0 -2.097,-0.402 -2.774,-1.207c-0.677,-0.805 -1.015,-1.835 -1.015,-3.09l0,-0.172Zm1.539,0.172c0,0.896 0.189,1.636 0.566,2.219c0.378,0.583 0.939,0.875 1.684,0.875c0.729,0 1.284,-0.292 1.664,-0.875c0.38,-0.583 0.57,-1.323 0.57,-2.219l0,-0.172c0,-0.885 -0.19,-1.622 -0.57,-2.211c-0.38,-0.588 -0.94,-0.883 -1.68,-0.883c-0.739,0 -1.297,0.295 -1.672,0.883c-0.375,0.589 -0.562,1.326 -0.562,2.211l0,0.172Z" style="fill:#fd17e1;fill-rule:nonzero;"/><path d="M64.914,67.353c0.433,-0.5 0.763,-1.022 0.993,-1.567c0.229,-0.544 0.382,-1.379 0.46,-2.504l0.079,-1.976l-1.227,-0.211l0,-0.992l8.07,0l0,0.992l-1.273,0.219l0,6.039l1.125,0l-0.156,3.687l-1.383,0l0,-2.484l-5.82,0l0,2.484l-1.383,0l-0.149,-3.687l0.664,0Zm2.993,-4.071c-0.058,0.938 -0.192,1.737 -0.403,2.399c-0.211,0.661 -0.483,1.219 -0.816,1.672l3.789,0l0,-5.883l-2.5,0l-0.07,1.812Z" style="fill:#fd17e1;fill-rule:nonzero;"/><path d="M74.68,61.095l0,-0.992l4.086,0l0,0.992l-1.274,0.219l0,2.445l3.758,0l0,-2.445l-1.273,-0.219l0,-0.992l4.094,0l0,0.992l-1.274,0.219l0,6.039l1.274,0.219l0,0.984l-4.094,0l0,-0.984l1.273,-0.219l0,-2.391l-3.758,0l0,2.391l1.274,0.219l0,0.984l-4.086,0l0,-0.984l1.273,-0.219l0,-6.039l-1.273,-0.219Z" style="fill:#fd17e1;fill-rule:nonzero;"/><path d="M85.524,64.251c0,-1.25 0.338,-2.28 1.015,-3.09c0.677,-0.81 1.597,-1.214 2.758,-1.214c1.167,0 2.09,0.403 2.77,1.21c0.679,0.808 1.019,1.839 1.019,3.094l0,0.172c0,1.261 -0.338,2.292 -1.015,3.094c-0.677,0.802 -1.597,1.203 -2.758,1.203c-1.172,0 -2.097,-0.402 -2.774,-1.207c-0.677,-0.805 -1.015,-1.835 -1.015,-3.09l0,-0.172Zm1.539,0.172c0,0.896 0.189,1.636 0.566,2.219c0.378,0.583 0.939,0.875 1.684,0.875c0.729,0 1.284,-0.292 1.664,-0.875c0.38,-0.583 0.57,-1.323 0.57,-2.219l0,-0.172c0,-0.885 -0.19,-1.622 -0.57,-2.211c-0.38,-0.588 -0.94,-0.883 -1.68,-0.883c-0.739,0 -1.297,0.295 -1.672,0.883c-0.375,0.589 -0.562,1.326 -0.562,2.211l0,0.172Z" style="fill:#fd17e1;fill-rule:nonzero;"/><path d="M98.633,60.103l0,0.992l-1.273,0.219l0,4.773l0.047,0.016l3.726,-6l2.813,0l0,0.992l-1.274,0.219l0,6.039l1.274,0.219l0,0.984l-4.086,0l0,-0.984l1.273,-0.219l0,-4.781l-0.047,-0.016l-3.726,6l-2.805,0l0,-0.984l1.273,-0.219l0,-6.039l-1.273,-0.219l0,-0.992l4.078,0Zm2.992,-3.594l0.016,0.047c0.021,0.604 -0.18,1.096 -0.602,1.476c-0.422,0.381 -0.989,0.571 -1.703,0.571c-0.719,0 -1.289,-0.19 -1.711,-0.571c-0.422,-0.38 -0.62,-0.872 -0.593,-1.476l0.015,-0.047l1.172,0c0,0.339 0.09,0.616 0.27,0.832c0.179,0.216 0.462,0.324 0.847,0.324c0.375,0 0.654,-0.108 0.836,-0.324c0.182,-0.216 0.274,-0.493 0.274,-0.832l1.179,0Z" style="fill:#fd17e1;fill-rule:nonzero;"/><path d="M117.344,60.103l0,7.25l1.039,0l-0.148,3.711l-1.375,0l0,-2.508l-7.633,0l0,-0.984l1.273,-0.219l0,-6.039l-1.273,-0.219l0,-0.992l4.086,0l0,0.992l-1.274,0.219l0,6.039l3.766,0l0,-6.039l-1.273,-0.219l0,-0.992l2.812,0Zm1.273,0l0,0.992l-1.273,0.219l0,-1.211l1.273,0Z" style="fill:#fd17e1;fill-rule:nonzero;"/><path d="M123.875,68.72c-1.177,0 -2.113,-0.392 -2.808,-1.176c-0.696,-0.784 -1.043,-1.801 -1.043,-3.051l0,-0.343c0,-1.203 0.358,-2.205 1.074,-3.004c0.716,-0.8 1.564,-1.199 2.543,-1.199c1.135,0 1.996,0.343 2.582,1.031c0.586,0.687 0.879,1.604 0.879,2.75l0,0.961l-5.485,0l-0.023,0.039c0.016,0.812 0.221,1.48 0.617,2.004c0.396,0.523 0.951,0.785 1.664,0.785c0.521,0 0.978,-0.074 1.371,-0.223c0.394,-0.148 0.733,-0.353 1.02,-0.613l0.601,1c-0.302,0.292 -0.701,0.538 -1.199,0.738c-0.497,0.201 -1.095,0.301 -1.793,0.301Zm-0.234,-7.563c-0.516,0 -0.956,0.218 -1.32,0.653c-0.365,0.435 -0.589,0.98 -0.672,1.637l0.015,0.039l3.899,0l0,-0.204c0,-0.604 -0.162,-1.109 -0.485,-1.515c-0.323,-0.406 -0.802,-0.61 -1.437,-0.61Z" style="fill:#fd17e1;fill-rule:nonzero;"/><path d="M128.68,61.095l0,-0.992l4.086,0l0,0.992l-1.274,0.219l0,2.445l3.758,0l0,-2.445l-1.273,-0.219l0,-0.992l4.094,0l0,0.992l-1.274,0.219l0,6.039l1.274,0.219l0,0.984l-4.094,0l0,-0.984l1.273,-0.219l0,-2.391l-3.758,0l0,2.391l1.274,0.219l0,0.984l-4.086,0l0,-0.984l1.273,-0.219l0,-6.039l-1.273,-0.219Z" style="fill:#fd17e1;fill-rule:nonzero;"/><path d="M143.375,68.72c-1.177,0 -2.113,-0.392 -2.808,-1.176c-0.696,-0.784 -1.043,-1.801 -1.043,-3.051l0,-0.343c0,-1.203 0.358,-2.205 1.074,-3.004c0.716,-0.8 1.564,-1.199 2.543,-1.199c1.135,0 1.996,0.343 2.582,1.031c0.586,0.687 0.879,1.604 0.879,2.75l0,0.961l-5.485,0l-0.023,0.039c0.016,0.812 0.221,1.48 0.617,2.004c0.396,0.523 0.951,0.785 1.664,0.785c0.521,0 0.978,-0.074 1.371,-0.223c0.394,-0.148 0.733,-0.353 1.02,-0.613l0.601,1c-0.302,0.292 -0.701,0.538 -1.199,0.738c-0.497,0.201 -1.095,0.301 -1.793,0.301Zm-0.234,-7.563c-0.516,0 -0.956,0.218 -1.32,0.653c-0.365,0.435 -0.589,0.98 -0.672,1.637l0.015,0.039l3.899,0l0,-0.204c0,-0.604 -0.162,-1.109 -0.485,-1.515c-0.323,-0.406 -0.802,-0.61 -1.437,-0.61Z" style="fill:#fd17e1;fill-rule:nonzero;"/></g></g></svg>