<svg id="Layer_1" data-name="Layer 1" xmlns="http://www.w3.org/2000/svg" viewBox="0 0 679.92 95"><defs><style>.cls-1{fill:#411f02;}.cls-2{fill:#fff;}</style></defs><title>logo_big</title><path class="cls-1" d="M158.41,28.76H133.47v9.13h7.16a29.58,29.58,0,0,1,12.1,2.33,18.35,18.35,0,0,1,8.08,6.58,17.19,17.19,0,0,1,2.83,9.75,17.16,17.16,0,0,1-6.31,13.8q-6.31,5.3-16.94,5.3H119.51V18.09h38.9ZM133.47,48.57V65h7.12a9.27,9.27,0,0,0,6.7-2.37,8.12,8.12,0,0,0,2.47-6.13,7.3,7.3,0,0,0-2.45-5.73,9.9,9.9,0,0,0-6.8-2.17Z"/><path class="cls-1" d="M207.8,51.22H186V65h25.78V75.65H172.1V18.09h39.73V28.8H186V40.94H207.8Z"/><path class="cls-1" d="M267.86,18.09V75.65H254V28.8H241.06l-.95,19.33q-.59,10-2.77,16t-6.19,8.72q-4,2.75-10.93,2.83h-3.72V65l1.94-.2q4.15-.59,6-5.08t2.41-15.12l1-26.49Z"/><path class="cls-1" d="M327.29,48.05A34,34,0,0,1,324.17,63a23.11,23.11,0,0,1-8.87,10,24.73,24.73,0,0,1-13.11,3.5,25,25,0,0,1-13-3.38,23,23,0,0,1-8.87-9.67A33,33,0,0,1,276.93,49V45.72A34.07,34.07,0,0,1,280,30.8a23,23,0,0,1,8.89-10,26.33,26.33,0,0,1,26.23,0,23.46,23.46,0,0,1,8.92,9.9,33.14,33.14,0,0,1,3.22,14.73Zm-14.11-2.41q0-8.58-2.87-13a9.19,9.19,0,0,0-8.2-4.45q-10.44,0-11,15.66l0,4.23q0,8.46,2.81,13a9.18,9.18,0,0,0,8.34,4.55,9.07,9.07,0,0,0,8.1-4.47q2.85-4.47,2.89-12.85Z"/><path class="cls-1" d="M350.35,56.12V75.65H336.47V18.09h23a26.73,26.73,0,0,1,11.68,2.43A18.33,18.33,0,0,1,379,27.43a18.91,18.91,0,0,1,2.79,10.18,16.66,16.66,0,0,1-6,13.46q-6,5-16.55,5Zm0-10.71h9.09a8.57,8.57,0,0,0,6.15-2,7.49,7.49,0,0,0,2.12-5.69,9.27,9.27,0,0,0-2.17-6.44,7.7,7.7,0,0,0-5.93-2.45h-9.25Z"/><path class="cls-1" d="M413.54,43.07v0l9.53-25h14.63L418.32,63.75q-3.12,6.92-7,9.75a16,16,0,0,1-9.11,3h-2.81l-2.13-.08L397,65.65a13.12,13.12,0,0,0,2.77.16,8.53,8.53,0,0,0,4.76-1.09,7.75,7.75,0,0,0,2.59-4.21l.67-1.9L387,18.09h14.75Z"/><path class="cls-1" d="M490.09,56.16a21,21,0,0,1-3.24,10.62,19.55,19.55,0,0,1-8.32,7.14,28.32,28.32,0,0,1-12.24,2.53q-11.35,0-17.87-7.39t-6.52-20.87V45.33a34.84,34.84,0,0,1,2.95-14.81,22.32,22.32,0,0,1,8.48-9.8,23.66,23.66,0,0,1,12.81-3.46q10.48,0,16.84,5.51T490.2,38H476.37q-.16-5.26-2.65-7.55t-7.59-2.29q-5.18,0-7.59,3.87T456,44.38v4.07q0,9.21,2.31,13.17t8,4q4.78,0,7.31-2.25t2.69-7.16Z"/><path class="cls-1" d="M552.52,89.8H540.07V75.65H508.72V89.76H495.87l-1-24.79h4.07q3.2-2.13,5.16-7.33t2.79-14.92l1.78-24.63h39.18V65H554ZM514.65,65H534V28.8H521.76l-1.07,14.39Q519.51,57.19,514.65,65Z"/><path class="cls-1" d="M608.59,48.05A34,34,0,0,1,605.47,63a23.11,23.11,0,0,1-8.87,10,24.73,24.73,0,0,1-13.11,3.5,25,25,0,0,1-13-3.38,23,23,0,0,1-8.87-9.67A33,33,0,0,1,558.22,49V45.72a34.07,34.07,0,0,1,3.1-14.92,23,23,0,0,1,8.89-10,26.33,26.33,0,0,1,26.23,0,23.46,23.46,0,0,1,8.92,9.9,33.14,33.14,0,0,1,3.22,14.73Zm-14.11-2.41q0-8.58-2.87-13a9.19,9.19,0,0,0-8.2-4.45q-10.44,0-11,15.66l0,4.23q0,8.46,2.81,13a9.18,9.18,0,0,0,8.34,4.55,9.07,9.07,0,0,0,8.1-4.47q2.85-4.47,2.89-12.85Z"/><path class="cls-1" d="M636,18.09l12.85,40,12.81-40h18.27V75.65H666V62.21l1.34-27.52-13.92,41h-9.17l-14-41,1.34,27.56V75.65H617.77V18.09Z"/><rect class="cls-1" width="86" height="95"/><polygon class="cls-1" points="86 0 86 34.51 42.5 8.62 0 33.91 0 0 86 0"/><polygon class="cls-2" points="0 45.55 42.5 20.26 86 46.14 86 34.51 42.5 8.62 0 33.91 0 45.55"/><rect class="cls-2" x="64.5" y="12.6" width="10" height="17.4"/><polygon class="cls-2" points="52.59 72.09 49.85 72.09 49.85 69.35 47.11 69.35 47.11 66.61 44.37 66.61 44.37 63.87 41.63 63.87 41.63 66.61 38.89 66.61 38.89 69.35 36.15 69.35 36.15 72.09 33.41 72.09 33.41 74.84 30.66 74.84 30.66 85.8 33.41 85.8 33.41 83.06 36.15 83.06 36.15 80.32 38.89 80.32 38.89 77.58 41.63 77.58 41.63 74.84 44.37 74.84 44.37 77.58 47.11 77.58 47.11 80.32 49.85 80.32 49.85 83.06 52.59 83.06 52.59 85.8 55.34 85.8 55.34 74.84 52.59 74.84 52.59 72.09"/><polygon class="cls-2" points="58.08 61.13 58.08 58.39 60.82 58.39 60.82 55.65 63.56 55.65 63.56 52.91 66.3 52.91 66.3 50.16 55.34 50.16 55.34 52.91 52.59 52.91 52.59 55.65 49.85 55.65 49.85 58.39 47.11 58.39 47.11 61.13 44.37 61.13 44.37 63.87 47.11 63.87 47.11 66.61 49.85 66.61 49.85 69.35 52.59 69.35 52.59 72.09 55.34 72.09 55.34 74.84 66.3 74.84 66.3 72.09 63.56 72.09 63.56 69.35 60.82 69.35 60.82 66.61 58.08 66.61 58.08 63.87 55.34 63.87 55.34 61.13 58.08 61.13"/><polygon class="cls-2" points="33.41 52.91 36.15 52.91 36.15 55.65 38.89 55.65 38.89 58.39 41.63 58.39 41.63 61.13 44.37 61.13 44.37 58.39 47.11 58.39 47.11 55.65 49.85 55.65 49.85 52.91 52.59 52.91 52.59 50.16 55.34 50.16 55.34 39.2 52.59 39.2 52.59 41.94 49.85 41.94 49.85 44.68 47.11 44.68 47.11 47.42 44.37 47.42 44.37 50.16 41.63 50.16 41.63 47.42 38.89 47.42 38.89 44.68 36.15 44.68 36.15 41.94 33.41 41.94 33.41 39.2 30.66 39.2 30.66 50.16 33.41 50.16 33.41 52.91"/><polygon class="cls-2" points="33.41 72.09 33.41 69.35 36.15 69.35 36.15 66.61 38.89 66.61 38.89 63.87 41.63 63.87 41.63 61.13 38.89 61.13 38.89 58.39 36.15 58.39 36.15 55.65 33.41 55.65 33.41 52.91 30.66 52.91 30.66 50.16 19.7 50.16 19.7 52.91 22.44 52.91 22.44 55.65 25.18 55.65 25.18 58.39 27.92 58.39 27.92 61.13 30.66 61.13 30.66 63.87 27.92 63.87 27.92 66.61 25.18 66.61 25.18 69.35 22.44 69.35 22.44 72.09 19.7 72.09 19.7 74.84 30.66 74.84 30.66 72.09 33.41 72.09"/></svg>