<svg id="Слой_1" data-name="Слой 1" xmlns="http://www.w3.org/2000/svg" viewBox="0 0 131.55 54.29"><defs><style>.cls-1{fill:#f9b000;}.cls-2{fill:#1d1d1b;}.cls-3{fill:#fff;}</style></defs><title>logo</title><circle class="cls-1" cx="25.36" cy="28.92" r="25.36"/><path class="cls-2" d="M54.18,3.08a3.3,3.3,0,0,1-.24,1.27,2.84,2.84,0,0,1-.66,1,2.9,2.9,0,0,1-1,.63,3.83,3.83,0,0,1-1.33.22H48.14v4.33H47V0h3.91a3.85,3.85,0,0,1,1.33.22,2.9,2.9,0,0,1,1,.63,2.86,2.86,0,0,1,.66,1A3.24,3.24,0,0,1,54.18,3.08Zm-1.12,0a2,2,0,0,0-.58-1.55A2.3,2.3,0,0,0,50.83,1H48.14V5.2h2.69a2.28,2.28,0,0,0,1.64-.56A2,2,0,0,0,53.06,3.08Z"/><path class="cls-2" d="M55.26,7.16c0,.33,0,.59.07.77a2,2,0,0,0,.16.54,1.94,1.94,0,0,0,2,1.2,2.27,2.27,0,0,0,.48-.05,3.92,3.92,0,0,0,.45-.12,2.65,2.65,0,0,0,.43-.23,3.93,3.93,0,0,0,.48-.42l.72.63a6.59,6.59,0,0,1-.65.56,2.83,2.83,0,0,1-.58.31,3.7,3.7,0,0,1-1.4.25,3,3,0,0,1-2.4-1,4.18,4.18,0,0,1-.82-2.81,5.18,5.18,0,0,1,.21-1.54A3.43,3.43,0,0,1,55,4.14a2.57,2.57,0,0,1,.94-.73,3,3,0,0,1,1.25-.25,3.08,3.08,0,0,1,1.25.24,2.56,2.56,0,0,1,.94.7A3.26,3.26,0,0,1,60,5.21a4.84,4.84,0,0,1,.2,1.46v.49Zm3.84-.8c0-.14,0-.25,0-.35s0-.17,0-.24,0-.13,0-.18L59,5.4a1.89,1.89,0,0,0-.67-1,1.82,1.82,0,0,0-1.12-.35,1.87,1.87,0,0,0-1,.29,1.75,1.75,0,0,0-.67.8,1.73,1.73,0,0,0-.1.24,2.06,2.06,0,0,0-.06.25,3.12,3.12,0,0,0,0,.31l0,.41Z"/><path class="cls-2" d="M61,10.51V3.25h1V9.6h3V3.25h1.08V9.6h3V3.25h1.08v7.27Z"/><path class="cls-2" d="M72.1,7.16c0,.33,0,.59.07.77A2,2,0,0,0,74.3,9.67a2.3,2.3,0,0,0,.49-.05,3.92,3.92,0,0,0,.44-.12,2.6,2.6,0,0,0,.44-.23,3.87,3.87,0,0,0,.48-.42l.73.63a6.25,6.25,0,0,1-.65.56,2.9,2.9,0,0,1-.58.31,3.71,3.71,0,0,1-1.4.25,3,3,0,0,1-2.4-1A4.19,4.19,0,0,1,71,6.84a5.17,5.17,0,0,1,.21-1.54,3.47,3.47,0,0,1,.6-1.16,2.58,2.58,0,0,1,.95-.73A3,3,0,0,1,74,3.16a3.06,3.06,0,0,1,1.25.24,2.56,2.56,0,0,1,.94.7,3.22,3.22,0,0,1,.59,1.11A4.84,4.84,0,0,1,77,6.67v.49Zm3.84-.8c0-.14,0-.25,0-.35s0-.17,0-.24a1.21,1.21,0,0,0,0-.18l-.05-.18a1.86,1.86,0,0,0-.67-1A1.81,1.81,0,0,0,74,4.06a1.85,1.85,0,0,0-1,.29,1.74,1.74,0,0,0-.67.8,2,2,0,0,0-.1.24,1.87,1.87,0,0,0-.06.25c0,.09,0,.19,0,.31s0,.26,0,.41Z"/><path class="cls-2" d="M82.57,10.51V7.22h-3.5v3.29H78V3.25h1V6.31h3.5V3.25h1.08v7.27Z"/><path class="cls-2" d="M89.59,10.51V4.89l-3.72,5.63h-1V3.25h1v5.6l3.72-5.6h1.08v7.27Z"/><path class="cls-2" d="M92.81,7.16c0,.33,0,.59.07.77a2,2,0,0,0,.16.54,1.93,1.93,0,0,0,2,1.2,2.3,2.3,0,0,0,.49-.05,4,4,0,0,0,.44-.12,2.55,2.55,0,0,0,.44-.23,3.93,3.93,0,0,0,.48-.42l.72.63a6.38,6.38,0,0,1-.65.56,2.92,2.92,0,0,1-.58.31,3.69,3.69,0,0,1-1.4.25,3,3,0,0,1-2.4-1,4.19,4.19,0,0,1-.82-2.81,5.18,5.18,0,0,1,.21-1.54,3.4,3.4,0,0,1,.6-1.16,2.55,2.55,0,0,1,.94-.73,3,3,0,0,1,1.25-.25A3.07,3.07,0,0,1,96,3.4a2.58,2.58,0,0,1,.94.7,3.28,3.28,0,0,1,.59,1.11,4.81,4.81,0,0,1,.21,1.46v.49Zm3.84-.8c0-.14,0-.25,0-.35s0-.17,0-.24a1.35,1.35,0,0,0,0-.18l-.05-.18a1.88,1.88,0,0,0-.66-1,1.83,1.83,0,0,0-1.12-.35,1.86,1.86,0,0,0-1,.29,1.74,1.74,0,0,0-.67.8,1.64,1.64,0,0,0-.1.24,1.9,1.9,0,0,0-.06.25c0,.09,0,.19,0,.31l0,.41Z"/><path class="cls-2" d="M104.92,7.16c0,.33,0,.59.07.77a2,2,0,0,0,2.13,1.74,2.28,2.28,0,0,0,.49-.05,3.9,3.9,0,0,0,.44-.12,2.57,2.57,0,0,0,.43-.23,3.92,3.92,0,0,0,.48-.42l.72.63A6.24,6.24,0,0,1,109,10a2.9,2.9,0,0,1-.58.31,3.71,3.71,0,0,1-1.4.25,3,3,0,0,1-2.4-1,4.2,4.2,0,0,1-.82-2.81,5.18,5.18,0,0,1,.21-1.54,3.41,3.41,0,0,1,.59-1.16,2.59,2.59,0,0,1,.94-.73,3,3,0,0,1,1.25-.25,3.06,3.06,0,0,1,1.25.24,2.56,2.56,0,0,1,.94.7,3.26,3.26,0,0,1,.59,1.11,4.81,4.81,0,0,1,.21,1.46v.49Zm3.84-.8c0-.14,0-.25,0-.35s0-.17,0-.24a1.11,1.11,0,0,0,0-.18l-.05-.18a1.88,1.88,0,0,0-.67-1,1.82,1.82,0,0,0-1.12-.35,1.85,1.85,0,0,0-1,.29,1.72,1.72,0,0,0-.67.8,1.76,1.76,0,0,0-.1.24,1.9,1.9,0,0,0-.06.25,2.44,2.44,0,0,0,0,.31c0,.12,0,.26,0,.41Z"/><path class="cls-2" d="M116.14,9.52l-.33.32-.27.23-.25.17-.27.13a3.16,3.16,0,0,1-1.22.22,3,3,0,0,1-2.41-1,4,4,0,0,1-.87-2.73,4,4,0,0,1,.87-2.73,3,3,0,0,1,2.41-1,3.16,3.16,0,0,1,1.22.22,2.63,2.63,0,0,1,.52.31,7.31,7.31,0,0,1,.6.55l-.73.68a4.63,4.63,0,0,0-.45-.43,1.75,1.75,0,0,0-.38-.22,2,2,0,0,0-.81-.16q-2.19,0-2.19,2.78t2.17,2.78a2,2,0,0,0,.8-.15,1.75,1.75,0,0,0,.39-.24c.12-.09.27-.24.47-.44Z"/><path class="cls-2" d="M120.51,4.16v6.35h-1.08V4.16h-2.49V3.25h6v.92Z"/><path class="cls-2" d="M129.07,8.33a2.1,2.1,0,0,1-.63,1.59,2.33,2.33,0,0,1-1.68.6h-3.23V3.25h1V6.13h2.18a2.33,2.33,0,0,1,1.68.6A2.12,2.12,0,0,1,129.07,8.33Zm-1.08,0a1.24,1.24,0,0,0-.35-.94,1.41,1.41,0,0,0-1-.32h-2.06V9.6h2.06a1.41,1.41,0,0,0,1-.33A1.24,1.24,0,0,0,128,8.33Z"/><path class="cls-2" d="M130.28,10.51V9.29h1.27v1.23Zm1.09-2.94h-.91L130.31,0h1.23Z"/><path class="cls-3" d="M21.4,44.57a.87.87,0,0,1-.79-1.09l.12-.78a.86.86,0,0,0-.79-1.09h-11a1.25,1.25,0,0,0-1.13,1.09l-.12.78a1.26,1.26,0,0,1-1.13,1.09H4a.86.86,0,0,1-.79-1.09L4.11,38a1.25,1.25,0,0,1,1.13-1.09h.28A2,2,0,0,0,7,36a34.45,34.45,0,0,0,2.64-5.75,58.71,58.71,0,0,0,2-8.76l.9-5.82a1.25,1.25,0,0,1,1.13-1.09H25.86a.86.86,0,0,1,.79,1.09L23.51,35.82a.87.87,0,0,0,.79,1.09h.78A.86.86,0,0,1,25.87,38L25,43.48a1.26,1.26,0,0,1-1.13,1.09Zm0-24.2a.86.86,0,0,0-.79-1.09H17.35a1.25,1.25,0,0,0-1.13,1.09l-.27,1.73c-.09.6-.26,1.58-.37,2.17,0,0-.75,4.08-1.39,6.36a26.68,26.68,0,0,1-2.62,6.27h6.27A1.26,1.26,0,0,0,19,35.82Z"/><path class="cls-3" d="M40.55,41.62a1.22,1.22,0,0,1-1.1-1.09l-.35-2.6A1.22,1.22,0,0,0,38,36.83H31.6a1.72,1.72,0,0,0-1.4,1l-1.27,2.82a1.72,1.72,0,0,1-1.4,1H24.67c-.53,0-.75-.44-.5-1L36,15.55a1.76,1.76,0,0,1,1.42-1h1.67a1.26,1.26,0,0,1,1.13,1.09l4,24.86a.86.86,0,0,1-.78,1.09Zm-3.3-18c-.08-.6-.35-.65-.59-.11l-3.59,7.88c-.25.54,0,1,.51,1h3.9a.89.89,0,0,0,.81-1.09Z"/><path class="cls-2" d="M60.91,44.57a.86.86,0,0,1-.78-1.09l.08-.53a.86.86,0,0,0-.78-1.09h-11A1.25,1.25,0,0,0,47.3,43l-.08.53a1.25,1.25,0,0,1-1.12,1.09H43.63a.86.86,0,0,1-.79-1.09l.81-5.22a1.25,1.25,0,0,1,1.12-1.09h.28a2,2,0,0,0,1.49-.91,34.11,34.11,0,0,0,2.63-5.72,58.12,58.12,0,0,0,2-8.72l.9-5.8a1.25,1.25,0,0,1,1.12-1.09h12.1A.86.86,0,0,1,66.1,16L63,36.1a.86.86,0,0,0,.78,1.08h.77a.86.86,0,0,1,.79,1.09l-.81,5.22a1.25,1.25,0,0,1-1.12,1.09Zm-.06-23.86a.86.86,0,0,0-.79-1.08H56.83a1.25,1.25,0,0,0-1.12,1.08l-.27,1.73c-.09.6-.26,1.57-.37,2.16,0,0-.74,4.07-1.38,6.34a26.68,26.68,0,0,1-2.61,6.24h6.25a1.25,1.25,0,0,0,1.13-1.08Z"/><path class="cls-2" d="M63.83,41.87c-.52,0-.68-.37-.33-.84l9.39-12.63a2,2,0,0,0,.18-1.81L68.29,15.92c-.24-.54,0-1,.51-1h3.46a1.64,1.64,0,0,1,1.36,1L78,26.73c.22.55.48.51.57-.09L80.18,16a1.26,1.26,0,0,1,1.12-1.09h2.61A.86.86,0,0,1,84.7,16L83,26.64c-.09.6.1.7.44.24L91.4,15.79A2.19,2.19,0,0,1,93,14.94h3.46c.52,0,.67.37.32.83l-8.33,11a2,2,0,0,0-.2,1.82l5.33,12.33c.24.54,0,1-.53,1H89.42a1.62,1.62,0,0,1-1.35-1L83.27,28.8c-.22-.55-.47-.51-.57.08l-1.85,11.9a1.25,1.25,0,0,1-1.12,1.08H77.12a.86.86,0,0,1-.78-1.08l1.85-11.9c.09-.6-.1-.7-.44-.23L69,41a2.19,2.19,0,0,1-1.56.85Z"/><path class="cls-2" d="M95.31,41.87a.86.86,0,0,1-.79-1.08L98.38,16a1.25,1.25,0,0,1,1.12-1.09h13.41A.86.86,0,0,1,113.7,16l-.39,2.52a1.25,1.25,0,0,1-1.12,1.09h-8.89a1.25,1.25,0,0,0-1.12,1.08l-.64,4.15a.86.86,0,0,0,.79,1.09h7.29a.86.86,0,0,1,.79,1.08L110,29.55a1.25,1.25,0,0,1-1.12,1.09h-7.29a1.25,1.25,0,0,0-1.12,1.08l-.68,4.38a.86.86,0,0,0,.79,1.08h8.89a.86.86,0,0,1,.79,1.09l-.39,2.52a1.25,1.25,0,0,1-1.12,1.08Z"/><path class="cls-2" d="M125.83,19.63a1.25,1.25,0,0,0-1.12,1.08l-3.12,20.07a1.25,1.25,0,0,1-1.12,1.08h-2.61a.86.86,0,0,1-.79-1.08l3.12-20.07a.86.86,0,0,0-.79-1.08h-4.18a.86.86,0,0,1-.79-1.09l.39-2.52a1.25,1.25,0,0,1,1.12-1.09h14.79a.86.86,0,0,1,.79,1.09l-.39,2.52A1.25,1.25,0,0,1,130,19.63Z"/></svg>