<svg width="279" height="117" viewBox="0 0 279 117" fill="none" xmlns="http://www.w3.org/2000/svg">
<rect width="279" height="116.246" fill="black" fill-opacity="0"/>
<rect width="279" height="61.5307" fill="black" fill-opacity="0"/>
<rect width="279" height="61.5307" fill="black" fill-opacity="0"/>
<path fill-rule="evenodd" clip-rule="evenodd" d="M72.9629 61.4011V53.731H74.5444L76.4231 59.1603C76.5967 59.6672 76.7237 60.0445 76.8018 60.298C76.8925 60.0186 77.0323 59.6067 77.2255 59.0681L79.1252 53.731H80.5394V61.4011H79.5259V54.981L77.2199 61.4011H76.2717L73.9761 54.8745V61.4011H72.9629ZM90.1694 61.4011V53.731H95.9079V54.6383H91.2186V56.9857H95.611V57.8843H91.2186V60.4967H96.0931V61.4011H90.1694ZM104.648 61.4011L107.721 57.4062L105.013 53.731H106.262L107.704 55.6982C108.003 56.1072 108.215 56.4212 108.341 56.64C108.52 56.3607 108.728 56.0698 108.97 55.7674L110.568 53.731H111.711L108.921 57.3457L111.927 61.4011H110.628L108.63 58.6649C108.517 58.5064 108.402 58.3365 108.282 58.1522C108.105 58.4316 107.979 58.6216 107.903 58.7282L105.911 61.4011H104.648ZM119.893 61.4011L122.944 53.731H124.074L127.324 61.4011H126.127L125.2 59.0768H121.88L121.01 61.4011H119.893ZM122.184 58.2501H124.877L124.046 56.1274C123.795 55.4822 123.606 54.9523 123.485 54.5375C123.384 55.03 123.241 55.5168 123.056 56.0035L122.184 58.2501ZM136.107 61.4011V53.731H137.159V56.882H141.284V53.731H142.336V61.4011H141.284V57.7864H137.159V61.4011H136.107ZM152.014 53.731H152.965V59.8054L157.189 53.731H158.246V61.4011H157.292V55.3439L153.063 61.4011H152.014V53.731ZM167.449 59.2351L168.451 58.9846C168.526 59.3561 168.728 59.7305 169.058 60.1021C169.389 60.4736 169.827 60.6638 170.372 60.6638C170.928 60.6638 171.367 60.5255 171.687 60.249C172.009 59.9725 172.169 59.6413 172.169 59.2496C172.169 58.829 171.999 58.4949 171.66 58.2444C171.32 57.9938 170.859 57.8699 170.274 57.8699H169.77V56.9857C170.254 56.9857 170.624 56.9569 170.881 56.905C171.137 56.8503 171.363 56.7149 171.561 56.4903C171.757 56.2685 171.855 56.0179 171.855 55.7357C171.855 55.4015 171.722 55.1107 171.452 54.863C171.184 54.6124 170.819 54.4914 170.362 54.4914C169.961 54.4914 169.619 54.5865 169.335 54.7794C169.051 54.9753 168.855 55.2288 168.747 55.5485C168.639 55.8682 168.586 56.1072 168.586 56.2628L167.578 56.0439C167.827 54.4165 168.759 53.6014 170.372 53.6014C171.147 53.6014 171.763 53.8117 172.219 54.2264C172.674 54.6412 172.901 55.1308 172.901 55.6896C172.901 56.4039 172.55 56.9569 171.849 57.3515C172.254 57.4609 172.592 57.6798 172.866 58.0139C173.138 58.348 173.275 58.7455 173.275 59.2092C173.275 59.8688 173.01 60.4189 172.481 60.8654C171.953 61.3089 171.25 61.5307 170.377 61.5307C168.875 61.5307 167.899 60.7674 167.449 59.2351ZM182.459 61.4011V53.731H184.04L185.919 59.1603C186.093 59.6672 186.219 60.0445 186.297 60.298C186.388 60.0186 186.528 59.6067 186.721 59.0681L188.621 53.731H190.035V61.4011H189.022V54.981L186.715 61.4011H185.768L183.471 54.8745V61.4011H182.459ZM208.804 53.731H209.854V60.4967H212.49V53.731H213.539V60.4967H216.178V53.731H217.228V61.4011H208.804V53.731ZM226.88 53.731H227.831V59.8054L232.056 53.731H233.111V61.4011H232.16V55.3439L227.929 61.4011H226.88V53.731ZM244.767 61.4011V54.6383H242.152V53.731H248.446V54.6383H245.816V61.4011H244.767ZM257.472 53.731H258.524V57.0058H260.418C261.303 57.0058 261.941 57.1067 262.341 57.3054C262.737 57.5041 263.021 57.7749 263.197 58.1147C263.37 58.4575 263.456 58.8089 263.456 59.1718C263.456 59.7651 263.244 60.2864 262.827 60.73C262.406 61.1764 261.628 61.4011 260.489 61.4011H257.472V53.731ZM258.524 60.537H260.444C261.226 60.537 261.733 60.4045 261.971 60.1367C262.204 59.8688 262.323 59.5491 262.323 59.1718C262.323 58.8665 262.236 58.6044 262.066 58.3913C261.894 58.1752 261.667 58.037 261.384 57.9736C261.097 57.9102 260.611 57.8786 259.929 57.8786H258.524V60.537ZM278.907 61.4011V53.731H275.386C274.679 53.731 274.142 53.8001 273.773 53.9384C273.406 54.0766 273.111 54.3186 272.89 54.6671C272.669 55.0185 272.562 55.4044 272.562 55.825C272.562 56.3693 272.741 56.8273 273.108 57.1988C273.471 57.5733 274.035 57.8094 274.798 57.9102C274.518 58.0399 274.306 58.1666 274.163 58.2933C273.856 58.564 273.567 58.9068 273.29 59.3129L271.909 61.4011H273.233L274.28 59.8054C274.59 59.3446 274.84 58.9932 275.043 58.7484C275.24 58.5036 275.416 58.3336 275.574 58.2357C275.732 58.1378 275.89 58.0715 276.054 58.0312C276.173 58.0082 276.367 57.9967 276.638 57.9967H277.858V61.4011H278.907ZM277.858 57.1182H275.597C275.117 57.1182 274.742 57.0692 274.47 56.9742C274.202 56.8762 273.993 56.7236 273.853 56.5105C273.713 56.3002 273.644 56.0727 273.644 55.825C273.644 55.462 273.779 55.1625 274.053 54.9292C274.324 54.6959 274.754 54.5807 275.344 54.5807H277.858V57.1182Z" fill="url(#paint0_linear)"/>
<path fill-rule="evenodd" clip-rule="evenodd" d="M60.9736 -7.03182e-06V58.9008H2.83902e-06V-7.03182e-06H60.9736ZM47.2495 41.6165C46.4026 41.628 45.4849 41.4091 44.6953 41.0779C44.5403 41.0145 44.3888 40.9454 44.2445 40.8705C44.099 40.7985 43.9615 40.7207 43.8333 40.643C43.8089 40.6286 43.8277 40.6401 43.7972 40.6228L43.7588 40.5969L43.7331 40.6315L37.6707 48.4657H35.0957L32.6078 51.9479L16.7035 51.9681C15.2812 52.0055 14.2051 51.945 13.2653 51.6829C12.3263 51.4237 11.5192 50.96 10.6351 50.1881C9.67889 49.3557 8.7972 48.0423 8.2113 47.0573C8.0962 46.8643 7.99363 46.6857 7.90627 46.5273C7.81532 46.366 7.73869 46.2249 7.67697 46.1097V46.1068L7.67459 46.1039L7.66982 46.0982C7.45424 45.8447 7.25059 45.6575 6.99655 45.5336C6.74281 45.4126 6.44106 45.355 6.03108 45.3608C6.02064 45.3608 5.78658 45.3925 5.53731 45.5308C5.46396 45.5711 5.39061 45.6171 5.31816 45.6776C5.246 45.7381 5.17742 45.8102 5.11779 45.8908C4.95499 46.1155 4.85122 46.4351 4.90608 46.8758V46.8816L4.90817 46.8873C5.36497 48.0942 6.07073 49.2462 6.8102 50.2198C6.95481 50.4099 7.10032 50.5942 7.24344 50.7699C7.38686 50.9398 7.53236 51.1098 7.67697 51.2682L7.67906 51.2711C8.75426 52.5326 10.2672 53.5868 11.9969 54.1426C12.3335 54.2492 12.6782 54.3385 13.03 54.4076C13.3827 54.4739 13.7403 54.52 14.1025 54.5459C14.1025 54.5459 14.1085 54.5459 14.1142 54.5459C14.5137 54.5718 14.8166 54.5805 15.1184 54.592C15.2708 54.5949 15.4234 54.6006 15.591 54.6092H56.275V51.9479H48.3804V48.4657H45.2451L50.0424 41.2363L50.1113 41.1298L49.989 41.1672C49.9574 41.1758 49.9285 41.1845 49.8981 41.1931C49.0549 41.4322 48.5271 41.5848 47.2483 41.6165H47.2495ZM21.5463 46.9536L21.594 47.256L21.6408 46.9536L22.533 41.0491V41.0405L22.5491 15.3488L23.4251 10.6828L23.4275 10.6799V10.677L23.3983 4.37221V4.32611H23.3517L21.5824 4.32323L19.7597 4.32611H19.712V4.37221L19.7388 10.6799V10.6885L20.6262 15.3689L20.6169 41.0866V41.0923L21.5463 46.9536ZM52.0562 31.2966C50.9685 29.966 49.2842 29.1105 47.4009 29.1105C44.1339 29.1105 41.47 31.6855 41.47 34.8393C41.47 35.81 41.7229 36.7259 42.1677 37.5295L52.0562 31.2966ZM47.4009 40.5681C50.6668 40.5681 53.3318 37.9961 53.3318 34.8393C53.3318 33.8687 53.079 32.9528 52.6329 32.1492L42.7444 38.382C43.8321 39.7127 45.5165 40.5681 47.4009 40.5681ZM42.6126 4.17633H42.5637V30.1964L42.6454 30.1186C43.4081 29.3928 44.1154 28.906 44.8757 28.5892C45.6352 28.2724 46.4483 28.1255 47.423 28.0794C48.7507 28.1399 49.7105 28.4107 50.4503 28.788C51.1898 29.1682 51.7092 29.652 52.1531 30.1388L52.2369 30.2281V4.17633H42.6126Z" fill="url(#paint1_linear)"/>
<path fill-rule="evenodd" clip-rule="evenodd" d="M72.206 42.0802L77.2028 8.45061C77.6372 5.37164 79.0142 3.83361 81.3306 3.83361C83.3585 3.83361 84.7527 5.09228 85.5131 7.60961L94.2578 34.5254L102.948 7.60961C103.709 5.09228 105.103 3.83361 107.13 3.83361C109.447 3.83361 110.824 5.37164 111.258 8.45061L116.255 42.0802H111.258L106.804 10.968L97.843 38.7219C96.9729 41.2767 95.779 42.5526 94.2578 42.5526C93.3889 42.5526 92.6831 42.256 92.1393 41.6626C91.5966 41.0664 91.09 40.0871 90.618 38.7219L81.6568 10.968L77.2576 42.0802H72.206ZM124.976 4.35781V27.8634C124.976 34.6464 127.765 38.0393 133.342 38.0393C135.876 38.0393 137.94 37.2012 139.533 35.522C140.981 33.9839 141.705 32.201 141.705 30.1705V4.35781H146.92V42.135H141.705V39.0906C141.09 40.2455 139.958 41.1557 138.311 41.8182C136.663 42.4835 135.007 42.8147 133.342 42.8147C129.286 42.8147 126.008 41.5042 123.51 38.8803C121.012 36.2564 119.763 32.6705 119.763 28.1255V4.35781H124.976ZM154.153 4.35781H161.214C164.654 4.35781 167.442 5.08365 169.578 6.53529C171.714 7.98692 172.783 10.1125 172.783 12.9092C172.783 16.9329 171.316 19.3984 168.383 20.3086C170.99 21.7775 172.765 23.5776 173.706 25.7119C174.357 27.1808 174.683 29.0875 174.683 31.432C174.683 34.6147 173.579 37.253 171.371 39.3527C168.945 41.6626 165.592 42.9616 161.323 42.8147L154.765 42.8522L152.117 42.8349L152.115 38.0134L161.219 37.9932C163.898 37.9874 166.112 37.3826 167.622 35.9425C168.932 34.6925 169.577 33.1429 169.577 31.3255C169.577 28.4567 168.726 26.3743 167.024 25.0811C165.576 23.9636 163.473 23.4048 160.724 23.4048H155.836V18.7331H162.082C164.001 18.7331 165.424 18.3644 166.345 17.6328C167.268 16.8983 167.731 15.6195 167.731 13.8021C167.731 10.6195 165.592 9.02666 161.321 9.02666H154.153V4.35781ZM184.763 4.35781V27.8634C184.763 34.6435 187.551 38.0393 193.128 38.0393C195.662 38.0393 197.726 37.2012 199.32 35.522C200.767 33.9839 201.491 32.201 201.491 30.1705V4.35781H206.706V42.135H201.491V39.0906C200.877 40.2455 199.742 41.1557 198.098 41.8182C196.452 42.4806 194.793 42.8147 193.128 42.8147C189.072 42.8147 185.795 41.5042 183.297 38.8803C180.798 36.2564 179.549 32.6705 179.549 28.1255V4.35781H184.763ZM229.221 3.6752C233.276 3.6752 236.553 4.98859 239.051 7.60961C241.55 10.2335 242.799 13.8223 242.799 18.3673V37.4633H246.002V42.135H212.49V37.4633H215.642V18.3673C215.642 13.8194 216.894 10.2306 219.39 7.60961C221.886 4.98859 225.166 3.6752 229.221 3.6752ZM220.854 18.6294V37.4633H237.584V18.6294C237.584 11.8436 234.796 8.45061 229.221 8.45061C226.54 8.45061 224.477 9.30606 223.028 11.0227C221.579 12.7364 220.854 15.2739 220.854 18.6294ZM273.785 42.135V28.4395H257.058V42.135H251.843V18.4191C251.843 13.8367 253.095 10.2306 255.591 7.60961C258.086 4.98859 261.366 3.6752 265.421 3.6752C269.477 3.6752 272.753 4.98859 275.252 7.60961C277.751 10.2335 279 13.8396 279 18.4191V42.135H273.785ZM265.421 8.34405C262.741 8.34405 260.678 9.20237 259.228 10.9161C257.779 12.6299 257.058 15.1702 257.058 18.5228V23.6669H273.785V18.5228C273.785 11.7399 270.997 8.34405 265.421 8.34405Z" fill="url(#paint2_linear)"/>
<path d="M9.57532 90.4574H7.97804V79.2097H3.02993V90.4574H1.44133V77.8405H9.57532V90.4574Z" fill="#878787"/>
<path d="M12.2226 85.3361C12.2226 83.9728 12.5525 82.8954 13.2123 82.1039C13.8778 81.3067 14.7546 80.9081 15.8426 80.9081C16.9306 80.9081 17.8044 81.2951 18.4642 82.0693C19.1297 82.8434 19.4712 83.8977 19.4885 85.2321V86.22C19.4885 87.5776 19.1587 88.6521 18.4989 89.4435C17.8392 90.235 16.9595 90.6307 15.8599 90.6307C14.7719 90.6307 13.8981 90.2465 13.2383 89.4782C12.5843 88.7098 12.2458 87.67 12.2226 86.3586V85.3361ZM13.7592 86.22C13.7592 87.1847 13.9472 87.9444 14.3234 88.499C14.7054 89.0478 15.2175 89.3222 15.8599 89.3222C17.2141 89.3222 17.9115 88.3459 17.952 86.3933V85.3361C17.952 84.3771 17.761 83.6204 17.3791 83.0658C16.9971 82.5054 16.485 82.2252 15.8426 82.2252C15.2118 82.2252 14.7054 82.5054 14.3234 83.0658C13.9472 83.6204 13.7592 84.3743 13.7592 85.3274V86.22Z" fill="#878787"/>
<path d="M25.0874 89.3222C25.5966 89.3222 26.0046 89.1662 26.3114 88.8543C26.6181 88.5365 26.7859 88.0859 26.8149 87.5025H28.2646C28.2298 88.4037 27.9086 89.1518 27.301 89.7468C26.6991 90.3361 25.9612 90.6307 25.0874 90.6307C23.9241 90.6307 23.0358 90.2667 22.4223 89.5388C21.8147 88.8052 21.5108 87.7162 21.5108 86.272V85.2408C21.5108 83.8254 21.8147 82.7509 22.4223 82.0173C23.03 81.2778 23.9154 80.9081 25.0787 80.9081C26.0394 80.9081 26.8004 81.2114 27.3617 81.818C27.9289 82.4245 28.2298 83.2535 28.2646 84.3049H26.8149C26.7801 83.6117 26.6123 83.0918 26.3114 82.7452C26.0162 82.3985 25.6053 82.2252 25.0787 82.2252C24.3958 82.2252 23.8894 82.4505 23.5595 82.9011C23.2297 83.346 23.0589 84.0796 23.0474 85.1021V86.298C23.0474 87.4014 23.2094 88.1813 23.5335 88.6376C23.8634 89.094 24.3813 89.3222 25.0874 89.3222Z" fill="#878787"/>
<path d="M36.3288 82.3812H33.7679V90.4574H32.2401V82.3812H29.7139V81.0814H36.3288V82.3812Z" fill="#878787"/>
<path d="M42.9953 90.4574C42.9027 90.2552 42.8362 89.9143 42.7957 89.4348C42.2517 90.2321 41.5572 90.6307 40.7122 90.6307C39.8615 90.6307 39.196 90.3938 38.7156 89.9201C38.2411 89.4406 38.0038 88.7676 38.0038 87.9011C38.0038 86.9479 38.3279 86.1911 38.9761 85.6307C39.6242 85.0704 40.5126 84.7844 41.6411 84.7729H42.7696V83.7763C42.7696 83.216 42.6452 82.8174 42.3963 82.5805C42.1475 82.3437 41.7684 82.2252 41.2591 82.2252C40.7962 82.2252 40.42 82.3639 40.1306 82.6412C39.8413 82.9127 39.6966 83.2593 39.6966 83.681H38.1601C38.1601 83.2015 38.3019 82.7452 38.5854 82.3119C38.869 81.8728 39.251 81.5291 39.7313 81.2807C40.2117 81.0323 40.747 80.9081 41.3373 80.9081C42.298 80.9081 43.0272 81.1478 43.5249 81.6273C44.0283 82.101 44.2859 82.7943 44.2975 83.707V88.4383C44.3032 89.1604 44.4016 89.7872 44.5926 90.3187V90.4574H42.9953ZM40.9466 89.2355C41.3228 89.2355 41.6816 89.1316 42.0231 88.9236C42.3645 88.7156 42.6134 88.4557 42.7696 88.1437V85.908H41.9015C41.1723 85.9196 40.5965 86.0842 40.174 86.402C39.7516 86.7139 39.5403 87.153 39.5403 87.7191C39.5403 88.2506 39.6474 88.6376 39.8615 88.8803C40.0757 89.1171 40.4374 89.2355 40.9466 89.2355Z" fill="#878787"/>
<path d="M47.1792 90.4574V81.0814H50.3303C51.4067 81.0814 52.2285 81.3009 52.7957 81.74C53.3628 82.179 53.6464 82.8174 53.6464 83.655C53.6464 84.0883 53.5336 84.4782 53.3079 84.8249C53.0822 85.1715 52.7523 85.4372 52.3182 85.6221C52.7986 85.7492 53.1834 86.0062 53.4728 86.3933C53.7679 86.7803 53.9155 87.2483 53.9155 87.7971C53.9155 88.6636 53.6435 89.3251 53.0995 89.7815C52.5613 90.2321 51.7974 90.4574 50.8078 90.4574H47.1792ZM48.707 86.3413V89.1662H50.8251C51.861 89.1662 52.379 88.6925 52.379 87.7451C52.379 86.8092 51.8553 86.3413 50.8078 86.3413H48.707ZM48.707 85.0588H50.313C51.5109 85.0588 52.1099 84.6198 52.1099 83.7417C52.1099 82.8578 51.5456 82.4043 50.4171 82.3812H48.707V85.0588Z" fill="#878787"/>
<path d="M57.9431 81.0814V89.1489H60.5908V81.0814H62.1186V89.1489H64.775V81.0814H66.3115V89.1489H67.4834L67.3271 93.239H65.9642V90.4574H56.3979V81.0814H57.9431Z" fill="#878787"/>
<path d="M74.6361 81.0814H76.1639V90.4574H74.6361V83.6204L71.2332 90.4574H69.6967V81.0814H71.2332V87.9271L74.6361 81.0814Z" fill="#878787"/>
<path d="M81.5284 86.4626H80.6603V90.4574H79.1238V81.0814H80.6603V85.0502H81.4242L83.9851 81.0814H85.8167L82.6829 85.5441L86.0424 90.4574H84.1153L81.5284 86.4626Z" fill="#878787"/>
<path d="M93.9934 81.0814V89.1489H96.6411V81.0814H98.1689V89.1489H100.825V81.0814H102.362V90.4574H92.4482V81.0814H93.9934Z" fill="#878787"/>
<path d="M105.322 90.4574V81.0814H108.473C109.549 81.0814 110.371 81.3009 110.938 81.74C111.505 82.179 111.789 82.8174 111.789 83.655C111.789 84.0883 111.676 84.4782 111.45 84.8249C111.225 85.1715 110.895 85.4372 110.461 85.6221C110.941 85.7492 111.326 86.0062 111.615 86.3933C111.91 86.7803 112.058 87.2483 112.058 87.7971C112.058 88.6636 111.786 89.3251 111.242 89.7815C110.704 90.2321 109.94 90.4574 108.95 90.4574H105.322ZM106.849 86.3413V89.1662H108.968C110.004 89.1662 110.521 88.6925 110.521 87.7451C110.521 86.8092 109.998 86.3413 108.95 86.3413H106.849ZM106.849 85.0588H108.455C109.653 85.0588 110.252 84.6198 110.252 83.7417C110.252 82.8578 109.688 82.4043 108.56 82.3812H106.849V85.0588Z" fill="#878787"/>
<path d="M117.856 90.6307C116.687 90.6307 115.79 90.2841 115.165 89.5908C114.54 88.8918 114.222 87.8693 114.21 86.5233V85.3881C114.21 83.9901 114.514 82.8954 115.122 82.1039C115.735 81.3067 116.589 80.9081 117.683 80.9081C118.782 80.9081 119.604 81.2576 120.148 81.9566C120.692 82.6556 120.97 83.7446 120.982 85.2235V86.2287H115.738V86.4453C115.738 87.4505 115.926 88.1813 116.303 88.6376C116.685 89.094 117.231 89.3222 117.943 89.3222C118.395 89.3222 118.791 89.2384 119.133 89.0709C119.48 88.8976 119.804 88.6261 120.105 88.2564L120.903 89.2269C120.238 90.1627 119.222 90.6307 117.856 90.6307ZM117.683 82.2252C117.046 82.2252 116.575 82.4448 116.268 82.8838C115.961 83.3171 115.788 83.993 115.747 84.9115H119.445V84.7035C119.405 83.8139 119.243 83.1784 118.959 82.7972C118.681 82.4159 118.256 82.2252 117.683 82.2252Z" fill="#878787"/>
<path d="M128.264 81.0814H129.792V90.4574H128.264V83.6204L124.862 90.4574H123.325V81.0814H124.862V87.9271L128.264 81.0814ZM129.167 77.6672C129.167 78.3662 128.927 78.9295 128.447 79.357C127.972 79.7787 127.347 79.9896 126.572 79.9896C125.796 79.9896 125.168 79.7758 124.688 79.3483C124.208 78.9208 123.967 78.3605 123.967 77.6672H125.278C125.278 78.0716 125.388 78.3894 125.608 78.6204C125.828 78.8457 126.149 78.9584 126.572 78.9584C126.977 78.9584 127.292 78.8457 127.518 78.6204C127.749 78.3951 127.865 78.0774 127.865 77.6672H129.167Z" fill="#878787"/>
<path d="M139.202 90.4574H137.674V86.454H134.289V90.4574H132.743V81.0814H134.289V85.1455H137.674V81.0814H139.202V90.4574Z" fill="#878787"/>
<path d="M141.684 85.3361C141.684 83.9728 142.014 82.8954 142.674 82.1039C143.34 81.3067 144.216 80.9081 145.304 80.9081C146.392 80.9081 147.266 81.2951 147.926 82.0693C148.592 82.8434 148.933 83.8977 148.95 85.2321V86.22C148.95 87.5776 148.62 88.6521 147.961 89.4435C147.301 90.235 146.421 90.6307 145.322 90.6307C144.234 90.6307 143.36 90.2465 142.7 89.4782C142.046 88.7098 141.708 87.67 141.684 86.3586V85.3361ZM143.221 86.22C143.221 87.1847 143.409 87.9444 143.785 88.499C144.167 89.0478 144.679 89.3222 145.322 89.3222C146.676 89.3222 147.373 88.3459 147.414 86.3933V85.3361C147.414 84.3771 147.223 83.6204 146.841 83.0658C146.459 82.5054 145.947 82.2252 145.304 82.2252C144.674 82.2252 144.167 82.5054 143.785 83.0658C143.409 83.6204 143.221 84.3743 143.221 85.3274V86.22Z" fill="#878787"/>
<path d="M156.45 82.4072H152.952V90.4574H151.407V81.0814H156.45V82.4072Z" fill="#878787"/>
<path d="M157.743 85.3361C157.743 83.9728 158.073 82.8954 158.733 82.1039C159.399 81.3067 160.275 80.9081 161.363 80.9081C162.451 80.9081 163.325 81.2951 163.985 82.0693C164.65 82.8434 164.992 83.8977 165.009 85.2321V86.22C165.009 87.5776 164.679 88.6521 164.02 89.4435C163.36 90.235 162.48 90.6307 161.381 90.6307C160.293 90.6307 159.419 90.2465 158.759 89.4782C158.105 88.7098 157.767 87.67 157.743 86.3586V85.3361ZM159.28 86.22C159.28 87.1847 159.468 87.9444 159.844 88.499C160.226 89.0478 160.738 89.3222 161.381 89.3222C162.735 89.3222 163.432 88.3459 163.473 86.3933V85.3361C163.473 84.3771 163.282 83.6204 162.9 83.0658C162.518 82.5054 162.006 82.2252 161.363 82.2252C160.732 82.2252 160.226 82.5054 159.844 83.0658C159.468 83.6204 159.28 84.3743 159.28 85.3274V86.22Z" fill="#878787"/>
<path d="M171.458 85.3361C171.458 83.9728 171.788 82.8954 172.448 82.1039C173.114 81.3067 173.99 80.9081 175.078 80.9081C176.166 80.9081 177.04 81.2951 177.7 82.0693C178.366 82.8434 178.707 83.8977 178.724 85.2321V86.22C178.724 87.5776 178.395 88.6521 177.735 89.4435C177.075 90.235 176.195 90.6307 175.096 90.6307C174.008 90.6307 173.134 90.2465 172.474 89.4782C171.82 88.7098 171.482 87.67 171.458 86.3586V85.3361ZM172.995 86.22C172.995 87.1847 173.183 87.9444 173.559 88.499C173.941 89.0478 174.453 89.3222 175.096 89.3222C176.45 89.3222 177.147 88.3459 177.188 86.3933V85.3361C177.188 84.3771 176.997 83.6204 176.615 83.0658C176.233 82.5054 175.721 82.2252 175.078 82.2252C174.448 82.2252 173.941 82.5054 173.559 83.0658C173.183 83.6204 172.995 84.3743 172.995 85.3274V86.22Z" fill="#878787"/>
<path d="M184.636 81.6187C185.625 81.6187 186.412 82.0115 186.997 82.7972C187.581 83.577 187.874 84.6227 187.874 85.934V86.064C187.874 87.4505 187.55 88.5596 186.901 89.3915C186.253 90.2176 185.397 90.6307 184.332 90.6307C183.267 90.6307 182.411 90.2118 181.762 89.3742C181.114 88.5365 180.79 87.41 180.79 85.9947V85.2061C180.79 83.2709 181.094 81.7226 181.702 80.5615C182.309 79.3945 183.2 78.6753 184.375 78.4038C185.052 78.2478 185.51 78.063 185.747 77.8492C185.99 77.6355 186.111 77.3524 186.111 77H187.353L187.344 77.338C187.275 78.4818 186.725 79.2068 185.695 79.513L184.636 79.8076C183.872 80.0156 183.284 80.3824 182.873 80.9081C182.468 81.4338 182.205 82.1213 182.084 82.9705C182.79 82.0693 183.64 81.6187 184.636 81.6187ZM184.323 82.9358C183.71 82.9358 183.224 83.1958 182.865 83.7157C182.512 84.2356 182.335 85.0184 182.335 86.064C182.335 87.0807 182.512 87.8809 182.865 88.4643C183.218 89.042 183.707 89.3309 184.332 89.3309C184.957 89.3309 185.449 89.0391 185.808 88.4557C186.166 87.8722 186.346 87.0085 186.346 85.8647C186.346 84.9635 186.164 84.2501 185.799 83.7243C185.44 83.1986 184.948 82.9358 184.323 82.9358Z" fill="#878787"/>
<path d="M189.705 85.3361C189.705 83.9728 190.035 82.8954 190.695 82.1039C191.36 81.3067 192.237 80.9081 193.325 80.9081C194.413 80.9081 195.287 81.2951 195.947 82.0693C196.612 82.8434 196.954 83.8977 196.971 85.2321V86.22C196.971 87.5776 196.641 88.6521 195.981 89.4435C195.322 90.235 194.442 90.6307 193.342 90.6307C192.254 90.6307 191.38 90.2465 190.721 89.4782C190.067 88.7098 189.728 87.67 189.705 86.3586V85.3361ZM191.242 86.22C191.242 87.1847 191.43 87.9444 191.806 88.499C192.188 89.0478 192.7 89.3222 193.342 89.3222C194.697 89.3222 195.394 88.3459 195.434 86.3933V85.3361C195.434 84.3771 195.243 83.6204 194.861 83.0658C194.479 82.5054 193.967 82.2252 193.325 82.2252C192.694 82.2252 192.188 82.5054 191.806 83.0658C191.43 83.6204 191.242 84.3743 191.242 85.3274V86.22Z" fill="#878787"/>
<path d="M206.094 86.22C206.094 87.7047 205.825 88.8109 205.287 89.5388C204.754 90.2667 203.999 90.6307 203.021 90.6307C202.078 90.6307 201.351 90.2754 200.842 89.5648V94.0622H199.314V81.0814H200.703L200.781 82.1213C201.297 81.3125 202.034 80.9081 202.995 80.9081C204.025 80.9081 204.795 81.2663 205.304 81.9826C205.813 82.6989 206.077 83.7706 206.094 85.1975V86.22ZM204.566 85.3448C204.566 84.2934 204.404 83.5193 204.08 83.0225C203.756 82.5199 203.235 82.2686 202.518 82.2686C201.783 82.2686 201.224 82.6354 200.842 83.3691V88.2477C201.218 88.964 201.783 89.3222 202.535 89.3222C203.229 89.3222 203.739 89.0738 204.063 88.577C204.393 88.0744 204.561 87.3089 204.566 86.2806V85.3448Z" fill="#878787"/>
<path d="M210.894 87.9097L212.604 81.0814H214.236L211.163 91.7832C210.932 92.5862 210.605 93.1956 210.182 93.6116C209.76 94.0333 209.28 94.2441 208.741 94.2441C208.533 94.2441 208.267 94.1979 207.943 94.1055V92.8057L208.281 92.8404C208.727 92.8404 209.074 92.7335 209.323 92.5197C209.578 92.3118 209.783 91.9478 209.939 91.4279L210.243 90.3794L207.483 81.0814H209.158L210.894 87.9097Z" fill="#878787"/>
<path d="M215.59 89.1489L216.05 88.4903C216.548 87.7278 216.835 86.6042 216.91 85.1195L217.04 81.0814H222.283V89.1489H223.377V93.213H221.841V90.4574H216.502V93.213H214.957L214.965 89.1489H215.59ZM217.3 89.1489H220.755V82.5632H218.533L218.455 84.8509C218.374 86.6764 217.989 88.109 217.3 89.1489Z" fill="#878787"/>
<path d="M225.174 85.3361C225.174 83.9728 225.504 82.8954 226.163 82.1039C226.829 81.3067 227.706 80.9081 228.794 80.9081C229.882 80.9081 230.755 81.2951 231.415 82.0693C232.081 82.8434 232.422 83.8977 232.44 85.2321V86.22C232.44 87.5776 232.11 88.6521 231.45 89.4435C230.79 90.235 229.911 90.6307 228.811 90.6307C227.723 90.6307 226.849 90.2465 226.189 89.4782C225.535 88.7098 225.197 87.67 225.174 86.3586V85.3361ZM226.71 86.22C226.71 87.1847 226.898 87.9444 227.274 88.499C227.656 89.0478 228.169 89.3222 228.811 89.3222C230.165 89.3222 230.863 88.3459 230.903 86.3933V85.3361C230.903 84.3771 230.712 83.6204 230.33 83.0658C229.948 82.5054 229.436 82.2252 228.794 82.2252C228.163 82.2252 227.656 82.5054 227.274 83.0658C226.898 83.6204 226.71 84.3743 226.71 85.3274V86.22Z" fill="#878787"/>
<path d="M234.913 90.4574V81.0814H238.064C239.141 81.0814 239.963 81.3009 240.53 81.74C241.097 82.179 241.381 82.8174 241.381 83.655C241.381 84.0883 241.268 84.4782 241.042 84.8249C240.816 85.1715 240.486 85.4372 240.052 85.6221C240.533 85.7492 240.918 86.0062 241.207 86.3933C241.502 86.7803 241.65 87.2483 241.65 87.7971C241.65 88.6636 241.378 89.3251 240.834 89.7815C240.295 90.2321 239.532 90.4574 238.542 90.4574H234.913ZM236.441 86.3413V89.1662H238.559C239.595 89.1662 240.113 88.6925 240.113 87.7451C240.113 86.8092 239.589 86.3413 238.542 86.3413H236.441ZM236.441 85.0588H238.047C239.245 85.0588 239.844 84.6198 239.844 83.7417C239.844 82.8578 239.28 82.4043 238.151 82.3812H236.441V85.0588Z" fill="#878787"/>
<path d="M248.924 90.4574C248.831 90.2552 248.765 89.9143 248.724 89.4348C248.18 90.2321 247.486 90.6307 246.641 90.6307C245.79 90.6307 245.125 90.3938 244.644 89.9201C244.17 89.4406 243.932 88.7676 243.932 87.9011C243.932 86.9479 244.256 86.1911 244.905 85.6307C245.553 85.0704 246.441 84.7844 247.57 84.7729H248.698V83.7763C248.698 83.216 248.574 82.8174 248.325 82.5805C248.076 82.3437 247.697 82.2252 247.188 82.2252C246.725 82.2252 246.349 82.3639 246.059 82.6412C245.77 82.9127 245.625 83.2593 245.625 83.681H244.089C244.089 83.2015 244.23 82.7452 244.514 82.3119C244.798 81.8728 245.18 81.5291 245.66 81.2807C246.14 81.0323 246.676 80.9081 247.266 80.9081C248.227 80.9081 248.956 81.1478 249.453 81.6273C249.957 82.101 250.214 82.7943 250.226 83.707V88.4383C250.232 89.1604 250.33 89.7872 250.521 90.3187V90.4574H248.924ZM246.875 89.2355C247.251 89.2355 247.61 89.1316 247.952 88.9236C248.293 88.7156 248.542 88.4557 248.698 88.1437V85.908H247.83C247.101 85.9196 246.525 86.0842 246.103 86.402C245.68 86.7139 245.469 87.153 245.469 87.7191C245.469 88.2506 245.576 88.6376 245.79 88.8803C246.004 89.1171 246.366 89.2355 246.875 89.2355Z" fill="#878787"/>
<path d="M259.566 90.4574H258.038V86.454H254.653V90.4574H253.108V81.0814H254.653V85.1455H258.038V81.0814H259.566V90.4574Z" fill="#878787"/>
<path d="M267.448 81.0814H268.976V90.4574H267.448V83.6204L264.045 90.4574H262.509V81.0814H264.045V87.9271L267.448 81.0814Z" fill="#878787"/>
<path d="M277.926 81.0814V90.4574H276.389V86.8092H274.575L272.682 90.4574H271.033L273.064 86.5406C272.555 86.3211 272.167 85.9831 271.901 85.5268C271.635 85.0704 271.502 84.5418 271.502 83.941C271.502 83.0802 271.78 82.3899 272.335 81.87C272.891 81.3443 273.637 81.0814 274.575 81.0814H277.926ZM273.038 83.9583C273.038 84.4205 273.163 84.7931 273.412 85.0762C273.66 85.3534 273.996 85.4921 274.419 85.4921H276.389V82.3812H274.557C274.1 82.3812 273.733 82.5285 273.455 82.8231C273.177 83.112 273.038 83.4904 273.038 83.9583Z" fill="#878787"/>
<path d="M1.12882 111.332L1.58891 110.674C2.08661 109.911 2.37308 108.788 2.44832 107.303L2.57853 103.265H7.82178V111.332H8.91557V115.396H7.37906V112.641H2.04031V115.396H0.495117L0.503798 111.332H1.12882ZM2.83896 111.332H6.29395V104.747H4.07164L3.99351 107.034C3.91249 108.86 3.52764 110.292 2.83896 111.332Z" fill="#878787"/>
<path d="M17.6569 103.265V112.641H16.1204V104.591H13.6463L13.4987 107.771C13.4177 109.533 13.1804 110.784 12.7869 111.523C12.3934 112.257 11.7626 112.629 10.8945 112.641H10.3823V111.228L10.7729 111.194C11.2012 111.136 11.5021 110.85 11.6757 110.336C11.8551 109.816 11.9738 108.796 12.0317 107.277L12.1792 103.265H17.6569Z" fill="#878787"/>
<path d="M26.5892 103.265V112.641H25.0526V108.993H23.2383L21.3459 112.641H19.6965L21.7279 108.724C21.2186 108.505 20.8308 108.167 20.5646 107.71C20.2984 107.254 20.1653 106.725 20.1653 106.124C20.1653 105.264 20.4431 104.573 20.9987 104.053C21.5542 103.528 22.3008 103.265 23.2383 103.265H26.5892ZM21.7018 106.142C21.7018 106.604 21.8262 106.977 22.0751 107.26C22.3239 107.537 22.6596 107.676 23.0821 107.676H25.0526V104.565H23.221C22.7638 104.565 22.3963 104.712 22.1185 105.007C21.8407 105.295 21.7018 105.674 21.7018 106.142Z" fill="#878787"/>
<path d="M40.4431 103.265V112.641H38.9066V104.591H36.4326L36.285 107.771C36.204 109.533 35.9667 110.784 35.5732 111.523C35.1796 112.257 34.5488 112.629 33.6807 112.641H33.1686V111.228L33.5592 111.194C33.9875 111.136 34.2884 110.85 34.462 110.336C34.6414 109.816 34.7601 108.796 34.8179 107.277L34.9655 103.265H40.4431Z" fill="#878787"/>
<path d="M46.5975 112.814C45.4285 112.814 44.5315 112.467 43.9065 111.774C43.2814 111.075 42.9631 110.053 42.9516 108.707V107.572C42.9516 106.174 43.2554 105.079 43.8631 104.287C44.4765 103.49 45.3301 103.092 46.4239 103.092C47.5235 103.092 48.3453 103.441 48.8893 104.14C49.4333 104.839 49.7111 105.928 49.7227 107.407V108.412H44.4794V108.629C44.4794 109.634 44.6675 110.365 45.0437 110.821C45.4256 111.277 45.9725 111.506 46.6843 111.506C47.1358 111.506 47.5322 111.422 47.8736 111.254C48.2209 111.081 48.545 110.81 48.8459 110.44L49.6445 111.41C48.979 112.346 47.9633 112.814 46.5975 112.814ZM46.4239 104.409C45.7873 104.409 45.3157 104.628 45.0089 105.067C44.7022 105.5 44.5286 106.176 44.4881 107.095H48.1861V106.887C48.1456 105.997 47.9836 105.362 47.7 104.981C47.4222 104.599 46.9969 104.409 46.4239 104.409ZM43.594 100.761C43.594 100.501 43.6721 100.284 43.8283 100.111C43.9904 99.9315 44.2277 99.842 44.5402 99.842C44.8527 99.842 45.09 99.9315 45.252 100.111C45.414 100.284 45.4951 100.501 45.4951 100.761C45.4951 101.02 45.414 101.237 45.252 101.41C45.09 101.584 44.8527 101.67 44.5402 101.67C44.2277 101.67 43.9904 101.584 43.8283 101.41C43.6721 101.237 43.594 101.02 43.594 100.761ZM47.3267 100.778C47.3267 100.518 47.4049 100.298 47.5611 100.119C47.7232 99.9402 47.9604 99.8507 48.2729 99.8507C48.5855 99.8507 48.8227 99.9402 48.9848 100.119C49.1468 100.298 49.2278 100.518 49.2278 100.778C49.2278 101.038 49.1468 101.254 48.9848 101.428C48.8227 101.601 48.5855 101.688 48.2729 101.688C47.9604 101.688 47.7232 101.601 47.5611 101.428C47.4049 101.254 47.3267 101.038 47.3267 100.778Z" fill="#878787"/>
<path d="M57.0924 104.591H53.594V112.641H52.0488V103.265H57.0924V104.591Z" fill="#878787"/>
<path d="M61.4325 108.646H60.5644V112.641H59.0279V103.265H60.5644V107.234H61.3283L63.8892 103.265H65.7208L62.587 107.728L65.9465 112.641H64.0194L61.4325 108.646Z" fill="#878787"/>
<path d="M67.2657 107.52C67.2657 106.156 67.5956 105.079 68.2553 104.287C68.9208 103.49 69.7976 103.092 70.8856 103.092C71.9736 103.092 72.8475 103.479 73.5072 104.253C74.1728 105.027 74.5142 106.081 74.5316 107.416V108.403C74.5316 109.761 74.2017 110.835 73.542 111.627C72.8822 112.418 72.0025 112.814 70.903 112.814C69.815 112.814 68.9411 112.43 68.2813 111.662C67.6274 110.893 67.2888 109.853 67.2657 108.542V107.52ZM68.8022 108.403C68.8022 109.368 68.9903 110.128 69.3664 110.682C69.7484 111.231 70.2606 111.506 70.903 111.506C72.2572 111.506 72.9545 110.529 72.9951 108.577V107.52C72.9951 106.561 72.8041 105.804 72.4221 105.249C72.0402 104.689 71.528 104.409 70.8856 104.409C70.2548 104.409 69.7484 104.689 69.3664 105.249C68.9903 105.804 68.8022 106.558 68.8022 107.511V108.403Z" fill="#878787"/>
<path d="M81.9447 103.265H83.4725V112.641H81.9447V105.804L78.5418 112.641H77.0053V103.265H78.5418V110.11L81.9447 103.265ZM82.8475 99.8507C82.8475 100.55 82.6073 101.113 82.127 101.54C81.6524 101.962 81.0274 102.173 80.2519 102.173C79.4764 102.173 78.8485 101.959 78.3682 101.532C77.8878 101.104 77.6477 100.544 77.6477 99.8507H78.9585C78.9585 100.255 79.0684 100.573 79.2884 100.804C79.5083 101.029 79.8295 101.142 80.2519 101.142C80.657 101.142 80.9724 101.029 81.1981 100.804C81.4296 100.579 81.5454 100.261 81.5454 99.8507H82.8475Z" fill="#878787"/>
<path d="M97.3265 112.641H95.7987V104.591H92.4045V112.641H90.8593V103.265H97.3265V112.641Z" fill="#878787"/>
<path d="M106.927 108.403C106.927 109.888 106.658 110.994 106.12 111.722C105.587 112.45 104.832 112.814 103.854 112.814C102.911 112.814 102.185 112.459 101.675 111.748V116.246H100.147V103.265H101.536L101.615 104.305C102.13 103.496 102.867 103.092 103.828 103.092C104.858 103.092 105.628 103.45 106.137 104.166C106.647 104.882 106.91 105.954 106.927 107.381V108.403ZM105.399 107.528C105.399 106.477 105.237 105.703 104.913 105.206C104.589 104.703 104.068 104.452 103.351 104.452C102.616 104.452 102.057 104.819 101.675 105.552V110.431C102.051 111.147 102.616 111.506 103.368 111.506C104.063 111.506 104.572 111.257 104.896 110.76C105.226 110.258 105.394 109.492 105.399 108.464V107.528Z" fill="#878787"/>
<path d="M108.941 107.52C108.941 106.156 109.271 105.079 109.93 104.287C110.596 103.49 111.473 103.092 112.561 103.092C113.649 103.092 114.523 103.479 115.182 104.253C115.848 105.027 116.189 106.081 116.207 107.416V108.403C116.207 109.761 115.877 110.835 115.217 111.627C114.557 112.418 113.678 112.814 112.578 112.814C111.49 112.814 110.616 112.43 109.957 111.662C109.303 110.893 108.964 109.853 108.941 108.542V107.52ZM110.477 108.403C110.477 109.368 110.665 110.128 111.042 110.682C111.424 111.231 111.936 111.506 112.578 111.506C113.932 111.506 114.63 110.529 114.67 108.577V107.52C114.67 106.561 114.479 105.804 114.097 105.249C113.715 104.689 113.203 104.409 112.561 104.409C111.93 104.409 111.424 104.689 111.042 105.249C110.665 105.804 110.477 106.558 110.477 107.511V108.403Z" fill="#878787"/>
<path d="M123.151 110.518L125.669 103.265H127.578V112.641H126.051V106.176L123.681 112.641H122.63L120.208 106.02V112.641H118.68V103.265H120.66L123.151 110.518Z" fill="#878787"/>
<path d="M132.057 106.497H133.993C134.89 106.503 135.605 106.777 136.137 107.32C136.67 107.863 136.936 108.603 136.936 109.539C136.936 110.474 136.667 111.225 136.129 111.792C135.59 112.352 134.879 112.635 133.993 112.641H130.53V103.265H132.057V106.497ZM139.801 112.641H138.264V103.265H139.801V112.641ZM132.057 107.805V111.332H133.967C134.419 111.332 134.769 111.179 135.018 110.873C135.272 110.567 135.399 110.142 135.399 109.599C135.399 109.068 135.275 108.637 135.026 108.308C134.777 107.979 134.436 107.811 134.002 107.805H132.057Z" fill="#878787"/>
<path d="M144.514 103.265V111.332H147.162V103.265H148.69V111.332H151.346V103.265H152.882V112.641H142.969V103.265H144.514Z" fill="#878787"/>
<path d="M162.327 103.265V112.641H160.79V104.591H158.316L158.169 107.771C158.088 109.533 157.85 110.784 157.457 111.523C157.063 112.257 156.433 112.629 155.564 112.641H155.052V111.228L155.443 111.194C155.871 111.136 156.172 110.85 156.346 110.336C156.525 109.816 156.644 108.796 156.702 107.277L156.849 103.265H162.327Z" fill="#878787"/>
<path d="M168.481 112.814C167.312 112.814 166.415 112.467 165.79 111.774C165.165 111.075 164.847 110.053 164.835 108.707V107.572C164.835 106.174 165.139 105.079 165.747 104.287C166.36 103.49 167.214 103.092 168.308 103.092C169.407 103.092 170.229 103.441 170.773 104.14C171.317 104.839 171.595 105.928 171.606 107.407V108.412H166.363V108.629C166.363 109.634 166.551 110.365 166.927 110.821C167.309 111.277 167.856 111.506 168.568 111.506C169.019 111.506 169.416 111.422 169.757 111.254C170.105 111.081 170.429 110.81 170.73 110.44L171.528 111.41C170.863 112.346 169.847 112.814 168.481 112.814ZM168.308 104.409C167.671 104.409 167.199 104.628 166.893 105.067C166.586 105.5 166.412 106.176 166.372 107.095H170.07V106.887C170.029 105.997 169.867 105.362 169.584 104.981C169.306 104.599 168.881 104.409 168.308 104.409Z" fill="#878787"/>
<path d="M180.408 112.641H178.881V108.637H175.495V112.641H173.95V103.265H175.495V107.329H178.881V103.265H180.408V112.641Z" fill="#878787"/>
<path d="M189.81 112.641H188.282V108.637H184.896V112.641H183.351V103.265H184.896V107.329H188.282V103.265H189.81V112.641Z" fill="#878787"/>
<path d="M192.292 107.52C192.292 106.156 192.622 105.079 193.282 104.287C193.947 103.49 194.824 103.092 195.912 103.092C197 103.092 197.874 103.479 198.533 104.253C199.199 105.027 199.54 106.081 199.558 107.416V108.403C199.558 109.761 199.228 110.835 198.568 111.627C197.908 112.418 197.029 112.814 195.929 112.814C194.841 112.814 193.967 112.43 193.308 111.662C192.654 110.893 192.315 109.853 192.292 108.542V107.52ZM193.828 108.403C193.828 109.368 194.017 110.128 194.393 110.682C194.775 111.231 195.287 111.506 195.929 111.506C197.283 111.506 197.981 110.529 198.021 108.577V107.52C198.021 106.561 197.83 105.804 197.448 105.249C197.066 104.689 196.554 104.409 195.912 104.409C195.281 104.409 194.775 104.689 194.393 105.249C194.017 105.804 193.828 106.558 193.828 107.511V108.403Z" fill="#878787"/>
<path d="M205.157 111.506C205.666 111.506 206.074 111.35 206.381 111.038C206.687 110.72 206.855 110.269 206.884 109.686H208.334C208.299 110.587 207.978 111.335 207.37 111.93C206.768 112.519 206.03 112.814 205.157 112.814C203.993 112.814 203.105 112.45 202.492 111.722C201.884 110.989 201.58 109.9 201.58 108.455V107.424C201.58 106.009 201.884 104.934 202.492 104.201C203.099 103.461 203.985 103.092 205.148 103.092C206.109 103.092 206.87 103.395 207.431 104.001C207.998 104.608 208.299 105.437 208.334 106.488H206.884C206.849 105.795 206.682 105.275 206.381 104.929C206.085 104.582 205.675 104.409 205.148 104.409C204.465 104.409 203.959 104.634 203.629 105.085C203.299 105.529 203.128 106.263 203.117 107.286V108.481C203.117 109.585 203.279 110.365 203.603 110.821C203.933 111.277 204.451 111.506 205.157 111.506Z" fill="#878787"/>
<path d="M216.398 104.565H213.837V112.641H212.309V104.565H209.783V103.265H216.398V104.565Z" fill="#878787"/>
<path d="M223.447 103.265H224.974V112.641H223.447V105.804L220.044 112.641H218.507V103.265H220.044V110.11L223.447 103.265Z" fill="#878787"/>
<defs>
<linearGradient id="paint0_linear" x1="175.935" y1="53.6014" x2="175.935" y2="61.5307" gradientUnits="userSpaceOnUse">
<stop stop-color="#1B50A0"/>
<stop offset="1" stop-color="#2766C5"/>
</linearGradient>
<linearGradient id="paint1_linear" x1="30.4868" y1="0" x2="30.4868" y2="58.9008" gradientUnits="userSpaceOnUse">
<stop stop-color="#1B50A0"/>
<stop offset="1" stop-color="#2766C5"/>
</linearGradient>
<linearGradient id="paint2_linear" x1="175.603" y1="3.6752" x2="175.603" y2="42.8522" gradientUnits="userSpaceOnUse">
<stop stop-color="#1B50A0"/>
<stop offset="1" stop-color="#2766C5"/>
</linearGradient>
</defs>
</svg>
