<svg width="280" height="59" viewBox="0 0 280 59" fill="none" xmlns="http://www.w3.org/2000/svg">
<path fill-rule="evenodd" clip-rule="evenodd" d="M60.9736 -7.03182e-06V58.9008H2.83902e-06V-7.03182e-06H60.9736ZM47.2495 41.6165C46.4026 41.628 45.4849 41.4091 44.6953 41.0779C44.5403 41.0145 44.3888 40.9454 44.2445 40.8705C44.099 40.7985 43.9615 40.7207 43.8333 40.643C43.8089 40.6286 43.8277 40.6401 43.7972 40.6228L43.7588 40.5969L43.7331 40.6315L37.6707 48.4657H35.0958L32.6078 51.9479L16.7035 51.9681C15.2812 52.0055 14.2051 51.945 13.2653 51.6829C12.3263 51.4237 11.5192 50.96 10.6351 50.1881C9.67889 49.3557 8.7972 48.0423 8.2113 47.0573C8.0962 46.8643 7.99363 46.6857 7.90627 46.5273C7.81532 46.366 7.73869 46.2249 7.67697 46.1097V46.1068L7.67459 46.1039L7.66982 46.0982C7.45424 45.8447 7.25059 45.6575 6.99655 45.5336C6.74281 45.4126 6.44106 45.355 6.03108 45.3608C6.02064 45.3608 5.78658 45.3925 5.53731 45.5308C5.46396 45.5711 5.39061 45.6171 5.31816 45.6776C5.246 45.7381 5.17742 45.8102 5.11779 45.8908C4.95499 46.1155 4.85122 46.4351 4.90608 46.8758V46.8816L4.90817 46.8873C5.36497 48.0942 6.07073 49.2462 6.8102 50.2198C6.95481 50.4099 7.10032 50.5942 7.24344 50.7699C7.38686 50.9398 7.53236 51.1098 7.67697 51.2682L7.67906 51.2711C8.75426 52.5326 10.2672 53.5868 11.9969 54.1426C12.3335 54.2492 12.6782 54.3385 13.03 54.4076C13.3827 54.4739 13.7403 54.52 14.1025 54.5459C14.1025 54.5459 14.1085 54.5459 14.1142 54.5459C14.5137 54.5718 14.8166 54.5805 15.1184 54.592C15.2708 54.5949 15.4234 54.6006 15.591 54.6092H56.2751V51.9479H48.3804V48.4657H45.2452L50.0424 41.2363L50.1113 41.1298L49.989 41.1672C49.9574 41.1758 49.9285 41.1845 49.8981 41.1931C49.0549 41.4322 48.5271 41.5848 47.2483 41.6165H47.2495ZM21.5463 46.9536L21.594 47.256L21.6408 46.9536L22.533 41.0491V41.0405L22.5491 15.3488L23.4251 10.6828L23.4275 10.6799V10.677L23.3983 4.37221V4.32611H23.3517L21.5824 4.32323L19.7597 4.32611H19.712V4.37221L19.7388 10.6799V10.6885L20.6262 15.3689L20.6169 41.0866V41.0923L21.5463 46.9536ZM52.0562 31.2966C50.9685 29.966 49.2842 29.1105 47.4009 29.1105C44.1339 29.1105 41.47 31.6855 41.47 34.8393C41.47 35.81 41.7229 36.7259 42.1677 37.5295L52.0562 31.2966ZM47.4009 40.5681C50.6668 40.5681 53.3318 37.9961 53.3318 34.8393C53.3318 33.8687 53.079 32.9528 52.6329 32.1492L42.7444 38.382C43.8321 39.7127 45.5165 40.5681 47.4009 40.5681ZM42.6126 4.17633H42.5637V30.1964L42.6454 30.1186C43.4081 29.3928 44.1154 28.906 44.8757 28.5892C45.6352 28.2724 46.4483 28.1255 47.423 28.0794C48.7507 28.1399 49.7105 28.4107 50.4503 28.788C51.1898 29.1682 51.7092 29.652 52.1531 30.1388L52.2369 30.2281V4.17633H42.6126Z" fill="url(#paint0_linear)"/>
<path fill-rule="evenodd" clip-rule="evenodd" d="M73.7568 58.7259V51.0559H75.3383L77.2171 56.4851C77.3906 56.992 77.5177 57.3694 77.5958 57.6228C77.6864 57.3434 77.8262 56.9316 78.0195 56.393L79.9191 51.0559H81.3333V58.7259H80.3198V52.3059L78.0138 58.7259H77.0656L74.77 52.1993V58.7259H73.7568ZM90.9633 58.7259V51.0559H96.7019V51.9632H92.0126V54.3106H96.4049V55.2092H92.0126V57.8215H96.887V58.7259H90.9633ZM105.442 58.7259L108.514 54.7311L105.806 51.0559H107.056L108.498 53.0231C108.797 53.4321 109.009 53.746 109.135 53.9649C109.314 53.6855 109.522 53.3946 109.764 53.0922L111.362 51.0559H112.505L109.715 54.6706L112.721 58.7259H111.422L109.424 55.9897C109.311 55.8313 109.196 55.6614 109.076 55.477C108.899 55.7564 108.773 55.9465 108.697 56.0531L106.705 58.7259H105.442ZM120.687 58.7259L123.738 51.0559H124.868L128.118 58.7259H126.92L125.993 56.4016H122.674L121.804 58.7259H120.687ZM122.978 55.575H125.671L124.84 53.4523C124.589 52.8071 124.4 52.2771 124.279 51.8624C124.178 52.3549 124.034 52.8416 123.85 53.3284L122.978 55.575ZM136.901 58.7259V51.0559H137.953V54.2069H142.078V51.0559H143.13V58.7259H142.078V55.1112H137.953V58.7259H136.901ZM152.808 51.0559H153.759V57.1303L157.983 51.0559H159.04V58.7259H158.086V52.6688L153.857 58.7259H152.808V51.0559ZM168.243 56.56L169.244 56.3094C169.32 56.681 169.521 57.0554 169.852 57.427C170.183 57.7985 170.621 57.9886 171.166 57.9886C171.722 57.9886 172.161 57.8504 172.481 57.5739C172.802 57.2973 172.963 56.9661 172.963 56.5744C172.963 56.1539 172.793 55.8198 172.454 55.5692C172.114 55.3186 171.653 55.1948 171.068 55.1948H170.564V54.3106C171.048 54.3106 171.418 54.2817 171.675 54.2299C171.931 54.1752 172.157 54.0398 172.355 53.8151C172.551 53.5934 172.649 53.3428 172.649 53.0605C172.649 52.7264 172.516 52.4355 172.246 52.1878C171.978 51.9372 171.613 51.8163 171.156 51.8163C170.755 51.8163 170.413 51.9113 170.129 52.1043C169.845 52.3001 169.648 52.5536 169.541 52.8733C169.433 53.193 169.38 53.4321 169.38 53.5876L168.372 53.3687C168.621 51.7414 169.553 50.9263 171.166 50.9263C171.941 50.9263 172.557 51.1365 173.013 51.5513C173.468 51.966 173.695 52.4557 173.695 53.0145C173.695 53.7287 173.344 54.2818 172.643 54.6764C173.048 54.7858 173.386 55.0047 173.66 55.3388C173.932 55.6729 174.069 56.0704 174.069 56.5341C174.069 57.1937 173.804 57.7438 173.275 58.1902C172.747 58.6338 172.044 58.8555 171.171 58.8555C169.669 58.8555 168.693 58.0923 168.243 56.56ZM183.252 58.7259V51.0559H184.834L186.713 56.4851C186.887 56.992 187.013 57.3694 187.091 57.6228C187.182 57.3434 187.322 56.9316 187.515 56.393L189.415 51.0559H190.829V58.7259H189.816V52.3059L187.509 58.7259H186.562L184.265 52.1993V58.7259H183.252ZM209.598 51.0559H210.648V57.8215H213.284V51.0559H214.333V57.8215H216.972V51.0559H218.022V58.7259H209.598V51.0559ZM227.673 51.0559H228.625V57.1303L232.85 51.0559H233.905V58.7259H232.954V52.6688L228.723 58.7259H227.673V51.0559ZM245.561 58.7259V51.9632H242.946V51.0559H249.24V51.9632H246.61V58.7259H245.561ZM258.266 51.0559H259.318V54.3307H261.212C262.097 54.3307 262.735 54.4315 263.135 54.6303C263.531 54.829 263.815 55.0997 263.991 55.4396C264.163 55.7823 264.25 56.1337 264.25 56.4966C264.25 57.09 264.038 57.6113 263.621 58.0549C263.2 58.5013 262.422 58.7259 261.283 58.7259H258.266V51.0559ZM259.318 57.8619H261.238C262.02 57.8619 262.526 57.7294 262.765 57.4615C262.998 57.1937 263.117 56.874 263.117 56.4966C263.117 56.1913 263.03 55.9293 262.86 55.7161C262.687 55.5001 262.461 55.3618 262.178 55.2985C261.891 55.2351 261.405 55.2034 260.723 55.2034H259.318V57.8619ZM279.701 58.7259V51.0559H276.18C275.473 51.0559 274.936 51.125 274.567 51.2632C274.2 51.4015 273.905 51.6434 273.684 51.992C273.463 52.3433 273.356 52.7293 273.356 53.1498C273.356 53.6942 273.535 54.1521 273.902 54.5237C274.265 54.8981 274.829 55.1343 275.592 55.2351C275.312 55.3647 275.1 55.4914 274.957 55.6182C274.65 55.8889 274.361 56.2317 274.084 56.6378L272.703 58.7259H274.027L275.073 57.1303C275.384 56.6694 275.634 56.3181 275.837 56.0733C276.034 55.8284 276.209 55.6585 276.368 55.5606C276.526 55.4626 276.684 55.3964 276.848 55.3561C276.967 55.333 277.161 55.3215 277.432 55.3215H278.651V58.7259H279.701ZM278.651 54.443H276.391C275.911 54.443 275.536 54.3941 275.264 54.299C274.996 54.2011 274.787 54.0484 274.647 53.8353C274.507 53.6251 274.438 53.3975 274.438 53.1498C274.438 52.7869 274.573 52.4874 274.847 52.2541C275.118 52.0208 275.548 51.9055 276.138 51.9055H278.651V54.443Z" fill="url(#paint1_linear)"/>
<path fill-rule="evenodd" clip-rule="evenodd" d="M73 39.405L77.9967 5.77541C78.4312 2.69644 79.8081 1.15841 82.1246 1.15841C84.1524 1.15841 85.5467 2.41708 86.307 4.93441L95.0517 31.8502L103.742 4.93441C104.502 2.41708 105.897 1.15841 107.924 1.15841C110.241 1.15841 111.618 2.69644 112.052 5.77541L117.049 39.405H112.052L107.598 8.29277L98.6369 36.0467C97.7669 38.6015 96.573 39.8774 95.0517 39.8774C94.1829 39.8774 93.4771 39.5808 92.9332 38.9874C92.3906 38.3912 91.884 37.4119 91.412 36.0467L82.4508 8.29277L78.0516 39.405H73ZM125.77 1.68261V25.1882C125.77 31.9712 128.559 35.3641 134.135 35.3641C136.67 35.3641 138.734 34.526 140.327 32.8468C141.775 31.3087 142.499 29.5258 142.499 27.4953V1.68261H147.714V39.4598H142.499V36.4154C141.884 37.5703 140.752 38.4805 139.105 39.143C137.457 39.8083 135.801 40.1395 134.135 40.1395C130.08 40.1395 126.802 38.829 124.304 36.2051C121.806 33.5812 120.557 29.9953 120.557 25.4503V1.68261H125.77ZM154.947 1.68261H162.008C165.448 1.68261 168.236 2.40845 170.372 3.86009C172.508 5.31172 173.576 7.43734 173.576 10.234C173.576 14.2577 172.11 16.7232 169.177 17.6334C171.784 19.1023 173.559 20.9024 174.5 23.0367C175.151 24.5056 175.477 26.4123 175.477 28.7568C175.477 31.9395 174.373 34.5778 172.165 36.6775C169.739 38.9874 166.386 40.2864 162.117 40.1395L155.559 40.177L152.911 40.1597L152.909 35.3382L162.013 35.318C164.692 35.3122 166.906 34.7074 168.415 33.2673C169.726 32.0173 170.371 30.4677 170.371 28.6503C170.371 25.7815 169.52 23.6991 167.818 22.4059C166.37 21.2884 164.267 20.7296 161.518 20.7296H156.63V16.0579H162.876C164.794 16.0579 166.218 15.6892 167.139 14.9576C168.062 14.2231 168.525 12.9443 168.525 11.1269C168.525 7.94425 166.386 6.35146 162.115 6.35146H154.947V1.68261ZM185.557 1.68261V25.1882C185.557 31.9683 188.345 35.3641 193.922 35.3641C196.456 35.3641 198.52 34.526 200.114 32.8468C201.561 31.3087 202.285 29.5258 202.285 27.4953V1.68261H207.5V39.4598H202.285V36.4154C201.671 37.5703 200.536 38.4805 198.892 39.143C197.246 39.8054 195.587 40.1395 193.922 40.1395C189.866 40.1395 186.589 38.829 184.091 36.2051C181.592 33.5812 180.343 29.9953 180.343 25.4503V1.68261H185.557ZM230.015 0.999996C234.07 0.999996 237.347 2.31339 239.845 4.93441C242.344 7.5583 243.593 11.1471 243.593 15.6921V34.7881H246.796V39.4598H213.284V34.7881H216.436V15.6921C216.436 11.1442 217.688 7.55542 220.184 4.93441C222.68 2.31339 225.959 0.999996 230.015 0.999996ZM221.648 15.9542V34.7881H238.378V15.9542C238.378 9.16836 235.59 5.77541 230.015 5.77541C227.334 5.77541 225.271 6.63086 223.822 8.34748C222.373 10.0612 221.648 12.5987 221.648 15.9542ZM274.579 39.4598V25.7643H257.852V39.4598H252.637V15.7439C252.637 11.1615 253.889 7.55542 256.385 4.93441C258.88 2.31339 262.16 0.999996 266.215 0.999996C270.27 0.999996 273.547 2.31339 276.046 4.93441C278.545 7.5583 279.794 11.1644 279.794 15.7439V39.4598H274.579ZM266.215 5.66885C263.535 5.66885 261.471 6.52717 260.022 8.24091C258.573 9.95465 257.852 12.495 257.852 15.8476V20.9917H274.579V15.8476C274.579 9.06467 271.791 5.66885 266.215 5.66885Z" fill="url(#paint2_linear)"/>
<defs>
<linearGradient id="paint0_linear" x1="30.4868" y1="0" x2="30.4868" y2="58.9008" gradientUnits="userSpaceOnUse">
<stop stop-color="#1B50A0"/>
<stop offset="1" stop-color="#2766C5"/>
</linearGradient>
<linearGradient id="paint1_linear" x1="176.729" y1="50.9263" x2="176.729" y2="58.8556" gradientUnits="userSpaceOnUse">
<stop stop-color="#1B50A0"/>
<stop offset="1" stop-color="#2766C5"/>
</linearGradient>
<linearGradient id="paint2_linear" x1="176.397" y1="1" x2="176.397" y2="40.177" gradientUnits="userSpaceOnUse">
<stop stop-color="#1B50A0"/>
<stop offset="1" stop-color="#2766C5"/>
</linearGradient>
</defs>
</svg>
