<svg id="Layer_1" data-name="Layer 1" xmlns="http://www.w3.org/2000/svg" viewBox="0 0 86 95"><defs><style>.cls-1{fill:#fff;}</style></defs><title>logo_small</title><rect width="86" height="95"/><polygon points="86 0 86 34.51 42.5 8.62 0 33.91 0 0 86 0"/><polygon class="cls-1" points="0 45.55 42.5 20.26 86 46.14 86 34.51 42.5 8.62 0 33.91 0 45.55"/><rect class="cls-1" x="64.5" y="12.6" width="10" height="17.4"/><polygon class="cls-1" points="52.59 72.09 49.85 72.09 49.85 69.35 47.11 69.35 47.11 66.61 44.37 66.61 44.37 63.87 41.63 63.87 41.63 66.61 38.89 66.61 38.89 69.35 36.15 69.35 36.15 72.09 33.41 72.09 33.41 74.84 30.66 74.84 30.66 85.8 33.41 85.8 33.41 83.06 36.15 83.06 36.15 80.32 38.89 80.32 38.89 77.58 41.63 77.58 41.63 74.84 44.37 74.84 44.37 77.58 47.11 77.58 47.11 80.32 49.85 80.32 49.85 83.06 52.59 83.06 52.59 85.8 55.34 85.8 55.34 74.84 52.59 74.84 52.59 72.09"/><polygon class="cls-1" points="58.08 61.13 58.08 58.39 60.82 58.39 60.82 55.65 63.56 55.65 63.56 52.91 66.3 52.91 66.3 50.16 55.34 50.16 55.34 52.91 52.59 52.91 52.59 55.65 49.85 55.65 49.85 58.39 47.11 58.39 47.11 61.13 44.37 61.13 44.37 63.87 47.11 63.87 47.11 66.61 49.85 66.61 49.85 69.35 52.59 69.35 52.59 72.09 55.34 72.09 55.34 74.84 66.3 74.84 66.3 72.09 63.56 72.09 63.56 69.35 60.82 69.35 60.82 66.61 58.08 66.61 58.08 63.87 55.34 63.87 55.34 61.13 58.08 61.13"/><polygon class="cls-1" points="33.41 52.91 36.15 52.91 36.15 55.65 38.89 55.65 38.89 58.39 41.63 58.39 41.63 61.13 44.37 61.13 44.37 58.39 47.11 58.39 47.11 55.65 49.85 55.65 49.85 52.91 52.59 52.91 52.59 50.16 55.34 50.16 55.34 39.2 52.59 39.2 52.59 41.94 49.85 41.94 49.85 44.68 47.11 44.68 47.11 47.42 44.37 47.42 44.37 50.16 41.63 50.16 41.63 47.42 38.89 47.42 38.89 44.68 36.15 44.68 36.15 41.94 33.41 41.94 33.41 39.2 30.66 39.2 30.66 50.16 33.41 50.16 33.41 52.91"/><polygon class="cls-1" points="33.41 72.09 33.41 69.35 36.15 69.35 36.15 66.61 38.89 66.61 38.89 63.87 41.63 63.87 41.63 61.13 38.89 61.13 38.89 58.39 36.15 58.39 36.15 55.65 33.41 55.65 33.41 52.91 30.66 52.91 30.66 50.16 19.7 50.16 19.7 52.91 22.44 52.91 22.44 55.65 25.18 55.65 25.18 58.39 27.92 58.39 27.92 61.13 30.66 61.13 30.66 63.87 27.92 63.87 27.92 66.61 25.18 66.61 25.18 69.35 22.44 69.35 22.44 72.09 19.7 72.09 19.7 74.84 30.66 74.84 30.66 72.09 33.41 72.09"/></svg>