<svg id="Layer_1" data-name="Layer 1" xmlns="http://www.w3.org/2000/svg" viewBox="0 0 479.59 123.79"><defs><style>.cls-1,.cls-2,.cls-3,.cls-4,.cls-5{fill:none;stroke:#fff;stroke-linecap:round;}.cls-1,.cls-4{stroke-miterlimit:10;}.cls-1,.cls-2{stroke-width:6px;}.cls-2,.cls-3,.cls-5{stroke-linejoin:round;}.cls-3{stroke-width:6.06px;}.cls-4,.cls-5{stroke-width:4.78px;}.cls-6{fill:#fff;}</style></defs><title>logo</title><line class="cls-1" x1="3" y1="52.63" x2="117.43" y2="52.63"/><line class="cls-1" x1="3" y1="120.79" x2="117.43" y2="120.79"/><line class="cls-1" x1="9.47" y1="52.63" x2="9.47" y2="120.79"/><line class="cls-1" x1="61.21" y1="52.63" x2="61.21" y2="120.79"/><line class="cls-1" x1="111.96" y1="52.63" x2="111.96" y2="120.79"/><rect class="cls-2" x="74.65" y="79" width="24.38" height="28.36"/><path class="cls-3" d="M68.18,33.73h37.3a0,0,0,0,1,0,0v3.83A15.08,15.08,0,0,1,90.41,52.63H83.26A15.08,15.08,0,0,1,68.18,37.56V33.73A0,0,0,0,1,68.18,33.73Z"/><line class="cls-1" x1="74.65" y1="66.07" x2="99.02" y2="66.07"/><line class="cls-1" x1="23.15" y1="66.07" x2="47.53" y2="66.07"/><path class="cls-4" d="M78.15,22.29c6-10-7-10,0-19.9"/><path class="cls-4" d="M86.28,22.29c6-10-7-10,0-19.9"/><path class="cls-4" d="M94.4,22.29c6-10-7-10,0-19.9"/><line class="cls-4" x1="8" y1="2.39" x2="59.21" y2="2.39"/><line class="cls-4" x1="22.15" y1="2.39" x2="22.15" y2="22.29"/><line class="cls-4" x1="46.53" y1="2.39" x2="46.53" y2="22.29"/><circle class="cls-4" cx="22.15" cy="29.63" r="7.33"/><path class="cls-5" d="M46.15,22.29h0a7.33,7.33,0,0,1,7.33,7.33V37a0,0,0,0,1,0,0H38.82a0,0,0,0,1,0,0V29.63A7.33,7.33,0,0,1,46.15,22.29Z"/><path class="cls-6" d="M164.92,47q-6.68-1.92-9.72-4.72a9,9,0,0,1-3-6.91,9.52,9.52,0,0,1,3.72-7.69,14.77,14.77,0,0,1,9.67-3,16.13,16.13,0,0,1,7.23,1.57,11.89,11.89,0,0,1,4.92,4.33,11.06,11.06,0,0,1,1.74,6h-5.22A7.2,7.2,0,0,0,172,30.9a9.24,9.24,0,0,0-6.41-2,9.46,9.46,0,0,0-6,1.69,5.65,5.65,0,0,0-2.15,4.7,5.08,5.08,0,0,0,2,4.08,20,20,0,0,0,7,3,32.24,32.24,0,0,1,7.68,3,11.65,11.65,0,0,1,4.11,3.88,9.9,9.9,0,0,1,1.34,5.22,9.2,9.2,0,0,1-3.73,7.67q-3.73,2.88-10,2.88a18.51,18.51,0,0,1-7.57-1.55,12.75,12.75,0,0,1-5.42-4.26,10.39,10.39,0,0,1-1.91-6.14h5.22a6.78,6.78,0,0,0,2.64,5.64,11.1,11.1,0,0,0,7,2.07,10.2,10.2,0,0,0,6.3-1.68,5.44,5.44,0,0,0,2.19-4.57,5.34,5.34,0,0,0-2-4.48Q170.25,48.51,164.92,47Z"/><path class="cls-6" d="M184.07,49.62a17.28,17.28,0,0,1,1.69-7.73,12.6,12.6,0,0,1,4.71-5.3,12.8,12.8,0,0,1,6.88-1.87A12.34,12.34,0,0,1,207,38.86q3.69,4.14,3.69,11v.35a17.43,17.43,0,0,1-1.64,7.67,12.43,12.43,0,0,1-4.68,5.29,13,13,0,0,1-7,1.89,12.31,12.31,0,0,1-9.64-4.14q-3.69-4.14-3.69-11Zm5,.6A12.52,12.52,0,0,0,191.35,58a7.65,7.65,0,0,0,12.1,0q2.24-3,2.24-8.37a12.5,12.5,0,0,0-2.29-7.8,7.27,7.27,0,0,0-6.07-3,7.18,7.18,0,0,0-6,2.95Q189.1,44.72,189.1,50.21Z"/><path class="cls-6" d="M235,61.63q-2.92,3.43-8.57,3.43-4.68,0-7.13-2.72t-2.47-8v-19h5v18.9q0,6.65,5.41,6.65,5.73,0,7.63-4.27V35.26h5V64.52h-4.76Z"/><path class="cls-6" d="M252.94,64.52h-5V23h5Z"/><path class="cls-6" d="M268.44,25.14l12.87,32.13,12.87-32.13h6.73V64.52h-5.19V49.19l.49-16.55L283.29,64.52h-4l-12.9-31.8.51,16.47V64.52h-5.19V25.14Z"/><path class="cls-6" d="M321.44,65.06a12.78,12.78,0,0,1-9.68-3.91Q308,57.24,308,50.7v-.92A17.56,17.56,0,0,1,309.69,42a13,13,0,0,1,4.65-5.36,11.71,11.71,0,0,1,6.48-1.93q5.7,0,8.87,3.76t3.16,10.76v2.08H313a10.4,10.4,0,0,0,2.53,7A7.94,7.94,0,0,0,321.71,61a8.71,8.71,0,0,0,4.49-1.08A11.27,11.27,0,0,0,329.42,57l3.05,2.38Q328.8,65.06,321.44,65.06Zm-.62-26.23a6.67,6.67,0,0,0-5.08,2.2,10.71,10.71,0,0,0-2.54,6.18h14.66v-.38a9.53,9.53,0,0,0-2.05-5.91A6.29,6.29,0,0,0,320.82,38.83Z"/><path class="cls-6" d="M363.41,50.21q0,6.71-3.08,10.78a9.85,9.85,0,0,1-8.28,4.07,10.2,10.2,0,0,1-8.57-3.92l-.24,3.38h-4.6V23h5v15.5A10.14,10.14,0,0,1,352,34.72a9.91,9.91,0,0,1,8.37,4q3,4,3,11Zm-5-.57q0-5.11-2-7.9A6.54,6.54,0,0,0,350.76,39a7.34,7.34,0,0,0-7.11,4.6V56.22a7.55,7.55,0,0,0,7.17,4.6,6.5,6.5,0,0,0,5.6-2.79Q358.41,55.24,358.41,49.65Z"/><path class="cls-6" d="M381.86,65.06a12.78,12.78,0,0,1-9.68-3.91q-3.73-3.91-3.73-10.45v-.92A17.54,17.54,0,0,1,370.11,42a13,13,0,0,1,4.65-5.36,11.7,11.7,0,0,1,6.48-1.93q5.7,0,8.87,3.76t3.16,10.76v2.08H373.45a10.4,10.4,0,0,0,2.53,7A8,8,0,0,0,382.13,61a8.72,8.72,0,0,0,4.49-1.08A11.28,11.28,0,0,0,389.83,57l3.06,2.38Q389.21,65.06,381.86,65.06Zm-.62-26.23a6.67,6.67,0,0,0-5.08,2.2,10.71,10.71,0,0,0-2.54,6.18h14.66v-.38a9.53,9.53,0,0,0-2.06-5.91A6.28,6.28,0,0,0,381.23,38.83Z"/><path class="cls-6" d="M404.49,64.52h-5V23h5Z"/><path class="cls-6" d="M412.6,61.9a3.13,3.13,0,0,1,.77-2.16,2.94,2.94,0,0,1,2.31-.87,3,3,0,0,1,2.34.87,3.07,3.07,0,0,1,.8,2.16A2.9,2.9,0,0,1,418,64a3.08,3.08,0,0,1-2.34.84,3,3,0,0,1-2.31-.84A3,3,0,0,1,412.6,61.9Z"/><path class="cls-6" d="M451.84,50.21q0,6.71-3.08,10.78a9.85,9.85,0,0,1-8.28,4.07,10.2,10.2,0,0,1-8.57-3.92l-.24,3.38h-4.6V23h5v15.5a10.14,10.14,0,0,1,8.36-3.76,9.91,9.91,0,0,1,8.37,4q3,4,3,11Zm-5-.57q0-5.11-2-7.9A6.54,6.54,0,0,0,439.19,39a7.34,7.34,0,0,0-7.11,4.6V56.22a7.55,7.55,0,0,0,7.17,4.6,6.5,6.5,0,0,0,5.6-2.79Q446.84,55.24,446.84,49.65Z"/><path class="cls-6" d="M467.42,57.19l6.81-21.93h5.35L467.82,69q-2.73,7.3-8.68,7.3l-.95-.08-1.87-.35V71.85l1.35.11a6.66,6.66,0,0,0,4-1A7.43,7.43,0,0,0,464,67.17l1.11-3L454.65,35.26h5.46Z"/><path class="cls-6" d="M156,97.39l.85-1a10,10,0,0,0,1.63-5.57l.23-5.73H168V97.39h1.84v6.22h-2.45V99.39h-10v4.22h-2.45V97.39Zm2.91,0h6.59V87.31H161.1L161,90.73A11.87,11.87,0,0,1,158.92,97.39Z"/><path class="cls-6" d="M184.3,85V99.39h-2.47V87.07h-4.88l-.29,5.37a11.87,11.87,0,0,1-1.24,5.29,3.62,3.62,0,0,1-3.18,1.66h-1V97.23l.7-.05a2,2,0,0,0,1.71-1.38,15.55,15.55,0,0,0,.66-4.62L174.6,85Z"/><path class="cls-6" d="M199.21,85V99.39h-2.47V93.81H193l-3.38,5.58H187l3.61-6a4.29,4.29,0,0,1-2.12-1.56,4.2,4.2,0,0,1-.74-2.46,3.88,3.88,0,0,1,1.47-3.16A6.1,6.1,0,0,1,193.17,85Zm-9,4.4a2.17,2.17,0,0,0,.72,1.69,2.78,2.78,0,0,0,1.9.66h3.9V87h-3.53a3.31,3.31,0,0,0-2.18.67A2.16,2.16,0,0,0,190.23,89.44Z"/><path class="cls-6" d="M210.1,99.39V85h5.6a8,8,0,0,1,4.4,1A3.29,3.29,0,0,1,221.63,89a2.93,2.93,0,0,1-.6,1.8A3.69,3.69,0,0,1,219.27,92a3.9,3.9,0,0,1,2.09,1.19,3.09,3.09,0,0,1,.79,2.12,3.5,3.5,0,0,1-1.45,3,6.93,6.93,0,0,1-4.11,1Zm2.45-8.26h3.17q3.45,0,3.45-2T215.91,87h-3.36Zm0,2v4.32h4.06a3.83,3.83,0,0,0,2.3-.57,1.89,1.89,0,0,0,.76-1.61q0-2.15-3.16-2.15Z"/><path class="cls-6" d="M234.26,99.39a5.16,5.16,0,0,1-.34-1.51,5.48,5.48,0,0,1-4.09,1.78,5.07,5.07,0,0,1-3.48-1.2,3.89,3.89,0,0,1-1.36-3,4.06,4.06,0,0,1,1.7-3.48,8,8,0,0,1,4.8-1.24h2.39V89.56a2.76,2.76,0,0,0-.77-2.05,3.1,3.1,0,0,0-2.27-.76,3.58,3.58,0,0,0-2.2.66,2,2,0,0,0-.89,1.61h-2.47a3.38,3.38,0,0,1,.76-2.08,5.21,5.21,0,0,1,2.07-1.59,7,7,0,0,1,2.87-.58A5.67,5.67,0,0,1,234.87,86a4.47,4.47,0,0,1,1.46,3.42V96a8.08,8.08,0,0,0,.5,3.14v.21Zm-4.07-1.87a4.31,4.31,0,0,0,2.19-.6,3.61,3.61,0,0,0,1.5-1.55V92.43H232q-4.51,0-4.51,2.64a2.23,2.23,0,0,0,.77,1.8A3,3,0,0,0,230.19,97.52Z"/><path class="cls-6" d="M242.85,85V97.39h5.25V85h2.45V97.39h5.24V85h2.47V99.39H240.39V85Z"/><path class="cls-6" d="M268.1,99.66a6.27,6.27,0,0,1-4.75-1.92,7.12,7.12,0,0,1-1.83-5.13v-.45a8.61,8.61,0,0,1,.82-3.81,6.36,6.36,0,0,1,2.28-2.63,5.74,5.74,0,0,1,3.18-.95,5.38,5.38,0,0,1,4.35,1.84,8,8,0,0,1,1.55,5.28v1H264a5.1,5.1,0,0,0,1.24,3.43,3.9,3.9,0,0,0,3,1.31,4.27,4.27,0,0,0,2.2-.53A5.53,5.53,0,0,0,272,95.72l1.5,1.17A6,6,0,0,1,268.1,99.66Zm-.31-12.87a3.27,3.27,0,0,0-2.49,1.08,5.25,5.25,0,0,0-1.25,3h7.19v-.19a4.67,4.67,0,0,0-1-2.9A3.08,3.08,0,0,0,267.79,86.79Z"/><path class="cls-6" d="M285.82,85h2.45V99.39h-2.45V88.93L279.2,99.39h-2.45V85h2.45V95.52Zm.66-5.24a3.31,3.31,0,0,1-1.1,2.59,4.7,4.7,0,0,1-5.75,0,3.3,3.3,0,0,1-1.1-2.58h2a2,2,0,0,0,.5,1.45,1.94,1.94,0,0,0,1.47.52,1.81,1.81,0,0,0,2-2Z"/><path class="cls-6" d="M298.82,97.39l.85-1a10,10,0,0,0,1.63-5.57l.23-5.73h9.25V97.39h1.84v6.22h-2.45V99.39h-10v4.22H297.7V97.39Zm2.91,0h6.59V87.31H303.9l-.15,3.42A11.87,11.87,0,0,1,301.73,97.39Z"/><path class="cls-6" d="M320,95.8,323.38,85H326l-5.77,16.57q-1.34,3.58-4.26,3.58l-.46,0-.92-.17v-2l.66.05a3.26,3.26,0,0,0,1.94-.5,3.65,3.65,0,0,0,1.15-1.84l.54-1.46L313.77,85h2.68Z"/><path class="cls-6" d="M330.87,85V97.39h5.25V85h2.45V97.39h5.24V85h2.47V99.39H328.41V85Z"/><path class="cls-6" d="M359.45,85h2.45V99.39h-2.45V88.93l-6.62,10.47h-2.45V85h2.45V95.52Z"/></svg>