<svg xmlns="http://www.w3.org/2000/svg" viewBox="0 0 188.94 66.88"><defs><style>.cls-1{fill:#33271f;}.cls-2{fill:url(#linear-gradient);}.cls-3{fill:#714231;}.cls-4{fill:#fff;}</style><linearGradient id="linear-gradient" x1="2.11" y1="61.13" x2="50.14" y2="14.19" gradientUnits="userSpaceOnUse"><stop offset="0" stop-color="#86785f"/><stop offset="0.09" stop-color="#7b6a52"/><stop offset="0.3" stop-color="#655038"/><stop offset="0.52" stop-color="#563e26"/><stop offset="0.75" stop-color="#4d331c"/><stop offset="1" stop-color="#4a2f18"/></linearGradient></defs><title>logo_big</title><g id="Layer_2" data-name="Layer 2"><path class="cls-1" d="M5.19,64.25,1.5,57.31s6.31-8.87,6.31-18.06S1,24.38,1,24.38L2.81,13.81S11.94,14,17.81,1H34s4.63,12.13,13.38,11.38a16.84,16.84,0,0,1,6.69,6.69s-7.75,7.69-7.75,18.81,7.25,15.19,7.25,15.19a22.8,22.8,0,0,1-2.25,10.56A24.23,24.23,0,0,0,29,66.88S17.94,61.38,5.19,64.25Z"/><path class="cls-2" d="M4.19,63.25.5,56.31s6.31-8.87,6.31-18.06S0,23.38,0,23.38L1.81,12.81S10.94,13,16.81,0H33s4.63,12.13,13.38,11.38a16.84,16.84,0,0,1,6.69,6.69s-7.75,7.69-7.75,18.81,7.25,15.19,7.25,15.19a22.8,22.8,0,0,1-2.25,10.56A24.23,24.23,0,0,0,28,65.88S16.94,60.38,4.19,63.25Z"/><path class="cls-3" d="M73.47,39H59a5.23,5.23,0,0,0,1.76,3.92,7.29,7.29,0,0,0,4.78,1.36,9.84,9.84,0,0,0,3.88-.8,11.79,11.79,0,0,0,3-1.71h.7v5.61a21.82,21.82,0,0,1-4,1.38,19.13,19.13,0,0,1-4.2.43q-5.93,0-9.09-3t-3.16-8.41a11.93,11.93,0,0,1,3-8.56,10.77,10.77,0,0,1,8.21-3.16q4.81,0,7.23,2.69t2.42,7.74Zm-6.29-4.1a5.24,5.24,0,0,0-1-3.3,3.57,3.57,0,0,0-2.9-1.11,4.34,4.34,0,0,0-3,1A4.7,4.7,0,0,0,59,34.89Z"/><path class="cls-3" d="M98.54,48.6H91.16l-4.21-6.53L82.62,48.6H75.4l7.78-10.92-7.65-10.9h7.37L87,33.19l4.17-6.4h7.25L90.78,37.53Z"/><path class="cls-3" d="M108.49,23.67H101.8v-5.3h6.69Zm-.18,24.93H102V26.78h6.34Z"/><path class="cls-3" d="M133.53,33.14V48.6h-6.34V37.7q0-1.59-.07-2.71a5.26,5.26,0,0,0-.39-1.82,2,2,0,0,0-1-1,4.1,4.1,0,0,0-1.8-.32,4.16,4.16,0,0,0-1.81.42,12.74,12.74,0,0,0-1.58.88V48.6h-6.34V26.78h6.34v2.41A17.21,17.21,0,0,1,123.71,27a6.88,6.88,0,0,1,3.3-.8,6.2,6.2,0,0,1,3.44,1A6.39,6.39,0,0,1,132.78,30a19.62,19.62,0,0,1,3.68-2.78,7.1,7.1,0,0,1,3.51-1,5.78,5.78,0,0,1,4.85,2.12,9.73,9.73,0,0,1,1.66,6.1V48.6h-6.34V37.7q0-1.61-.06-2.72a5.15,5.15,0,0,0-.38-1.81,2,2,0,0,0-.95-1,4.21,4.21,0,0,0-1.83-.32,4.14,4.14,0,0,0-1.54.3A11.4,11.4,0,0,0,133.53,33.14Z"/><path class="cls-3" d="M164.25,46.29l-1.26,1a9.2,9.2,0,0,1-1.42,1,8.41,8.41,0,0,1-1.93.69,10.08,10.08,0,0,1-2.2.22,6.34,6.34,0,0,1-4.71-1.92,6.71,6.71,0,0,1-1.9-4.92,7.15,7.15,0,0,1,1-3.91,6.63,6.63,0,0,1,2.74-2.39,14.29,14.29,0,0,1,4.35-1.24q2.6-.37,5.39-.54v-.12a2.56,2.56,0,0,0-1.33-2.5A8.83,8.83,0,0,0,159,31a10.25,10.25,0,0,0-3.34.61q-1.77.61-2.54.94h-.58V27.25q1-.29,3.26-.69a26,26,0,0,1,4.52-.4q5.39,0,7.79,1.84t2.4,5.76V48.6h-6.27Zm0-3.4V38.36q-1.28.12-2.77.32a12.24,12.24,0,0,0-2.27.47,3.08,3.08,0,0,0-1.45,1,2.58,2.58,0,0,0-.5,1.66,4.73,4.73,0,0,0,.11,1.1,1.67,1.67,0,0,0,.53.81,2.5,2.5,0,0,0,1,.57,6.12,6.12,0,0,0,1.76.18,4.78,4.78,0,0,0,1.92-.43A5.94,5.94,0,0,0,164.25,42.9Z"/><path class="cls-3" d="M188.94,48.41a16.34,16.34,0,0,1-2.16.46A20,20,0,0,1,184,49q-3.69,0-5.49-1.65t-1.8-5.65V31.52h-2.6V26.78h2.6V20.55H183v6.24h5.9v4.74H183v7.74q0,1.15,0,2a4.54,4.54,0,0,0,.28,1.54,2.1,2.1,0,0,0,.87,1.08,3.37,3.37,0,0,0,1.81.4,4.83,4.83,0,0,0,1.29-.23,5,5,0,0,0,1.11-.43h.53Z"/><path class="cls-4" d="M39.24,25.92H29.9V52.61H22.19V25.92H12.85v-6.4H39.24Z"/></g></svg>