<svg id="Layer_1" data-name="Layer 1" xmlns="http://www.w3.org/2000/svg" viewBox="0 0 209.83 154.02"><defs><style>.cls-1{fill:#01913e;}.cls-2{fill:#fff;}.cls-3{fill:none;}</style></defs><title>logo_small</title><path class="cls-1" d="M188.5,154S6.5,159.5,0,0C29,48.5,102.5,24,144,55,189.33,88.86,171.5,125.5,188.5,154Z"/><path class="cls-2" d="M104.15,98.17V57.32h30.29v6.91h-22v9.06h20.51v6.88H112.4V91.29h22.82v6.88Z"/><path class="cls-3" d="M164.09,73.17A5.49,5.49,0,0,0,165,70a5.28,5.28,0,0,0-1.31-3.68,5.71,5.71,0,0,0-3.32-1.81,37.68,37.68,0,0,0-5.6-.28A81.27,81.27,0,0,1,163.32,74,5.25,5.25,0,0,0,164.09,73.17Z"/><path class="cls-1" d="M160.39,64.51a5.71,5.71,0,0,1,3.32,1.81A5.28,5.28,0,0,1,165,70a5.49,5.49,0,0,1-.93,3.18,5.25,5.25,0,0,1-.77.87,72.37,72.37,0,0,1,4.42,6.79c.32-.19.63-.38.95-.6a11.2,11.2,0,0,0,3.47-4,13.33,13.33,0,0,0,1.37-6.33,12.68,12.68,0,0,0-2.37-8,10.72,10.72,0,0,0-5.88-4q-2.29-.61-9.81-.61H147a99.91,99.91,0,0,1,7.81,6.91A37.68,37.68,0,0,1,160.39,64.51Z"/><path class="cls-2" d="M142.22,98.17h8.25V82.76h5.38a47.14,47.14,0,0,0,8.56-.58,11.4,11.4,0,0,0,3.33-1.34A72.37,72.37,0,0,0,163.32,74a5.61,5.61,0,0,1-1.81,1.13q-1.65.64-6.52.64h-4.51V64.23h4.32A99.91,99.91,0,0,0,147,57.32h-4.76Z"/><path class="cls-1" d="M189.49,98.17V64.23H177.37V57.32h32.47v6.91h-12.1V98.17Z"/></svg>