<svg width="269" height="50" viewBox="0 0 269 50" fill="none" xmlns="http://www.w3.org/2000/svg">
<path d="M11.5742 29.7715H9.1084V39H0.856445V12.584H9.1084V22.0811H11.4766L15.6758 12.584H26.2227L18.5078 24.791H18.5322L27.0039 39H15.8467L11.5742 29.7715ZM37.2783 27.4766L41.6729 12.584H50.4863L39.7197 43.4189L39.2559 44.542C37.7259 47.96 35.0241 49.6689 31.1504 49.6689C30.0762 49.6689 28.945 49.5062 27.7568 49.1807V43.2969H28.8311C29.9867 43.2969 30.8656 43.126 31.4678 42.7842C32.0863 42.4587 32.542 41.8646 32.835 41.002L33.4941 39.2441L24.3145 12.584H33.1035L37.2783 27.4766ZM50.9463 39V12.584H62.2744C65.904 12.584 68.679 13.2188 70.5996 14.4883C72.5365 15.7578 73.5049 17.5889 73.5049 19.9814C73.5049 21.2021 73.0817 22.3008 72.2354 23.2773C71.389 24.2376 70.152 24.9782 68.5244 25.499C70.624 25.8571 72.2435 26.557 73.3828 27.5986C74.5221 28.624 75.0918 29.9098 75.0918 31.4561C75.0918 33.9463 74.1478 35.8262 72.2598 37.0957C70.388 38.349 67.6862 38.9837 64.1543 39H50.9463ZM59.1982 28.2334V32.7012H64.0078C65.0332 32.7012 65.7656 32.5221 66.2051 32.1641C66.6445 31.806 66.8643 31.2607 66.8643 30.5283C66.8643 29.0635 66.0179 28.2985 64.3252 28.2334H59.1982ZM59.1982 23.1553H62.5918C63.5846 23.1553 64.2764 22.9925 64.667 22.667C65.0739 22.3252 65.2773 21.8288 65.2773 21.1777C65.2773 20.3314 65.0332 19.7373 64.5449 19.3955C64.0566 19.0537 63.2998 18.8828 62.2744 18.8828H59.1982V23.1553ZM91.1035 39C90.8105 38.4629 90.5501 37.6735 90.3223 36.6318C88.8086 38.5361 86.6927 39.4883 83.9746 39.4883C81.4844 39.4883 79.3685 38.7396 77.627 37.2422C75.8854 35.7285 75.0146 33.8324 75.0146 31.5537C75.0146 28.6891 76.0726 26.5244 78.1885 25.0596C80.3044 23.5947 83.3805 22.8623 87.417 22.8623H89.9561V21.4707C89.9561 19.0456 88.9062 17.833 86.8066 17.833C84.8535 17.833 83.877 18.7933 83.877 20.7139H75.6494C75.6494 18.1585 76.7318 16.0833 78.8965 14.4883C81.0775 12.8932 83.8525 12.0957 87.2217 12.0957C90.5908 12.0957 93.252 12.9176 95.2051 14.5615C97.1582 16.2054 98.1592 18.4596 98.208 21.3242V33.0186C98.2406 35.4437 98.6149 37.2992 99.3311 38.585V39H91.1035ZM85.9521 33.6289C86.9775 33.6289 87.8239 33.4092 88.4912 32.9697C89.1748 32.5303 89.6631 32.0339 89.9561 31.4805V27.2568H87.5635C84.6989 27.2568 83.2666 28.5426 83.2666 31.1143C83.2666 31.863 83.5189 32.4733 84.0234 32.9453C84.528 33.401 85.1709 33.6289 85.9521 33.6289ZM124.132 12.584V39H115.904V18.9316H110.973L110.533 27.0127C110.224 31.0166 109.321 34.0114 107.823 35.9971C106.326 37.9827 104.104 38.9837 101.158 39H98.5703L98.4727 32.7012L99.3271 32.6035C100.418 32.4733 101.223 31.749 101.744 30.4307C102.281 29.096 102.623 27.0859 102.77 24.4004L103.282 12.584H124.132ZM127.058 32.6523C128.376 31.334 129.328 30.0238 129.914 28.7217C130.516 27.4196 130.866 25.9059 130.964 24.1807L131.037 22.374L131.184 12.584H151.765V32.6523H155.72V47.0078H147.468V39H133.161V47.0078H124.714L124.689 32.6523H127.058ZM136.53 32.6523H143.562V18.9316H139.338L139.313 21.1045C139.2 25.8571 138.272 29.7064 136.53 32.6523ZM171.17 39C170.877 38.4629 170.617 37.6735 170.389 36.6318C168.875 38.5361 166.759 39.4883 164.041 39.4883C161.551 39.4883 159.435 38.7396 157.693 37.2422C155.952 35.7285 155.081 33.8324 155.081 31.5537C155.081 28.6891 156.139 26.5244 158.255 25.0596C160.371 23.5947 163.447 22.8623 167.483 22.8623H170.022V21.4707C170.022 19.0456 168.973 17.833 166.873 17.833C164.92 17.833 163.943 18.7933 163.943 20.7139H155.716C155.716 18.1585 156.798 16.0833 158.963 14.4883C161.144 12.8932 163.919 12.0957 167.288 12.0957C170.657 12.0957 173.318 12.9176 175.271 14.5615C177.225 16.2054 178.226 18.4596 178.274 21.3242V33.0186C178.307 35.4437 178.681 37.2992 179.397 38.585V39H171.17ZM166.019 33.6289C167.044 33.6289 167.89 33.4092 168.558 32.9697C169.241 32.5303 169.729 32.0339 170.022 31.4805V27.2568H167.63C164.765 27.2568 163.333 28.5426 163.333 31.1143C163.333 31.863 163.585 32.4733 164.09 32.9453C164.594 33.401 165.237 33.6289 166.019 33.6289Z" fill="#EA0005"/>
<path d="M185.692 31.0166C186.994 31.0166 188.077 31.4072 188.939 32.1885C189.802 32.9535 190.233 33.9382 190.233 35.1426C190.233 36.347 189.802 37.3398 188.939 38.1211C188.077 38.8861 186.994 39.2686 185.692 39.2686C184.374 39.2686 183.284 38.8779 182.421 38.0967C181.575 37.3154 181.151 36.3307 181.151 35.1426C181.151 33.9544 181.575 32.9697 182.421 32.1885C183.284 31.4072 184.374 31.0166 185.692 31.0166ZM207.368 14.0488C210.819 14.0488 213.553 15.18 215.571 17.4424C217.606 19.7048 218.623 22.7891 218.623 26.6953V27.0371C218.623 29.5111 218.11 31.7002 217.085 33.6045C216.06 35.4925 214.578 36.9492 212.642 37.9746C210.721 39 208.467 39.5127 205.879 39.5127C201.973 39.5127 198.856 38.2594 196.528 35.7529C194.217 33.2464 193.062 29.7959 193.062 25.4014V24.6201C193.094 18.598 194.087 13.8617 196.04 10.4111C197.993 6.96061 200.98 4.78776 205 3.89258C206.807 3.48568 207.987 3.09505 208.54 2.7207C209.11 2.33008 209.395 1.72786 209.395 0.914062H216.011C216.011 2.94857 215.693 4.49479 215.059 5.55273C214.44 6.61068 213.447 7.48958 212.08 8.18945C210.729 8.87305 208.825 9.44271 206.367 9.89844C204.43 10.2565 202.933 11.0215 201.875 12.1934C200.833 13.349 200.125 14.9684 199.751 17.0518C201.948 15.0498 204.487 14.0488 207.368 14.0488ZM205.83 20.3965C202.819 20.3965 201.313 22.4798 201.313 26.6465V27.0371C201.313 31.1224 202.835 33.165 205.879 33.165C208.825 33.165 210.33 31.2119 210.396 27.3057V26.5244C210.396 22.4391 208.874 20.3965 205.83 20.3965ZM232.926 39.4883C228.873 39.4883 225.593 38.2839 223.087 35.875C220.58 33.4499 219.327 30.3005 219.327 26.4268V25.7432C219.327 23.0413 219.824 20.6569 220.816 18.5898C221.826 16.5228 223.29 14.9277 225.211 13.8047C227.132 12.6654 229.41 12.0957 232.047 12.0957C235.758 12.0957 238.688 13.2513 240.836 15.5625C242.984 17.8574 244.059 21.0638 244.059 25.1816V28.3799H227.701C227.994 29.861 228.637 31.0247 229.63 31.8711C230.623 32.7174 231.909 33.1406 233.487 33.1406C236.091 33.1406 238.126 32.2292 239.591 30.4062L243.351 34.8496C242.325 36.2656 240.868 37.3968 238.98 38.2432C237.109 39.0732 235.09 39.4883 232.926 39.4883ZM231.998 18.4434C229.589 18.4434 228.157 20.0384 227.701 23.2285H236.002V22.5938C236.035 21.2754 235.701 20.2581 235.001 19.542C234.301 18.8096 233.3 18.4434 231.998 18.4434ZM268.737 12.584V39H260.51V18.9316H255.578L255.139 27.0127C254.829 31.0166 253.926 34.0114 252.429 35.9971C250.931 37.9827 248.71 38.9837 245.764 39H243.176L243.078 32.7012L243.933 32.6035C245.023 32.4733 245.829 31.749 246.35 30.4307C246.887 29.096 247.229 27.0859 247.375 24.4004L247.888 12.584H268.737Z" fill="#A1A1A1"/>
</svg>
