<svg width="15" height="15" viewBox="0 0 15 15" fill="none" xmlns="http://www.w3.org/2000/svg">
<path d="M14.4805 1.43359C14.6445 1.46094 14.7539 1.54297 14.8633 1.65234C14.9453 1.78906 15 1.92578 15 2.0625C15 4.35938 14.4258 6.49219 13.2773 8.46094C12.1289 10.375 10.625 11.9062 8.71094 13.0273C6.74219 14.1758 4.60938 14.75 2.3125 14.75C2.14844 14.75 2.01172 14.7227 1.90234 14.6133C1.76562 14.5312 1.68359 14.3945 1.68359 14.2305L1.02734 11.3867C0.972656 11.25 1 11.1133 1.08203 10.9492C1.13672 10.8125 1.24609 10.7031 1.41016 10.6484L4.47266 9.33594C4.58203 9.28125 4.71875 9.28125 4.85547 9.30859C4.99219 9.36328 5.12891 9.41797 5.23828 9.52734L6.57812 11.168C7.64453 10.6758 8.60156 10.0195 9.42188 9.17188C10.2422 8.35156 10.9258 7.39453 11.418 6.32812L9.77734 4.98828C9.66797 4.87891 9.58594 4.76953 9.55859 4.63281C9.50391 4.49609 9.53125 4.35938 9.58594 4.22266L10.8984 1.16016C10.9531 1.02344 11.0352 0.914062 11.1992 0.832031C11.3359 0.777344 11.4727 0.75 11.6367 0.777344L14.4805 1.43359Z" fill="#154990"/>
</svg>
