<svg width="106" height="107" viewBox="0 0 106 107" fill="none" xmlns="http://www.w3.org/2000/svg">
<g clip-path="url(#clip0)">
<path d="M91.9219 10.3991C89.2926 7.95402 78.6512 0.158904 54.9254 0.0544119C54.9254 0.0544119 26.9555 -1.63836 13.3328 10.9843C5.75549 18.6331 3.08478 29.8556 2.79494 43.753C2.5051 57.6505 2.15314 83.69 27.0176 90.7536H27.0383L27.0176 101.537C27.0176 101.537 26.852 105.905 29.709 106.783C33.1457 107.869 35.1746 104.547 38.4664 100.973C40.2676 99.0085 42.752 96.1245 44.636 93.9302C61.6539 95.3722 74.7176 92.0702 76.2082 91.5896C79.6449 90.461 99.0852 87.9532 102.232 61.9138C105.503 35.0384 100.659 18.0689 91.9219 10.3991V10.3991ZM94.7996 59.9493C92.1289 81.6837 76.3738 83.063 73.4754 84.0034C72.2332 84.4005 60.743 87.2845 46.3129 86.3441C46.3129 86.3441 35.5473 99.4474 32.1934 102.854C31.0961 103.961 29.8953 103.857 29.916 101.663C29.916 100.221 29.9988 83.7527 29.9988 83.7527C29.9781 83.7527 29.9781 83.7527 29.9988 83.7527C8.92306 77.8593 10.1653 55.6861 10.393 44.0874C10.6207 32.4888 12.7946 22.98 19.2125 16.5851C30.7442 6.03136 54.4906 7.59875 54.4906 7.59875C74.552 7.68234 84.1582 13.7847 86.3942 15.8327C93.7852 22.2277 97.5531 37.5253 94.7996 59.9493V59.9493ZM66.0223 43.0634C66.1051 44.8607 63.4344 44.9861 63.3516 43.1888C63.1238 38.5911 60.9914 36.355 56.6024 36.1042C54.8219 35.9997 54.9875 33.3038 56.7473 33.4083C62.5235 33.7218 65.7324 37.0655 66.0223 43.0634ZM70.225 45.4249C70.4321 36.564 64.9457 29.6257 54.532 28.8525C52.7723 28.7271 52.9586 26.0312 54.7184 26.1566C66.7262 27.0343 73.1235 35.3728 72.8957 45.4876C72.875 47.2849 70.1836 47.2013 70.225 45.4249V45.4249ZM79.9555 48.2253C79.9762 50.0226 77.2848 50.0435 77.2848 48.2462C77.1606 31.214 65.9188 21.9351 52.2754 21.8306C50.5156 21.8097 50.5156 19.1347 52.2754 19.1347C67.5336 19.2392 79.8106 29.8765 79.9555 48.2253V48.2253ZM77.616 68.7267V68.7685C75.3801 72.7392 71.1981 77.1278 66.8918 75.7277L66.8504 75.665C62.4821 74.432 52.1926 69.082 45.6918 63.8573C42.3379 61.1823 39.2738 58.0267 36.9137 54.9964C34.7813 52.3005 32.6281 49.103 30.5371 45.2577C26.1274 37.2118 25.1543 33.6173 25.1543 33.6173C23.7672 29.2704 28.0942 25.0489 32.0485 22.7919H32.0899C33.9945 21.7888 35.8164 22.1232 37.0379 23.6069C37.0379 23.6069 39.6051 26.6999 40.7024 28.2255C41.7375 29.6466 43.1246 31.9245 43.8492 33.1993C45.1121 35.4773 44.3254 37.797 43.0832 38.7583L40.5988 40.7646C39.336 41.7886 39.5016 43.6903 39.5016 43.6903C39.5016 43.6903 43.1867 57.755 56.9543 61.3077C56.9543 61.3077 58.8383 61.4749 59.8528 60.2001L61.8403 57.6923C62.7926 56.4384 65.0906 55.6443 67.3473 56.9191C70.3906 58.6536 74.2621 61.3495 76.8293 63.7946C78.2785 64.9859 78.6098 66.804 77.616 68.7267Z" fill="#7B519D"/>
</g>
<defs>
<clipPath id="clip0">
<rect width="106" height="107" fill="white" transform="matrix(1 0 0 -1 0 107)"/>
</clipPath>
</defs>
</svg>
