<?xml version="1.0" encoding="utf-8"?>
<!-- Generator: Adobe Illustrator 21.0.0, SVG Export Plug-In . SVG Version: 6.00 Build 0)  -->
<svg version="1.1" id="Layer_1" xmlns="http://www.w3.org/2000/svg"  x="0px" y="0px"
	 viewBox="0 0 2104 1097.8" style="enable-background:new 0 0 2104 1097.8;" xml:space="preserve">
<style type="text/css">
	.st0{fill:#2566AF;}
	.st1{fill:#E6A540;}
</style>
<g>
	<path class="st0" d="M912.1,819.5H740.4l107.3-659.4h171.7L912.1,819.5z M596,160.1L432.3,613.6l-19.4-97.7l0,0l-57.8-296.5
		c0,0-7-59.4-81.4-59.4H3.2L0,171.2c0,0,82.7,17.2,179.6,75.4l149.2,572.9h178.9l273.1-659.4L596,160.1L596,160.1z M1946.3,819.5
		H2104L1966.5,160h-138c-63.7,0-79.3,49.1-79.3,49.1l-256,610.3h179l35.8-97.9h218.2L1946.3,819.5L1946.3,819.5z M1757.4,586.2
		l90.2-246.8l50.7,246.8H1757.4z M1506.6,318.6l24.5-141.6c0,0-75.6-28.8-154.4-28.8c-85.2,0-287.5,37.2-287.5,218.3
		c0,170.4,237.5,172.5,237.5,262s-213,73.4-283.3,17l-25.5,148.1c0,0,76.7,37.2,193.8,37.2c117.2,0,293.9-60.7,293.9-225.8
		c0-171.5-239.6-187.4-239.6-262C1266,268.6,1433.2,278.2,1506.6,318.6L1506.6,318.6z"/>
</g>
<path class="st1" d="M413,516l-57.8-296.5c0,0-7-59.4-81.4-59.4H3.2L0,171.2c0,0,130.1,27,254.8,127.9C374.1,395.7,413,516,413,516z
	"/>
</svg>
