<svg width="94" height="107" viewBox="0 0 94 107" fill="none" xmlns="http://www.w3.org/2000/svg">
<path d="M79.921 20.2924C71.1295 11.515 59.4214 6.6875 46.979 6.6875C21.2969 6.6875 0.398661 27.5023 0.398661 53.082C0.398661 61.2533 2.53884 69.2365 6.60938 76.2793L0 100.312L24.696 93.8549C31.4942 97.5539 39.1527 99.4975 46.958 99.4975H46.979C72.6402 99.4975 94 78.6826 94 53.1029C94 40.7102 88.7125 29.0697 79.921 20.2924V20.2924ZM46.979 91.6814C40.0129 91.6814 33.1937 89.8215 27.2558 86.3105L25.85 85.4746L11.2045 89.299L15.1071 75.0672L14.1839 73.6043C10.3022 67.4602 8.26696 60.3756 8.26696 53.082C8.26696 31.8283 25.6402 14.5244 47 14.5244C57.3442 14.5244 67.0589 18.5369 74.3607 25.8305C81.6625 33.124 86.1527 42.8 86.1317 53.1029C86.1317 74.3775 68.3179 91.6814 46.979 91.6814V91.6814ZM68.2129 62.7998C67.0589 62.2146 61.3308 59.4143 60.2607 59.0381C59.1906 58.641 58.4143 58.4529 57.638 59.6232C56.8616 60.7936 54.6375 63.385 53.9451 64.1791C53.2737 64.9523 52.5813 65.0568 51.4272 64.4717C44.5871 61.0652 40.0969 58.3902 35.5857 50.6787C34.3897 48.6307 36.7817 48.777 39.0058 44.3465C39.3835 43.5732 39.1946 42.9045 38.9009 42.3193C38.6071 41.7342 36.2781 36.0289 35.3129 33.7092C34.3688 31.4521 33.4036 31.7656 32.6902 31.7238C32.0188 31.682 31.2424 31.682 30.4661 31.682C29.6897 31.682 28.4308 31.9746 27.3607 33.124C26.2906 34.2943 23.2902 37.0947 23.2902 42.8C23.2902 48.5053 27.4656 54.0225 28.0321 54.7957C28.6196 55.5689 36.2362 67.2721 47.9232 72.3086C55.3089 75.4852 58.2045 75.7568 61.8973 75.2135C64.1424 74.8791 68.7795 72.4131 69.7446 69.6963C70.7098 66.9795 70.7098 64.6598 70.4161 64.1791C70.1433 63.6566 69.367 63.3641 68.2129 62.7998Z" fill="#2CB742"/>
</svg>
