<svg width="576" height="512" viewBox="0 0 576 512" fill="none" xmlns="http://www.w3.org/2000/svg">
<g clip-path="url(#clip0)">
<path d="M560 224H530.5C521.7 204 508.9 186.3 493.1 171.5L512 96H480C450.6 96 424.6 109.5 407 130.3C399.4 129.2 391.9 128 384 128H256C178.6 128 114.1 183 99.1999 256H55.9999C41.1999 256 29.4999 242.5 32.4999 227.2C34.6999 215.8 45.3999 208 56.9999 208H57.9999C61.2999 208 63.9999 205.3 63.9999 202V182C63.9999 178.7 61.2999 176 57.9999 176C29.4999 176 4.09992 196.4 0.499917 224.6C-3.90008 258.8 22.6999 288 55.9999 288H95.9999C95.9999 340.2 121.4 386.1 160 415.3V496C160 504.8 167.2 512 176 512H240C248.8 512 256 504.8 256 496V448H384V496C384 504.8 391.2 512 400 512H464C472.8 512 480 504.8 480 496V415.3C491.8 406.4 502.3 395.9 511.3 384H560C568.8 384 576 376.8 576 368V240C576 231.2 568.8 224 560 224ZM432 288C423.2 288 416 280.8 416 272C416 263.2 423.2 256 432 256C440.8 256 448 263.2 448 272C448 280.8 440.8 288 432 288ZM256 96H384C389.4 96 394.7 96.4 399.9 96.8C399.9 96.5 400 96.3 400 96C400 43 357 0 304 0C251 0 208 43 208 96C208 98.1 208.5 100.1 208.6 102.2C223.8 98.3 239.6 96 256 96Z" fill="#EA0C00"/>
</g>
<defs>
<clipPath id="clip0">
<rect width="576" height="512" fill="white"/>
</clipPath>
</defs>
</svg>
